<?xml version="1.0" encoding="UTF-8"?>
<svg width="373px" height="270px" viewBox="0 0 373 270" version="1.1" xmlns="http://www.w3.org/2000/svg" xmlns:xlink="http://www.w3.org/1999/xlink">
    <title>316ee7e1-d2ff-407c-a158-4a5648f9392f</title>
    <g id="Page-1" stroke="none" stroke-width="1" fill="none" fill-rule="evenodd">
        <g id="C-walkthrou-03" transform="translate(-1.000000, -175.000000)">
            <g id="316ee7e1-d2ff-407c-a158-4a5648f9392f" transform="translate(1.000000, 175.000000)">
                <g id="#ffffffff" transform="translate(31.555769, 30.521154)" fill="#FFFFFF" fill-rule="nonzero">
                    <path d="M19.6111346,3.04694231 C21.8096923,0.729403846 25.1308077,0.124153846 28.1984423,0.222442308 C36.5633077,0.248307692 44.923,0.248307692 53.2878654,0.217269231 C54.6225192,0.217269231 55.9571731,0.367288462 57.2659615,0.641461538 C57.5246154,4.67128846 56.8986731,9.13048077 53.8,12.0274038 C52.8791923,12.8706154 51.8238846,13.5482885 50.77375,14.2156154 C45.5023846,16.5797115 39.6568077,15.7571923 34.0698846,16.2382885 C34.3595769,22.9270769 33.1439038,30.2107692 28.2087885,35.1200192 C28.1674038,43.8883846 28.2294808,52.65675 28.17775,61.4251154 C18.7989615,61.4302885 9.42017308,61.4251154 0.0413846154,61.4251154 C0.0620769231,45.6472308 0.0620769231,29.8693462 0.0413846154,14.0914615 C2.97969231,14.0500769 5.918,14.1845769 8.85113462,14.05525 C9.684,14.0862885 10.1909615,13.3051538 10.7444808,12.8137115 C13.6983077,9.55467308 16.6417885,6.28528846 19.6111346,3.04694231 Z" id="Path"></path>
                    <path d="M293.768692,181.554308 C300.555769,169.345846 307.404923,157.168423 314.217865,144.970308 C317.911442,148.746654 321.625712,152.512654 325.329635,156.278654 C328.200692,159.294558 331.495942,162.046635 333.415154,165.817808 C334.998115,168.750942 335.463692,172.103096 335.732692,175.377654 C336.731096,187.725788 337.781231,200.073923 338.774462,212.422058 C322.660327,212.30825 306.541019,212.401365 290.426885,212.3755 C290.344115,212.220308 290.188923,211.90475 290.106154,211.749558 C289.340538,210.249365 288.642173,208.718135 287.871385,207.228288 C286.629846,204.760731 284.772712,202.696673 283.1225,200.508462 C281.068788,197.823635 278.999558,195.149154 276.945846,192.464327 C272.859115,187.172269 268.793077,181.864692 264.701173,176.572635 C263.495846,175.025885 262.456058,173.272212 262.187058,171.301269 C261.654231,166.805865 265.425404,162.051808 270.076,162.103538 C273.443673,161.881096 276.268173,164.084827 278.425346,166.428231 C281.203288,169.206173 284.012269,171.953077 286.779865,174.746538 C289.102577,177.022692 291.39425,179.329885 293.768692,181.554308 Z" id="Path"></path>
                </g>
                <g id="#70da44ff" transform="translate(59.490385, 0.000000)">
                    <path d="M0.253480769,0.579384615 C23.0977885,0.734576923 45.9369231,0.563865385 68.7812308,0.667326923 C70.4728269,0.677673077 72.1644231,0.548346154 73.8405,0.300038462 C73.6904808,32.4662308 73.8456731,64.6324231 73.7629038,96.8037885 C65.905,97.2176346 58.0315769,96.8813846 50.1685,96.9900192 C34.4785577,97.0003654 18.7886154,96.9589808 3.09867308,97.0158846 C2.17786538,96.9124231 1.05013462,97.1503846 0.372461538,96.3640769 C0.170711538,94.8949231 0.232788462,93.4154231 0.243134615,91.9462692 C0.294865385,83.1779038 0.232788462,74.4095385 0.274173077,65.6411731 C5.20928846,60.7319231 6.42496154,53.4482308 6.13526923,46.7594423 C11.7221923,46.2783462 17.5677692,47.1008654 22.8391346,44.7367692 C31.9903077,44.99025 41.1466538,44.7264231 50.2978269,44.8919615 C50.2616154,46.5680385 50.2098846,48.2492885 50.1374615,49.9253654 C37.1995962,49.9253654 24.2617308,49.8995 11.3290385,49.9357115 C11.0238269,50.2047115 10.4185769,50.7323654 10.1133654,51.0013654 C11.1479808,51.5341923 12.2291538,52.0721923 13.4293077,52.0049423 C25.6739808,51.9583846 37.9186538,51.9894231 50.1633269,51.9790769 C50.2150577,53.6655 50.2409231,55.3570962 50.2409231,57.0435192 C38.8394615,57.0745577 27.4328269,57.0900769 16.0313654,57.0383462 C13.9259231,57.1055962 11.3600769,56.5313846 9.90644231,58.4816346 C13.2379038,59.4696923 16.7349038,59.0713654 20.1543077,59.11275 C31.7161346,59.1230962 43.2779615,59.1075769 54.8397885,59.1179231 C57.8556923,59.1541346 60.8871154,59.2058654 63.8875,58.7816731 C63.3857115,58.1609038 63.1322308,57.028 62.1234808,57.1314615 C58.8903077,56.9038462 55.6364423,57.1573269 52.3980962,57.0383462 C52.3929231,55.3519231 52.3980962,53.6655 52.4032692,51.98425 C56.1589231,51.8807885 59.9559615,52.3308462 63.6650577,51.5341923 C63.5357308,51.1513846 63.2719038,50.3805962 63.1425769,49.9926154 C59.5628077,49.8839808 55.9830385,49.9150192 52.3980962,49.9253654 C52.3929231,48.2389423 52.38775,46.5525192 52.3825769,44.8660962 C55.8950962,44.6902115 59.449,45.1609615 62.9304808,44.6384808 C63.7685192,44.3487885 63.2563846,43.4745385 63.1684423,42.8692885 C59.5990192,42.4192308 55.9882115,42.7865192 52.4032692,42.6830577 C52.3980962,41.0380192 52.38775,39.3929808 52.3825769,37.7531154 C55.4553846,37.6341346 58.5385385,37.8824423 61.6061731,37.6341346 C62.6873462,37.7531154 62.8477115,36.5012308 63.3339808,35.8339038 C59.4748654,35.3579808 55.5847115,35.5804231 51.7100769,35.5493846 C44.45225,35.5338654 37.1944231,35.57525 29.9365962,35.5235192 C29.6986346,36.2425769 29.4555,36.9616346 29.2175385,37.6858654 C36.2322308,37.7945 43.2520962,37.59275 50.2667885,37.8048462 C50.2719615,39.4188462 50.2771346,41.0328462 50.2771346,42.6468462 C42.1398846,42.6416731 33.9974615,42.8279038 25.8653846,42.5485577 C28.9640577,39.6516346 29.59,35.1924423 29.3313462,31.1626154 C28.0225577,30.8884423 26.6879038,30.7384231 25.35325,30.7384231 C16.9883846,30.7694615 8.62869231,30.7694615 0.263826923,30.7435962 C0.253480769,20.6871346 0.253480769,10.6358462 0.253480769,0.579384615 M15.2398846,11.567 C13.7655577,12.8913077 11.4221538,14.0293846 11.6083846,16.3520962 C11.49975,18.1678462 13.3206731,18.9696731 14.6346346,19.7352885 C14.6501538,20.5629808 14.6656731,21.3906731 14.6760192,22.2183654 C13.7396923,21.8355577 12.8085385,21.4424038 11.8722115,21.0595962 C11.5307885,21.7269231 11.1893654,22.39425 10.8531154,23.06675 C12.0584423,23.5685385 13.2637692,24.0496346 14.4846154,24.5100385 C14.5984231,25.0739038 14.7070577,25.6377692 14.8208654,26.2119808 C15.4778462,26.2171538 16.1296538,26.2326731 16.7866346,26.2481923 C16.9521731,25.7050192 17.1177115,25.1721923 17.2884231,24.6393654 C18.7472308,23.8168462 20.3819231,22.6115192 20.0611923,20.6974808 C20.2267308,18.8144808 18.1523269,18.1730192 17.1228846,16.9987308 C16.9987308,16.3624423 16.9004423,15.7209808 16.8280192,15.0846923 C17.5781154,15.3381731 18.3333846,15.602 19.0834808,15.8658269 C19.4197308,15.2243654 19.7559808,14.5829038 20.0922308,13.9466154 C19.1714231,13.5069038 18.2506154,13.0775385 17.3298077,12.6481731 C17.1849615,12.3636538 16.8900962,11.7894423 16.74525,11.5049231 C16.2434615,11.5256154 15.7416731,11.5463077 15.2398846,11.567 M33.0404423,16.678 C32.9628462,18.6385962 32.9318077,20.6043654 33.01975,22.5649615 C33.3197885,22.4045962 33.9198654,22.0786923 34.2199038,21.9183269 C34.49925,20.2577692 34.3233654,18.5713462 34.3026731,16.9004423 C33.9871154,16.8435385 33.356,16.7349038 33.0404423,16.678 M46.3404231,16.9211346 C44.5195,17.4591346 44.6591731,19.5490577 44.6488269,21.0647692 C45.73,22.2390577 47.2922692,22.1925 48.7510769,21.9648846 C49.0459423,20.8268077 49.3356346,19.6887308 49.5839423,18.5403077 C48.7924615,17.5470769 47.7681923,16.3624423 46.3404231,16.9211346 M53.6292885,16.9418269 C52.0411538,17.6557115 51.4203846,20.0146346 52.6412308,21.3285962 C53.4896154,22.7149808 55.3312308,21.9183269 56.6141538,21.8821154 C55.6260962,21.6958846 54.6173462,21.6286346 53.6448077,21.3699808 C52.4653462,20.7181731 53.1378462,19.1507308 52.9671346,18.0695577 C53.2930385,17.8988462 53.9396731,17.55225 54.2655769,17.3763654 C54.8139231,17.3039423 55.9209615,17.1590962 56.4744808,17.0866731 C55.5433269,16.947 54.5604423,16.6573077 53.6292885,16.9418269 M57.1159423,16.7504231 C57.1211154,18.5713462 57.1159423,20.3974423 57.09525,22.2235385 C58.1815962,22.1562885 59.2731154,22.0735192 60.3594615,21.9235 C59.4696923,21.6958846 58.5644038,21.5148269 57.6694615,21.3441154 C57.6435962,20.9664808 57.5970385,20.2112115 57.5763462,19.8284038 C58.4454231,19.7715 59.3196731,19.7197692 60.1939231,19.6680385 C59.0713654,19.2231538 57.2452692,19.2645385 57.4935769,17.5677692 C58.4040385,17.3970577 59.3196731,17.2470385 60.2249615,17.0401154 C59.1903462,16.9056154 58.1557308,16.8176731 57.1159423,16.7504231 M35.3528077,22.6373846 C35.5183462,21.2096154 35.5235192,19.7663269 35.5804231,18.3333846 C36.7185,19.3369615 37.5617115,20.6043654 38.2497308,21.9493654 C38.4618269,22.0114423 38.8860192,22.1355962 39.0981154,22.2028462 C39.0515577,20.51125 39.0308654,18.8248269 39.0567308,17.1384038 C38.9274038,17.1280577 38.6739231,17.1073654 38.5497692,17.0970192 C38.5445962,18.2092308 38.53425,19.3214423 38.5135577,20.4388269 C37.4375577,19.1817692 36.4857115,17.8315962 35.5597308,16.4607308 C35.1562308,18.4885769 34.6492692,20.6095385 35.3528077,22.6373846 M39.5481731,16.5279808 C40.3293077,18.6023846 40.5051923,21.1682308 42.3364615,22.6529038 C43.1796731,20.6354038 44.1108269,18.6127308 44.2815385,16.3986538 C42.9261923,17.2935962 42.6365,18.9438077 42.0260769,20.3353654 C41.4053077,18.9541538 41.3380577,16.9004423 39.5481731,16.5279808 M50.23575,17.1177115 C49.9719231,18.8455192 49.1907885,21.7372692 51.31175,22.5494423 C51.4203846,20.5422885 51.4203846,18.5299615 51.3220962,16.5279808 C51.0479231,16.6728269 50.50475,16.9676923 50.23575,17.1177115 M10.222,65.7653269 C11.2824808,65.9670769 12.3533077,66.1429615 13.4344808,66.1791731 C27.4121346,66.2309038 41.3949615,66.1222692 55.3726154,66.1998654 C57.9643269,66.1429615 60.6232885,66.4740385 63.1684423,65.8791346 C63.3236346,65.3825192 63.4581346,64.8807308 63.5771154,64.3789423 C59.9921731,63.8823269 56.3761923,64.1409808 52.7705577,64.08925 C39.3050385,64.1151154 25.8291731,64.0375192 12.3636538,64.1254615 C11.2152308,63.9444038 10.6513654,64.8859038 10.222,65.7653269 M39.7809615,71.5902115 C40.1896346,72.2471923 40.2724038,73.4576923 41.3277115,73.2611154 C48.2544615,73.3438846 55.2019038,73.3594038 62.1286538,73.2559423 C63.2305192,73.4214808 63.3805385,72.3040962 63.6598846,71.5384808 C59.5524615,70.9332308 55.3933077,71.3419038 51.2651923,71.2332692 C47.4371154,71.3470769 43.578,70.9125385 39.7809615,71.5902115 Z" id="Shape" fill="#EA393F" fill-rule="nonzero"></path>
                    <rect id="Rectangle" fill="#EA393F" x="10" y="9" width="52" height="20"></rect>
                    <path d="M30.07,23 L30.07,16.7 L28.99,16.7 L28.99,23 L30.07,23 Z M32.716,23 L32.716,19.022 C32.716,18.854 32.707,18.698 32.689,18.554 C32.779,18.74 32.866,18.896 32.95,19.022 L32.95,19.022 L35.56,23 L36.541,23 L36.541,16.7 L35.47,16.7 L35.47,20.615 C35.47,20.771 35.479,20.93 35.497,21.092 C35.383,20.864 35.296,20.705 35.236,20.615 L35.236,20.615 L32.689,16.7 L31.645,16.7 L31.645,23 L32.716,23 Z M40.87,23 L43.057,16.7 L41.914,16.7 L40.51,20.957 C40.432,21.215 40.381,21.407 40.357,21.533 C40.327,21.419 40.273,21.227 40.195,20.957 L40.195,20.957 L38.782,16.7 L37.621,16.7 L39.817,23 L40.87,23 Z M46.675,23.108 C47.161,23.108 47.5885,23.0135 47.9575,22.8245 C48.3265,22.6355 48.6145,22.3805 48.8215,22.0595 C49.0285,21.7385 49.183,21.392 49.285,21.02 C49.387,20.648 49.438,20.258 49.438,19.85 C49.438,19.442 49.387,19.052 49.285,18.68 C49.183,18.308 49.0285,17.9615 48.8215,17.6405 C48.6145,17.3195 48.3265,17.0645 47.9575,16.8755 C47.5885,16.6865 47.161,16.592 46.675,16.592 C46.285,16.592 45.931,16.655 45.613,16.781 C45.295,16.907 45.0325,17.0765 44.8255,17.2895 C44.6185,17.5025 44.4445,17.75 44.3035,18.032 C44.1625,18.314 44.062,18.6065 44.002,18.9095 C43.942,19.2125 43.912,19.526 43.912,19.85 C43.912,20.174 43.942,20.4875 44.002,20.7905 C44.062,21.0935 44.1625,21.386 44.3035,21.668 C44.4445,21.95 44.6185,22.1975 44.8255,22.4105 C45.0325,22.6235 45.295,22.793 45.613,22.919 C45.931,23.045 46.285,23.108 46.675,23.108 Z M46.675,22.073 C46.381,22.073 46.1245,22.007 45.9055,21.875 C45.6865,21.743 45.5155,21.566 45.3925,21.344 C45.2695,21.122 45.178,20.885 45.118,20.633 C45.058,20.381 45.028,20.12 45.028,19.85 C45.028,19.49 45.0775,19.151 45.1765,18.833 C45.2755,18.515 45.454,18.2345 45.712,17.9915 C45.97,17.7485 46.291,17.627 46.675,17.627 C46.969,17.627 47.2255,17.693 47.4445,17.825 C47.6635,17.957 47.8345,18.134 47.9575,18.356 C48.0805,18.578 48.172,18.8135 48.232,19.0625 C48.292,19.3115 48.322,19.574 48.322,19.85 C48.322,20.108 48.292,20.3615 48.232,20.6105 C48.172,20.8595 48.0805,21.0965 47.9575,21.3215 C47.8345,21.5465 47.662,21.728 47.44,21.866 C47.218,22.004 46.963,22.073 46.675,22.073 Z M51.868,23 L51.868,16.7 L50.788,16.7 L50.788,23 L51.868,23 Z M55.855,23.108 C56.887,23.108 57.622,22.616 58.06,21.632 L58.06,21.632 L57.061,21.254 C56.737,21.794 56.335,22.064 55.855,22.064 C55.363,22.064 54.9865,21.842 54.7255,21.398 C54.4645,20.954 54.334,20.438 54.334,19.85 C54.334,19.586 54.3595,19.3295 54.4105,19.0805 C54.4615,18.8315 54.5425,18.5945 54.6535,18.3695 C54.7645,18.1445 54.9235,17.9645 55.1305,17.8295 C55.3375,17.6945 55.579,17.627 55.855,17.627 C56.137,17.627 56.3695,17.687 56.5525,17.807 C56.7355,17.927 56.911,18.116 57.079,18.374 L57.079,18.374 L58.051,17.933 C57.901,17.561 57.637,17.2445 57.259,16.9835 C56.881,16.7225 56.413,16.592 55.855,16.592 C55.393,16.592 54.985,16.6925 54.631,16.8935 C54.277,17.0945 54.001,17.3585 53.803,17.6855 C53.605,18.0125 53.458,18.359 53.362,18.725 C53.266,19.091 53.218,19.466 53.218,19.85 C53.218,20.174 53.2465,20.486 53.3035,20.786 C53.3605,21.086 53.455,21.38 53.587,21.668 C53.719,21.956 53.8825,22.205 54.0775,22.415 C54.2725,22.625 54.523,22.793 54.829,22.919 C55.135,23.045 55.477,23.108 55.855,23.108 Z M63.55,23 L63.55,21.983 L60.328,21.983 L60.328,20.255 L62.191,20.255 L62.191,19.238 L60.328,19.238 L60.328,17.717 L63.352,17.717 L63.352,16.7 L59.248,16.7 L59.248,23 L63.55,23 Z" id="INVOICE" fill="#FEFEFE" fill-rule="nonzero"></path>
                    <path d="M258.860769,123.212346 C260.195423,123.507212 261.374885,124.241788 262.559519,124.903942 C275.662923,132.461808 289.030154,139.579962 302.045615,147.282673 C296.825981,156.702846 291.52875,166.086808 286.28325,175.491462 C279.470308,187.689577 272.621154,199.867 265.834077,212.075462 C263.459635,209.851038 261.167962,207.543846 258.84525,205.267692 C261.13175,202.024173 262.849212,198.428885 264.8305,194.999135 C272.310769,181.637077 279.816904,168.285365 287.260962,154.897442 C286.107365,153.588654 284.700288,152.316077 284.353692,150.531365 C284.141596,149.051865 284.539923,147.582712 284.783058,146.13425 C279.387538,143.102827 274.033404,139.988635 268.612019,136.998596 C267.360135,138.022865 266.1755,139.238538 264.618404,139.781712 C262.999231,140.211077 261.323154,139.81275 259.703981,139.605827 C246.745423,162.905365 233.642019,186.127308 220.662769,209.4165 C221.868096,210.839096 223.378635,212.241 223.621769,214.19125 C223.714885,215.546596 223.368288,216.876077 223.1355,218.205558 C228.520673,221.236981 233.8955,224.27875 239.316885,227.23775 C240.584288,226.0945 241.794788,224.558096 243.620885,224.382212 C245.157288,224.258058 246.678173,224.620173 248.188712,224.863308 C248.457712,224.232192 248.731885,223.60625 249.011231,222.985481 C251.064942,225.670308 253.134173,228.344788 255.187885,231.029615 C252.942769,235.059442 250.728692,239.109962 248.395635,243.093231 C234.723192,235.618135 221.236981,227.806788 207.590404,220.290308 C206.835135,219.845423 206.079865,219.385019 205.438404,218.800462 C206.043654,216.715712 207.357615,214.941346 208.381885,213.053173 C224.909865,183.520077 241.448192,153.992154 257.965827,124.459058 C258.229654,124.019346 258.529692,123.600327 258.860769,123.212346 Z" id="Path" fill="#F5B84D" fill-rule="nonzero"></path>
                </g>
                <g id="#34bb09ff" transform="translate(70.836538, 10.380769)" fill-rule="nonzero">
                    <path d="M5.59123112,16.477 L5.59123112,14.8535502 C6.55327546,14.697218 7.33794288,14.2973683 7.94523337,13.6540011 C8.55252386,13.010634 8.85616911,12.1778643 8.85616911,11.1556922 C8.85616911,10.7347978 8.80806689,10.3469737 8.71186246,9.99221984 C8.61565802,9.63746599 8.45932582,9.32780797 8.24286584,9.06324577 C8.02640586,8.79868358 7.81896505,8.57320443 7.6205434,8.38680834 C7.42212176,8.20041225 7.1485404,8.02002894 6.79979932,7.8456584 C6.45105825,7.67128786 6.17146411,7.53900676 5.96101691,7.44881511 C5.75056971,7.35862345 5.45293724,7.2413743 5.0681195,7.09706764 C4.4908929,6.88060767 4.07601127,6.71525629 3.82347463,6.60101353 C3.57093799,6.48677076 3.31840135,6.30338106 3.06586471,6.05084442 C2.81332807,5.79830778 2.68705975,5.50969448 2.68705975,5.18500451 C2.68705975,4.70398234 2.84339196,4.33119015 3.15605637,4.06662796 C3.46872078,3.80206576 3.90164074,3.66978467 4.45481623,3.66978467 C4.98394062,3.66978467 5.42888613,3.78703382 5.78965276,4.02153213 C6.15041939,4.25603044 6.40896881,4.56568846 6.56530101,4.9505062 L6.56530101,4.9505062 L8.29698083,4.37327959 C8.11659752,3.75997632 7.79491394,3.2398711 7.3319301,2.81296392 C6.86894626,2.38605675 6.28871327,2.10044983 5.59123112,1.95614318 L5.59123112,1.95614318 L5.59123112,0.477 L3.71524464,0.477 L3.71524464,1.93810485 C2.78927696,2.09443705 2.06173093,2.47023563 1.53260654,3.06550056 C1.00348215,3.6607655 0.738919955,4.36125404 0.738919955,5.16696618 C0.738919955,5.61191169 0.814079669,6.01476776 0.964399098,6.37553439 C1.11471853,6.73630101 1.28307629,7.02792071 1.46947238,7.25039346 C1.65586847,7.47286622 1.93245622,7.69233258 2.29923563,7.90879256 C2.66601503,8.12525254 2.96665389,8.28459113 3.2011522,8.38680834 C3.43565051,8.48902555 3.77537242,8.62431304 4.22031793,8.7926708 C4.67728899,8.96102856 5.02302368,9.09932244 5.25752198,9.20755242 C5.49202029,9.31578241 5.75958888,9.46610184 6.06022773,9.65851071 C6.36086659,9.85091958 6.57732657,10.0703859 6.70960767,10.3169098 C6.84188876,10.5634337 6.90802931,10.8490406 6.90802931,11.1737306 C6.90802931,11.7990594 6.71562044,12.2800815 6.33080271,12.6167971 C5.94598497,12.9535126 5.42888613,13.1218703 4.7795062,13.1218703 C4.16620293,13.1218703 3.62505299,12.9505062 3.15605637,12.6077779 C2.68705975,12.2650496 2.32629312,11.7990594 2.07375648,11.2098072 L2.07375648,11.2098072 L0.306,11.8591871 C0.55853664,12.6408482 0.98243743,13.2932345 1.57770237,13.8163461 C2.17296731,14.3394577 2.8854814,14.6791796 3.71524464,14.8355118 L3.71524464,14.8355118 L3.71524464,16.477 L5.59123112,16.477 Z" id="$" fill="#BD282D"></path>
                    <path d="M253.27225,129.400942 C254.829346,128.857769 256.013981,127.642096 257.265865,126.617827 C262.68725,129.607865 268.041385,132.722058 273.436904,135.753481 C273.193769,137.201942 272.795442,138.671096 273.007538,140.150596 C273.354135,141.935308 274.761212,143.207885 275.914808,144.516673 C268.47075,157.904596 260.964615,171.256308 253.484346,184.618365 C251.503058,188.048115 249.785596,191.643404 247.499096,194.886923 C244.7315,192.093462 241.922519,189.346558 239.144577,186.568615 C236.987404,184.225212 234.162904,182.021481 230.795231,182.243923 C226.144635,182.192192 222.373462,186.94625 222.906288,191.441654 C223.175288,193.412596 224.215077,195.166269 225.420404,196.713019 C229.512308,202.005077 233.578346,207.312654 237.665077,212.604712 C237.385731,213.225481 237.111558,213.851423 236.842558,214.482538 C235.332019,214.239404 233.811135,213.877288 232.274731,214.001442 C230.448635,214.177327 229.238135,215.713731 227.970731,216.856981 C222.549346,213.897981 217.174519,210.856212 211.789346,207.824788 C212.022135,206.495308 212.368731,205.165827 212.275615,203.810481 C212.032481,201.860231 210.521942,200.458327 209.316615,199.035731 C222.295865,175.746538 235.399269,152.524596 248.357827,129.225058 C249.977,129.431981 251.653077,129.830308 253.27225,129.400942 Z" id="Path" fill="#E5AA42"></path>
                </g>
                <g id="#2b5468ff" transform="translate(0.000000, 20.175000)" fill="#173358" fill-rule="nonzero">
                    <path d="M184.166712,1.62434615 C214.713731,-3.07798077 247.174788,5.65934615 270.945077,25.4929231 C286.28325,37.8048462 297.948538,54.5087115 304.70975,72.9507308 C306.153038,76.59775 307.027288,80.431 308.268827,84.1452692 C310.198385,81.507 311.258865,78.3565962 313.116,75.6821154 C314.109231,74.0577692 316.882,75.32 316.556096,77.0891923 C316.344,78.3876346 315.645635,79.5360577 315.055904,80.6948269 C313.297058,83.9538654 311.6365,87.2749808 309.82075,90.5081538 C309.220673,91.4755192 308.315385,92.9395 306.970385,92.33425 C303.064712,90.7409423 299.469423,88.4647885 295.69825,86.5817885 C294.591212,85.9817115 293.41175,85.4695769 292.480596,84.6160192 C291.658077,83.1468654 293.282423,80.7051731 294.994712,81.5690769 C298.155462,82.8675192 300.979962,84.8798462 304.223481,86.01275 C300.359192,68.9364231 291.725327,53.1016346 280.184192,39.9982308 C274.685212,33.9302115 268.482692,28.5191731 261.840462,23.73925 C254.049808,18.2350962 245.436635,13.9362692 236.451,10.7548269 C227.398115,7.65615385 218.014154,5.29205769 208.423269,4.85751923 C196.613135,3.85911538 184.715058,5.28688462 173.272212,8.24071154 C168.269846,9.49776923 163.360596,11.1531538 158.673788,13.3103269 C157.463288,13.7603846 156.216577,14.4949615 154.892269,14.2880385 C153.624865,13.7034808 153.831788,12.1619038 153.671423,11.0238269 C163.205404,6.16113462 173.665365,3.43492308 184.166712,1.62434615 Z" id="Path"></path>
                    <path d="M0,20.8061154 C10.4961731,20.78025 20.9923462,20.7957692 31.4885192,20.8061154 C31.5299038,22.0114423 31.5712885,23.2219423 31.5971538,24.4376154 C31.6178462,40.2155 31.6178462,55.9933846 31.5971538,71.7712692 C31.5764615,72.9972885 31.54025,74.2284808 31.5040385,75.4648462 C21.0026923,75.6045192 10.5013462,75.5010577 0,75.5165769 L0,20.8061154 M20.9199231,68.0104423 C21.45275,68.5329231 22.7511923,69.8158462 23.2943654,68.7760577 L23.6564808,69.0554038 C23.8220192,68.9002115 24.14275,68.595 24.3031154,68.4449808 L24.9238846,68.6467308 C24.9859615,68.3208269 25.1049423,67.6638462 25.1670192,67.3327692 L25.4670577,67.3845 C26.3102692,67.18275 26.3309615,65.7911923 25.4825769,65.5894423 L25.1825385,65.6411731 C25.0739038,65.3514808 24.8566346,64.7720962 24.748,64.4824038 C24.0392885,64.2754808 23.33575,64.0633846 22.6270385,63.8512885 C21.0699423,64.5030962 19.6628654,66.4326538 20.9199231,68.0104423 Z" id="Shape"></path>
                    <path d="M190.545115,78.8118269 C193.385135,77.2340385 195.645769,74.8751154 198.108154,72.8007115 C200.234288,74.6837115 202.174192,76.8305385 204.677962,78.2479615 C211.382269,82.3346923 219.633327,83.5607115 227.305,82.0812115 C228.080962,85.3609423 228.029231,88.7441346 228.029231,92.0911154 C228.215462,102.871808 226.710096,113.818038 222.638885,123.848635 C218.821154,133.470558 211.589192,141.804385 202.231096,146.356692 C200.467077,147.137827 198.480615,148.410404 196.514846,147.505115 C189.996769,144.985827 184.073596,140.780115 179.810981,135.208712 C173.463615,127.133538 170.297692,117.056385 168.823365,107.015442 C167.747365,98.8264615 167.540442,90.4719423 168.580231,82.2726154 C171.699596,82.5312692 174.829308,82.9295962 177.959019,82.6554231 C182.376827,82.3346923 186.691173,80.969 190.545115,78.8118269 M188.118942,94.4759038 C187.611981,96.8451731 187.725788,99.2868654 187.622327,101.692346 C186.8205,101.997558 186.023846,102.302769 185.222019,102.613154 C185.097865,104.428904 185.025442,106.255 185.061654,108.086269 C185.159942,114.475019 184.932327,120.874115 185.196154,127.262865 C194.171442,127.392192 203.16225,127.387019 212.137538,127.262865 C212.339288,119.048019 212.30825,110.817654 212.122019,102.597635 C211.330538,102.395885 210.539058,102.199308 209.75275,102.002731 C209.478577,98.8471538 209.923462,95.5001731 208.521558,92.5618654 C206.736846,88.4440962 202.075904,85.7851346 197.627058,86.3645192 C193.188558,86.7318077 189.210462,90.1719038 188.118942,94.4759038 Z" id="Shape"></path>
                    <path d="M192.438462,92.5515192 C195.030173,88.9924423 200.772288,88.2733846 203.96925,91.4237885 C207.021365,94.0930962 206.514404,98.5781538 206.214365,102.209654 C201.149923,102.106192 196.049269,102.576942 191.021038,101.935481 C191.088288,98.8057692 190.364058,95.2208269 192.438462,92.5515192 Z" id="Path"></path>
                    <path d="M89.1786731,105.251423 C90.0374038,104.299577 91.0358077,103.09425 92.4532308,103.177019 C93.3740385,103.528788 94.0930962,104.232327 94.8225,104.873788 C97.7452885,107.620692 100.750846,110.284827 103.668462,113.042077 C104.284058,113.699058 105.065192,114.381904 105.137615,115.349269 C105.0445,116.828769 103.058038,118.122038 101.842365,116.942577 C99.1575385,114.847481 96.8348269,112.333365 94.2327692,110.145154 C93.881,129.989077 99.8352115,149.739885 110.119288,166.640327 C118.29275,179.790288 129.482115,191.005519 142.352731,199.577308 C150.050269,204.631404 158.50825,208.412923 167.167981,211.480558 C175.796673,214.486115 184.896115,215.779385 193.959346,216.663981 C211.397788,217.662385 229.048327,214.336096 244.971058,207.171385 C246.109135,206.436808 247.857635,206.566135 248.318038,208.035288 C248.995712,209.556173 247.464481,210.575269 246.274673,211.092577 C226.047942,220.429981 202.9605,223.176885 181.047346,219.333288 C163.034692,216.084596 145.891115,208.283596 131.535827,196.944212 C109.131231,179.226423 94.1344808,152.45575 90.7564615,124.086596 C89.9649808,119.761904 90.3633077,115.344096 89.7218462,111.009058 C87.4146538,113.171404 85.5471731,115.783808 83.0847885,117.780615 C82.1846731,118.732462 80.4672115,118.034096 80.1982115,116.854635 C79.7171154,115.835538 80.4827308,114.914731 81.0776346,114.164635 C83.6538269,111.081481 86.618,108.350096 89.1786731,105.251423 Z" id="Path"></path>
                    <path d="M196.835577,113.18175 C195.9665,111.278058 198.863423,109.715788 200.120481,111.288404 C201.268904,112.219558 200.430865,113.642154 200.177385,114.790577 C199.680769,116.192481 200.415346,117.615077 200.705038,118.980769 C199.370385,118.985942 198.035731,118.991115 196.70625,118.985942 C197.337365,117.087423 197.528769,115.090615 196.835577,113.18175 Z" id="Path"></path>
                    <path d="M321.661923,222.095712 C321.744692,222.250904 321.899885,222.566462 321.982654,222.721654 C338.096788,222.747519 354.216096,222.654404 370.330231,222.768212 C371.038942,222.79925 371.747654,222.835462 372.461538,222.887192 L372.461538,248.809481 C354.542,248.814654 336.622462,248.861212 318.702923,248.778442 C318.671885,240.258385 318.475308,231.727981 318.744308,223.213096 C319.711673,222.840635 320.689385,222.468173 321.661923,222.095712 Z" id="Path"></path>
                </g>
                <g id="#ffcb09ff" transform="translate(20.175000, 83.803846)" fill="#FFCB09" fill-rule="nonzero">
                    <path d="M0.744923077,4.38159615 C-0.512134615,2.80380769 0.894942308,0.87425 2.45203846,0.222442308 C3.16075,0.434538462 3.86428846,0.646634615 4.573,0.853557692 C4.68163462,1.14325 4.89890385,1.72263462 5.00753846,2.01232692 C5.00753846,2.57619231 5.00236538,3.14005769 4.99201923,3.70392308 C4.92994231,4.035 4.81096154,4.69198077 4.74888462,5.01788462 L4.12811538,4.81613462 C3.87463462,4.89890385 3.37284615,5.06444231 3.11936538,5.14721154 C2.57619231,6.187 1.27775,4.90407692 0.744923077,4.38159615 Z" id="Path"></path>
                </g>
                <g id="#576028ff" transform="translate(24.830769, 85.355769)" fill="#576028" fill-rule="nonzero">
                    <path d="M0.351769231,0.460403846 L0.651807692,0.408673077 C1.50019231,0.610423077 1.4795,2.00198077 0.636288462,2.20373077 L0.33625,2.152 C0.346596154,1.58813462 0.351769231,1.02426923 0.351769231,0.460403846 Z" id="Path"></path>
                </g>
                <g id="#ddc94eff" transform="translate(23.278846, 88.459615)" fill="#DDC94E" fill-rule="nonzero">
                    <path d="M0.0155192308,0.491442308 C0.269,0.408673077 0.770788462,0.243134615 1.02426923,0.160365385 C0.863903846,0.310384615 0.543173077,0.615596154 0.377634615,0.770788462 L0.0155192308,0.491442308 Z" id="Path"></path>
                </g>
                <g id="#336178ff" transform="translate(184.678846, 106.048077)" fill="#447892" fill-rule="nonzero">
                    <path d="M3.44009615,8.60282692 C4.53161538,4.29882692 8.50971154,0.858730769 12.9482115,0.491442308 C17.3970577,-0.0879423077 22.058,2.57101923 23.8427115,6.68878846 C25.2446154,9.62709615 24.7997308,12.9740769 25.0739038,16.1296538 C25.8602115,16.3262308 26.6516923,16.5228077 27.4431731,16.7245577 C27.6294038,24.9445769 27.6604423,33.1749423 27.4586923,41.3897885 C18.4834038,41.5139423 9.49259615,41.5191154 0.517307692,41.3897885 C0.253480769,35.0010385 0.481096154,28.6019423 0.382807692,22.2131923 C0.346596154,20.3819231 0.419019231,18.5558269 0.543173077,16.7400769 C1.345,16.4296923 2.14165385,16.1244808 2.94348077,15.8192692 C3.04694231,13.4137885 2.93313462,10.9720962 3.44009615,8.60282692 M7.75961538,6.67844231 C5.68521154,9.34775 6.40944231,12.9326923 6.34219231,16.0624038 C11.3704231,16.7038654 16.4710769,16.2331154 21.5355192,16.3365769 C21.8355577,12.7050769 22.3425192,8.22001923 19.2904038,5.55071154 C16.0934423,2.40030769 10.3513269,3.11936538 7.75961538,6.67844231 M12.1567308,27.3086731 C12.8499231,29.2175385 12.6585192,31.2143462 12.0274038,33.1128654 C13.3568846,33.1180385 14.6915385,33.1128654 16.0261923,33.1076923 C15.7365,31.742 15.0019231,30.3194038 15.4985385,28.9175 C15.7520192,27.7690769 16.5900577,26.3464808 15.4416346,25.4153269 C14.1845769,23.8427115 11.2876538,25.4049808 12.1567308,27.3086731 Z" id="Shape"></path>
                </g>
            </g>
        </g>
    </g>
</svg>