<svg xmlns="http://www.w3.org/2000/svg" width="373" height="270" viewBox="0 0 373 270">
    <g fill="none" fill-rule="evenodd">
        <g>
            <g>
                <g fill="#FFF" fill-rule="nonzero">
                    <path d="M19.611 3.047C21.81.729 25.131.124 28.198.222c8.365.026 16.725.026 25.09-.005 1.335 0 2.67.15 3.978.424.259 4.03-.367 8.49-3.466 11.386-.92.844-1.976 1.521-3.026 2.189-5.272 2.364-11.117 1.541-16.704 2.022.29 6.69-.926 13.973-5.861 18.882-.042 8.768.02 17.537-.031 26.305-9.379.005-18.758 0-28.137 0 .021-15.778.021-31.556 0-47.334 2.939-.04 5.877.094 8.81-.036.833.031 1.34-.75 1.893-1.241 2.954-3.26 5.898-6.529 8.867-9.767zM293.769 181.554c6.787-12.208 13.636-24.386 20.449-36.584 3.693 3.777 7.408 7.543 11.112 11.309 2.87 3.016 6.166 5.768 8.085 9.539 1.583 2.933 2.049 6.285 2.318 9.56.998 12.348 2.048 24.696 3.041 37.044-16.114-.114-32.233-.02-48.347-.047-.083-.155-.238-.47-.32-.625-.766-1.5-1.465-3.032-2.236-4.522-1.241-2.467-3.098-4.531-4.748-6.72-2.054-2.684-4.123-5.359-6.177-8.044-4.087-5.292-8.153-10.6-12.245-15.891-1.205-1.547-2.245-3.3-2.514-5.272-.533-4.495 3.238-9.25 7.889-9.197 3.368-.223 6.192 1.98 8.35 4.324 2.777 2.778 5.586 5.525 8.354 8.319 2.323 2.276 4.614 4.583 6.989 6.807z" transform="translate(-1.000000, -175.000000) translate(1.000000, 175.000000) translate(31.555769, 30.521154)"/>
                </g>
                <g>
                    <path fill="#EA393F" fill-rule="nonzero" d="M.253.58C23.098.734 45.937.563 68.781.666c1.692.01 3.383-.119 5.06-.367-.15 32.166.005 64.332-.078 96.504-7.858.414-15.731.077-23.595.186-15.69.01-31.38-.031-47.07.026-.92-.104-2.048.134-2.726-.652-.201-1.47-.14-2.949-.129-4.418.052-8.768-.01-17.536.031-26.305 4.935-4.91 6.151-12.193 5.861-18.882 5.587-.48 11.433.342 16.704-2.022 9.151.253 18.308-.01 27.459.155-.036 1.676-.088 3.357-.16 5.033-12.938 0-25.876-.025-38.809.01-.305.27-.91.797-1.216 1.066 1.035.533 2.116 1.071 3.316 1.004 12.245-.047 24.49-.016 36.734-.026.052 1.687.078 3.378.078 5.065-11.402.03-22.808.046-34.21-.006-2.105.068-4.67-.507-6.125 1.444 3.332.988 6.829.59 10.248.63 11.562.011 23.124-.004 34.686.006 3.016.036 6.047.088 9.047-.336-.501-.621-.755-1.754-1.764-1.65-3.233-.228-6.487.025-9.725-.094-.005-1.686 0-3.372.005-5.054 3.756-.103 7.553.347 11.262-.45-.13-.383-.393-1.153-.522-1.541-3.58-.109-7.16-.078-10.745-.068l-.015-5.059c3.512-.176 7.066.295 10.547-.228.839-.29.326-1.163.238-1.769-3.569-.45-7.18-.082-10.765-.186-.005-1.645-.015-3.29-.02-4.93 3.072-.119 6.156.13 9.223-.119 1.081.12 1.242-1.133 1.728-1.8-3.86-.476-7.75-.254-11.624-.285-7.258-.015-14.516.026-21.773-.025-.238.719-.482 1.438-.72 2.162 7.015.108 14.035-.093 21.05.119.005 1.614.01 3.228.01 4.842-8.137-.005-16.28.18-24.412-.098 3.1-2.897 3.725-7.357 3.466-11.386-1.308-.275-2.643-.425-3.978-.425-8.365.031-16.724.031-25.09.006C.254 20.687.254 10.636.254.579M15.24 11.567c-1.474 1.324-3.818 2.462-3.632 4.785-.108 1.816 1.713 2.618 3.027 3.383.015.828.03 1.656.041 2.483-.936-.382-1.867-.776-2.804-1.158-.341.667-.683 1.334-1.019 2.007 1.205.502 2.41.983 3.632 1.443.113.564.222 1.128.336 1.702.657.005 1.309.02 1.966.036.165-.543.33-1.076.501-1.609 1.46-.822 3.094-2.027 2.773-3.942.166-1.883-1.909-2.524-2.938-3.698-.124-.637-.223-1.278-.295-1.914.75.253 1.505.517 2.255.78.337-.64.673-1.282 1.01-1.918-.922-.44-1.842-.87-2.763-1.299l-.585-1.143-1.505.062m17.8 5.111c-.077 1.96-.108 3.926-.02 5.887.3-.16.9-.486 1.2-.647.28-1.66.103-3.347.083-5.018-.316-.056-.947-.165-1.263-.222m13.3.243c-1.82.538-1.68 2.628-1.691 4.144 1.081 1.174 2.643 1.127 4.102.9.295-1.138.585-2.276.833-3.425-.792-.993-1.816-2.178-3.244-1.619m7.29.02c-1.589.715-2.21 3.074-.989 4.388.849 1.386 2.69.59 3.973.553-.988-.186-1.997-.253-2.97-.512-1.179-.652-.506-2.22-.677-3.3.326-.171.973-.518 1.299-.694l2.208-.29c-.93-.139-1.914-.429-2.845-.144m3.487-.192c.005 1.821 0 3.647-.02 5.474 1.086-.068 2.177-.15 3.263-.3-.89-.228-1.795-.41-2.69-.58-.025-.378-.072-1.133-.093-1.516.87-.056 1.744-.108 2.618-.16-1.123-.445-2.949-.403-2.7-2.1.91-.17 1.826-.321 2.731-.528-1.035-.134-2.07-.222-3.11-.29m-21.762 5.887c.165-1.427.17-2.87.227-4.304 1.139 1.004 1.982 2.271 2.67 3.616.212.062.636.187.848.254-.046-1.692-.067-3.378-.041-5.065l-.507-.041c-.005 1.112-.016 2.224-.036 3.342-1.076-1.257-2.028-2.607-2.954-3.978-.404 2.028-.91 4.149-.207 6.176m4.195-6.109c.781 2.074.957 4.64 2.788 6.125.844-2.018 1.775-4.04 1.946-6.254-1.356.895-1.645 2.545-2.256 3.936-.62-1.38-.688-3.435-2.478-3.807m10.688.59c-.264 1.728-1.045 4.62 1.076 5.431.108-2.007.108-4.019.01-6.021-.274.145-.817.44-1.086.59M10.222 65.765c1.06.202 2.131.378 3.212.414 13.978.052 27.961-.057 41.939.02 2.591-.056 5.25.275 7.795-.32.156-.496.29-.998.41-1.5-3.586-.497-7.202-.238-10.807-.29-13.466.026-26.942-.051-40.407.036-1.149-.18-1.713.76-2.142 1.64m29.559 5.825c.409.657.491 1.868 1.547 1.671 6.926.083 13.874.098 20.8-.005 1.103.165 1.253-.952 1.532-1.718-4.108-.605-8.267-.196-12.395-.305-3.828.114-7.687-.32-11.484.357z" transform="translate(-1.000000, -175.000000) translate(1.000000, 175.000000) translate(59.490385, 0.000000)"/>
                    <path fill="#EA393F" d="M10 9H62V29H10z" transform="translate(-1.000000, -175.000000) translate(1.000000, 175.000000) translate(59.490385, 0.000000)"/>
                    <text fill="#FEFEFE" font-family="Helvetica" font-size="9" transform="translate(-1.000000, -175.000000) translate(1.000000, 175.000000) translate(59.490385, 0.000000)">
                        <tspan x="32.997" y="23">INVOIC</tspan> <tspan x="57.997" y="34">E</tspan>
                    </text>
                    <path fill="#F5B84D" fill-rule="nonzero" d="M258.86 123.212c1.335.295 2.515 1.03 3.7 1.692 13.103 7.558 26.47 14.676 39.486 22.379-5.22 9.42-10.517 18.804-15.763 28.208-6.813 12.199-13.662 24.376-20.449 36.584-2.374-2.224-4.666-4.531-6.989-6.807 2.287-3.244 4.004-6.84 5.985-10.269 7.48-13.362 14.987-26.714 22.431-40.102-1.154-1.308-2.56-2.58-2.907-4.366-.212-1.48.186-2.948.43-4.397-5.396-3.031-10.75-6.145-16.172-9.135-1.252 1.024-2.437 2.24-3.994 2.783-1.619.43-3.295.03-4.914-.176-12.959 23.3-26.062 46.521-39.041 69.81 1.205 1.423 2.716 2.825 2.959 4.775.093 1.356-.254 2.685-.487 4.015 5.386 3.031 10.76 6.073 16.182 9.032 1.267-1.143 2.478-2.68 4.304-2.856 1.536-.124 3.057.238 4.568.481.269-.63.543-1.257.822-1.878 2.054 2.685 4.123 5.36 6.177 8.045-2.245 4.03-4.46 8.08-6.792 12.063-13.673-7.475-27.159-15.286-40.806-22.803-.755-.445-1.51-.905-2.152-1.49.606-2.084 1.92-3.859 2.944-5.747 16.528-29.533 33.066-59.06 49.584-88.594.264-.44.564-.859.895-1.247z" transform="translate(-1.000000, -175.000000) translate(1.000000, 175.000000) translate(59.490385, 0.000000)"/>
                </g>
                <g fill-rule="nonzero">
                    <path fill="#BD282D" d="M5.591 16.477v-1.623c.962-.157 1.747-.557 2.354-1.2.608-.643.911-1.476.911-2.498 0-.421-.048-.809-.144-1.164-.096-.355-.253-.664-.47-.929-.216-.264-.423-.49-.621-.676-.199-.187-.472-.367-.821-.541-.349-.175-.629-.307-.839-.397-.21-.09-.508-.208-.893-.352-.577-.216-.992-.382-1.245-.496-.252-.114-.505-.298-.757-.55-.253-.253-.379-.541-.379-.866 0-.481.156-.854.47-1.118.312-.265.745-.397 1.298-.397.529 0 .974.117 1.335.352.36.234.619.544.775.929l1.732-.578c-.18-.613-.502-1.133-.965-1.56-.463-.427-1.043-.713-1.74-.857V.477H3.714v1.461c-.926.156-1.653.532-2.182 1.128-.53.595-.794 1.295-.794 2.101 0 .445.075.848.225 1.209.15.36.32.652.505.874.187.223.463.442.83.659.367.216.668.376.902.478.235.102.574.237 1.02.406.456.168.802.306 1.037.415.234.108.502.258.802.45.3.193.517.412.65.659.132.246.198.532.198.857 0 .625-.192 1.106-.577 1.443-.385.337-.902.505-1.551.505-.614 0-1.155-.171-1.624-.514-.469-.343-.83-.809-1.082-1.398l-1.768.65c.253.78.676 1.433 1.272 1.956.595.523 1.307.863 2.137 1.02v1.641h1.876z" transform="translate(-1.000000, -175.000000) translate(1.000000, 175.000000) translate(70.836538, 10.380769)"/>
                    <path fill="#E5AA42" d="M253.272 129.4c1.557-.542 2.742-1.758 3.994-2.782 5.421 2.99 10.775 6.104 16.17 9.135-.242 1.449-.64 2.918-.428 4.398.346 1.784 1.753 3.057 2.907 4.366-7.444 13.388-14.95 26.74-22.43 40.101-1.982 3.43-3.7 7.025-5.986 10.269-2.767-2.794-5.576-5.54-8.354-8.318-2.158-2.344-4.982-4.548-8.35-4.325-4.65-.052-8.422 4.702-7.889 9.198.27 1.97 1.31 3.724 2.514 5.271 4.092 5.292 8.158 10.6 12.245 15.892-.28.62-.553 1.246-.822 1.878-1.511-.244-3.032-.606-4.568-.482-1.826.176-3.037 1.713-4.304 2.856-5.422-2.959-10.796-6-16.182-9.032.233-1.33.58-2.66.487-4.015-.244-1.95-1.754-3.352-2.96-4.774 12.98-23.29 26.083-46.511 39.042-69.81 1.619.206 3.295.604 4.914.175z" transform="translate(-1.000000, -175.000000) translate(1.000000, 175.000000) translate(70.836538, 10.380769)"/>
                </g>
                <g fill="#173358" fill-rule="nonzero">
                    <path d="M184.167 1.624c30.547-4.702 63.008 4.035 86.778 23.869 15.338 12.312 27.004 29.016 33.765 47.458 1.443 3.647 2.317 7.48 3.559 11.194 1.93-2.638 2.99-5.788 4.847-8.463.993-1.624 3.766-.362 3.44 1.407-.212 1.299-.91 2.447-1.5 3.606-1.759 3.259-3.42 6.58-5.235 9.813-.6.968-1.506 2.431-2.85 1.826-3.906-1.593-7.502-3.87-11.273-5.752-1.107-.6-2.286-1.112-3.217-1.966-.823-1.47.801-3.91 2.514-3.047 3.16 1.299 5.985 3.31 9.228 4.444-3.864-17.077-12.498-32.911-24.039-46.015-5.499-6.068-11.701-11.479-18.344-16.259-7.79-5.504-16.403-9.803-25.389-12.984-9.053-3.099-18.437-5.463-28.028-5.897-11.81-.999-23.708.429-35.15 3.383-5.003 1.257-9.912 2.912-14.6 5.07-1.21.45-2.456 1.184-3.78.977-1.268-.585-1.061-2.126-1.222-3.264 9.534-4.863 19.994-7.59 30.496-9.4zM0 20.806c10.496-.026 20.992-.01 31.489 0 .04 1.205.082 2.416.108 3.632.02 15.777.02 31.555 0 47.333-.02 1.226-.057 2.457-.093 3.694-10.501.14-21.003.036-31.504.052v-54.71M20.92 68.01c.533.523 1.831 1.806 2.374.766l.362.28.647-.611.62.202c.063-.326.182-.983.244-1.314l.3.052c.843-.202.864-1.594.016-1.796l-.3.052c-.11-.29-.326-.869-.435-1.159-.709-.207-1.412-.419-2.121-.63-1.557.651-2.964 2.58-1.707 4.158zM190.545 78.812c2.84-1.578 5.1-3.937 7.563-6.011 2.126 1.883 4.066 4.03 6.57 5.447 6.704 4.087 14.955 5.313 22.627 3.833.776 3.28.724 6.663.724 10.01.186 10.78-1.319 21.727-5.39 31.758-3.818 9.622-11.05 17.955-20.408 22.508-1.764.78-3.75 2.053-5.716 1.148-6.518-2.52-12.441-6.725-16.704-12.296-6.347-8.075-9.513-18.153-10.988-28.194-1.076-8.189-1.283-16.543-.243-24.742 3.12.258 6.25.657 9.379.382 4.418-.32 8.732-1.686 12.586-3.843m-2.426 15.664c-.507 2.37-.393 4.81-.497 7.216-.802.306-1.598.61-2.4.921-.124 1.816-.197 3.642-.16 5.473.098 6.389-.13 12.788.134 19.177 8.975.13 17.966.124 26.942 0 .201-8.215.17-16.445-.016-24.665-.791-.202-1.583-.399-2.37-.595-.273-3.156.171-6.503-1.23-9.441-1.785-4.118-6.446-6.777-10.895-6.197-4.438.367-8.417 3.807-9.508 8.11z" transform="translate(-1.000000, -175.000000) translate(1.000000, 175.000000) translate(0.000000, 20.175000)"/>
                    <path d="M192.438 92.552c2.592-3.56 8.334-4.279 11.531-1.128 3.052 2.67 2.545 7.154 2.245 10.786-5.064-.104-10.165.367-15.193-.275.067-3.13-.657-6.714 1.417-9.383zM89.179 105.251c.858-.951 1.857-2.157 3.274-2.074.921.352 1.64 1.055 2.37 1.697 2.922 2.747 5.928 5.41 8.845 8.168.616.657 1.397 1.34 1.47 2.307-.094 1.48-2.08 2.773-3.296 1.594-2.684-2.096-5.007-4.61-7.61-6.798-.351 19.844 5.603 39.595 15.887 56.495 8.174 13.15 19.363 24.366 32.234 32.937 7.697 5.054 16.155 8.836 24.815 11.904 8.629 3.005 17.728 4.298 26.791 5.183 17.439.998 35.09-2.328 51.012-9.493 1.138-.734 2.887-.605 3.347.864.678 1.521-.854 2.54-2.043 3.058-20.227 9.337-43.315 12.084-65.228 8.24-18.012-3.248-35.156-11.05-49.511-22.389-22.405-17.718-37.402-44.488-40.78-72.857-.791-4.325-.393-8.743-1.034-13.078-2.307 2.162-4.175 4.775-6.637 6.772-.9.951-2.618.253-2.887-.926-.48-1.02.285-1.94.88-2.69 2.576-3.084 5.54-5.815 8.1-8.914zM196.836 113.182c-.87-1.904 2.027-3.466 3.284-1.894 1.149.932.31 2.354.057 3.503-.496 1.401.238 2.824.528 4.19-1.335.005-2.67.01-3.999.005.631-1.899.823-3.895.13-5.804zM321.662 222.096c.083.155.238.47.32.626 16.115.026 32.234-.068 48.348.046.709.031 1.418.067 2.132.12v25.921c-17.92.006-35.84.052-53.76-.03-.03-8.52-.227-17.051.042-25.566.968-.372 1.945-.745 2.918-1.117z" transform="translate(-1.000000, -175.000000) translate(1.000000, 175.000000) translate(0.000000, 20.175000)"/>
                </g>
                <g fill="#FFCB09" fill-rule="nonzero">
                    <path d="M.745 4.382C-.512 2.804.895.874 2.452.222c.709.213 1.412.425 2.121.632l.435 1.158c0 .564-.006 1.128-.016 1.692-.062.331-.181.988-.243 1.314l-.62-.202-1.01.331c-.543 1.04-1.841-.243-2.374-.765z" transform="translate(-1.000000, -175.000000) translate(1.000000, 175.000000) translate(20.175000, 83.803846)"/>
                </g>
                <g fill="#576028" fill-rule="nonzero">
                    <path d="M.352.46l.3-.051C1.5.61 1.48 2.002.636 2.204l-.3-.052C.346 1.588.352 1.024.352.46z" transform="translate(-1.000000, -175.000000) translate(1.000000, 175.000000) translate(24.830769, 85.355769)"/>
                </g>
                <g fill="#DDC94E" fill-rule="nonzero">
                    <path d="M.016.491l1.008-.33C.864.31.544.615.378.77L.016.49z" transform="translate(-1.000000, -175.000000) translate(1.000000, 175.000000) translate(23.278846, 88.459615)"/>
                </g>
                <g fill="#447892" fill-rule="nonzero">
                    <path d="M3.44 8.603C4.532 4.299 8.51.859 12.948.49c4.45-.579 9.11 2.08 10.895 6.198 1.402 2.938.957 6.285 1.23 9.44.787.197 1.579.394 2.37.596.186 8.22.217 16.45.016 24.665-8.976.124-17.966.13-26.942 0C.253 35 .481 28.602.383 22.213c-.036-1.831.036-3.657.16-5.473.802-.31 1.599-.616 2.4-.92.104-2.406-.01-4.848.497-7.217m4.32-1.925c-2.075 2.67-1.35 6.255-1.418 9.384 5.028.642 10.13.171 15.194.275.3-3.632.807-8.117-2.246-10.786-3.197-3.15-8.939-2.432-11.53 1.127m4.397 20.63c.693 1.91.502 3.906-.13 5.805 1.33.005 2.665 0 4-.005-.29-1.366-1.025-2.789-.528-4.19.253-1.149 1.091-2.572-.057-3.503-1.257-1.572-4.154-.01-3.285 1.894z" transform="translate(-1.000000, -175.000000) translate(1.000000, 175.000000) translate(184.678846, 106.048077)"/>
                </g>
            </g>
        </g>
    </g>
</svg>
