<svg xmlns="http://www.w3.org/2000/svg" xmlns:xlink="http://www.w3.org/1999/xlink" width="366" height="279" viewBox="0 0 366 279">
    <defs>
        <path id="4qhy2y4zad" d="M30.06 35.119v4.466h.969c9.64 0 17.454 7.828 17.454 17.485v2.186H0V57.07c0-9.657 7.814-17.485 17.454-17.485h.97v-4.466c-4.18-1.989-7.183-6.053-7.684-10.863-1.412-.2-2.498-1.415-2.498-2.885v-3.4c0-1.444 1.048-2.643 2.424-2.874V13.6c0-7.511 6.078-13.6 13.575-13.6 7.498 0 13.576 6.089 13.576 13.6v1.497c1.375.231 2.424 1.43 2.424 2.874v3.4c0 1.47-1.086 2.685-2.498 2.885-.502 4.81-3.505 8.874-7.684 10.863z"/>
        <path id="vb0pf1rsui" d="M33.75 39.133v4.976h1.09c10.823 0 19.597 8.723 19.597 19.483v2.436H0v-2.436C0 52.832 8.774 44.11 19.597 44.11h1.089v-4.976c-4.692-2.216-8.064-6.745-8.627-12.105-1.585-.222-2.805-1.577-2.805-3.215v-3.788c0-1.61 1.177-2.945 2.722-3.203v-1.668C11.976 6.784 18.8 0 27.218 0c8.418 0 15.243 6.785 15.243 15.154v1.668c1.544.258 2.722 1.594 2.722 3.203v3.788c0 1.638-1.22 2.993-2.805 3.215-.563 5.36-3.935 9.889-8.627 12.105z"/>
        <path id="s98pf0re0n" d="M40.08 46.186v5.873h1.292c12.853 0 23.272 10.296 23.272 22.996v2.874H0v-2.874c0-12.7 10.42-22.996 23.272-22.996h1.293v-5.873c-5.572-2.615-9.577-7.96-10.245-14.286-1.882-.263-3.33-1.861-3.33-3.794v-4.472c0-1.899 1.397-3.475 3.232-3.78v-1.969C14.222 8.008 22.325 0 32.322 0c9.996 0 18.1 8.008 18.1 17.885v1.97c1.834.304 3.232 1.88 3.232 3.78v4.47c0 1.934-1.448 3.532-3.33 3.795-.669 6.326-4.673 11.671-10.245 14.286z"/>
        <path id="nmr2lqlbap" d="M43.298.094c11.952.966 21.346 10.837 21.346 22.873v2.852H0v-2.852C0 10.823 9.565.88 21.67.07c-.01.12-.014.239-.014.36 0 3.781 4.847 6.846 10.827 6.846 5.98 0 10.828-3.065 10.828-6.846 0-.113-.004-.225-.013-.336z"/>
        <path id="7fp1ed11vr" d="M43.014 26.082c1.243.64 2.092 1.931 2.092 3.42v4.169c0 1.93-1.427 3.528-3.289 3.805-.561 6.493-4.594 11.998-10.243 14.669v5.897h1.29c5.634 0 10.8 2 14.82 5.325V23.73c0-6.553-2.669-12.485-6.983-16.78C36.386 2.656 30.426 0 23.84 0 10.675 0 0 10.624 0 23.73v58.913c4.372-.623 7.732-4.365 7.732-8.888V59.139c2.235-.712 4.617-1.097 7.089-1.097h1.288v-5.897c-3.617-1.71-6.572-4.584-8.377-8.134V24.136c2.947-.954 6.05-2.325 9.132-4.095 4.962-2.852 9.05-6.271 11.832-9.652.569 1.667 1.324 3.336 2.27 4.966 2.824 4.87 6.802 8.45 10.918 10.272v.08c.13.022.256.05.38.083.25.104.5.201.75.292z"/>
        <filter id="d1s60mx3ga" width="118.2%" height="114.8%" x="-9.1%" y="-7.4%" filterUnits="objectBoundingBox">
            <feOffset dy="2" in="SourceAlpha" result="shadowOffsetOuter1"/>
            <feGaussianBlur in="shadowOffsetOuter1" result="shadowBlurOuter1" stdDeviation="2.5"/>
            <feColorMatrix in="shadowBlurOuter1" result="shadowMatrixOuter1" values="0 0 0 0 0 0 0 0 0 0 0 0 0 0 0 0 0 0 0.136472902 0"/>
            <feMerge>
                <feMergeNode in="shadowMatrixOuter1"/>
                <feMergeNode in="SourceGraphic"/>
            </feMerge>
        </filter>
        <filter id="5sxo32udwf" width="118.2%" height="114.8%" x="-9.1%" y="-7.4%" filterUnits="objectBoundingBox">
            <feOffset dy="2" in="SourceAlpha" result="shadowOffsetOuter1"/>
            <feGaussianBlur in="shadowOffsetOuter1" result="shadowBlurOuter1" stdDeviation="2.5"/>
            <feColorMatrix in="shadowBlurOuter1" result="shadowMatrixOuter1" values="0 0 0 0 0 0 0 0 0 0 0 0 0 0 0 0 0 0 0.136472902 0"/>
            <feMerge>
                <feMergeNode in="shadowMatrixOuter1"/>
                <feMergeNode in="SourceGraphic"/>
            </feMerge>
        </filter>
        <filter id="t74fqzovmk" width="118.2%" height="112.5%" x="-9.1%" y="-6.2%" filterUnits="objectBoundingBox">
            <feOffset dy="2" in="SourceAlpha" result="shadowOffsetOuter1"/>
            <feGaussianBlur in="shadowOffsetOuter1" result="shadowBlurOuter1" stdDeviation="2.5"/>
            <feColorMatrix in="shadowBlurOuter1" result="shadowMatrixOuter1" values="0 0 0 0 0 0 0 0 0 0 0 0 0 0 0 0 0 0 0.136472902 0"/>
            <feMerge>
                <feMergeNode in="shadowMatrixOuter1"/>
                <feMergeNode in="SourceGraphic"/>
            </feMerge>
        </filter>
        <filter id="oon84q0v5t" width="130.1%" height="130.8%" x="-15%" y="-15.4%" filterUnits="objectBoundingBox">
            <feOffset dy="6" in="SourceAlpha" result="shadowOffsetOuter1"/>
            <feGaussianBlur in="shadowOffsetOuter1" result="shadowBlurOuter1" stdDeviation="2"/>
            <feColorMatrix in="shadowBlurOuter1" result="shadowMatrixOuter1" values="0 0 0 0 0 0 0 0 0 0 0 0 0 0 0 0 0 0 0.151906687 0"/>
            <feMerge>
                <feMergeNode in="shadowMatrixOuter1"/>
                <feMergeNode in="SourceGraphic"/>
            </feMerge>
        </filter>
        <ellipse id="u2ynjorqgb" cx="34.023" cy="33.86" rx="34.023" ry="33.86"/>
        <ellipse id="4feohdi5jg" cx="34.023" cy="33.86" rx="34.023" ry="33.86"/>
        <ellipse id="d6g4wl86ql" cx="43.379" cy="43.2" rx="43.379" ry="43.2"/>
    </defs>
    <g fill="none" fill-rule="evenodd">
        <g>
            <g>
                <g filter="url(#d1s60mx3ga)" transform="translate(-5.000000, -165.000000) translate(15.000000, 175.000000) translate(198.000000, 17.000000)">
                    <path fill="#F2F2F2" d="M0 0H148V182H0z"/>
                    <g transform="translate(39.977011, 23.702326)">
                        <mask id="qylbl22tec" fill="#fff">
                            <use xlink:href="#u2ynjorqgb"/>
                        </mask>
                        <use fill="#E3E3E3" xlink:href="#u2ynjorqgb"/>
                        <g mask="url(#qylbl22tec)">
                            <g>
                                <g>
                                    <g fill="#D0C6AC" fill-rule="nonzero">
                                        <path d="M30.06 35.119v4.466h.969c9.64 0 17.454 7.828 17.454 17.485v2.186H0V57.07c0-9.657 7.814-17.485 17.454-17.485h.97v-4.466c-4.18-1.989-7.183-6.053-7.684-10.863-1.412-.2-2.498-1.415-2.498-2.885v-3.4c0-1.444 1.048-2.643 2.424-2.874V13.6c0-7.511 6.078-13.6 13.575-13.6 7.498 0 13.576 6.089 13.576 13.6v1.497c1.375.231 2.424 1.43 2.424 2.874v3.4c0 1.47-1.086 2.685-2.498 2.885-.502 4.81-3.505 8.874-7.684 10.863z" transform="translate(10.206897, 10.158140) translate(0.000000, 6.772093)"/>
                                    </g>
                                    <g transform="translate(10.206897, 10.158140) translate(0.000000, 6.772093)">
                                        <mask id="fga5bnf41e" fill="#fff">
                                            <use xlink:href="#4qhy2y4zad"/>
                                        </mask>
                                        <g mask="url(#fga5bnf41e)">
                                            <g>
                                                <path fill="#EBEBEB" fill-rule="nonzero" d="M0 0H63.997V59.256H0z" transform="translate(-7.757241, 0.000000)"/>
                                            </g>
                                        </g>
                                    </g>
                                    <g fill="#000" fill-opacity=".1" fill-rule="nonzero" opacity=".48">
                                        <path d="M27.61.562v5.586c0 7.51-6.078 13.6-13.576 13.6-7.497 0-13.575-6.09-13.575-13.6V.562v3.643c0 7.51 6.078 13.6 13.575 13.6 7.498 0 13.576-6.09 13.576-13.6V.562z" transform="translate(10.206897, 10.158140) translate(0.000000, 6.772093) translate(10.206897, 18.623256)"/>
                                    </g>
                                </g>
                                <g>
                                    <g fill="#BBB">
                                        <path d="M17.743.012h-.29C7.815.012 0 7.677 0 17.132v2.129h48.483v-2.128c0-9.456-7.815-17.12-17.454-17.12h-.29c.032.233.048.471.048.713 0 3.283-2.93 5.944-6.546 5.944-3.614 0-6.545-2.661-6.545-5.944 0-.242.016-.48.047-.714z" transform="translate(10.206897, 10.158140) translate(0.000000, 44.865116) translate(0.000000, 1.902273)"/>
                                    </g>
                                    <path fill="#F2F2F2" d="M30.06.304c1.498 1.084 2.423 2.575 2.423 4.22 0 1.714-1.003 3.26-2.61 4.352l-1.37-1.058-1.11.078.242-.749-.019-.015c1.48-.747 2.443-1.972 2.443-3.357V.305zM18.422.136c-1.64 1.094-2.666 2.656-2.666 4.389 0 1.759 1.057 3.34 2.741 4.437l1.482-1.144 1.11.078-.242-.749.018-.015c-1.478-.747-2.443-1.972-2.443-3.357V.135z" transform="translate(10.206897, 10.158140) translate(0.000000, 44.865116)"/>
                                </g>
                                <g>
                                    <g fill="#D4D4D4">
                                        <path d="M5.135 10.405c.03-.013-.044-.018-.221-.015.215 0 .29.005.221.015m24.047 4.534c-.064-.803-.177-1.6-.367-2.384-.151-.623-.357-1.217-.601-1.812-.147-.359-.491-.852-.532-1.24-.04-.38.258-.803.322-1.248.061-.432.05-.887-.038-1.315-.201-.973-.868-1.878-1.899-2.131-.23-.057-.716.013-.878-.121-.187-.154-.316-.678-.485-.888-.48-.599-1.231-.984-2.022-.85-.583.1-.248.22-.685-.124-.243-.19-.424-.482-.66-.688-.355-.31-.761-.576-1.182-.794-1.101-.57-2.357-.985-3.587-1.187C14.324-.212 11.93.11 9.755.694c-1.082.29-2.172.66-3.177 1.147-.431.21-.68.383-1.13.437-.707.087-1.306.082-1.977.383C1.41 3.585.48 5.73 1.282 7.78c.162.414.38.776.682 1.11.367.406.5.326.184.793-.474.7-.873 1.445-1.198 2.219-.852 2.032-.995 4.32-.94 6.487.02.76.052 1.527.172 2.278.052.326.066.937.31 1.179.123.122.3.19.475.141.414-.114.271-.42.281-.702.048-1.423-.017-2.682.321-4.088.25-1.039.666-1.982 1.206-2.911.686-1.181 1.426-2.219 2.37-3.23.221-.238.27-.339.567-.356.225-.013.555.141.774.195.482.117.966.234 1.458.313.903.146 1.798.156 2.71.127 1.794-.056 3.597-.182 5.337-.634 1.155-.3 2.18-.84 3.286-1.235.02-.007.297-.205.346-.197.068.011.478.442.547.496.538.422 1.128.6 1.708.926.717.403.023-.173.418.329.115.146.174.417.266.583.294.528.703.992 1.192 1.36.472.356 1.182.528 1.423.99.186.358.249.843.399 1.225.393 1 .912 1.932 1.431 2.875.419.759.876 1.422.923 2.29.016.301-.27 2.113.428 1.562.104-.082.327-1.005.373-1.162.187-.637.253-1.302.337-1.956.168-1.301.223-2.539.114-3.85" transform="translate(10.206897, 10.158140) translate(9.356322, 0.000000) translate(0.386625, 0.483721)"/>
                                    </g>
                                </g>
                            </g>
                        </g>
                    </g>
                </g>
                <g filter="url(#5sxo32udwf)" transform="translate(-5.000000, -165.000000) translate(15.000000, 175.000000) translate(0.000000, 17.000000)">
                    <path fill="#F2F2F2" d="M0 0H148V182H0z"/>
                    <rect width="93.563" height="25.395" x="27.218" y="137.135" fill="#E0E0E0" rx="4"/>
                    <rect width="93.563" height="3.386" x="27.218" y="120.205" fill="#E0E0E0" rx="1.693"/>
                    <rect width="76.552" height="3.386" x="35.724" y="108.353" fill="#E0E0E0" rx="1.693"/>
                    <g transform="translate(39.977011, 23.702326)">
                        <mask id="uqot2am2eh" fill="#fff">
                            <use xlink:href="#4feohdi5jg"/>
                        </mask>
                        <use fill="#E3E3E3" xlink:href="#4feohdi5jg"/>
                        <g mask="url(#uqot2am2eh)">
                            <g>
                                <g>
                                    <g fill="#D0C6AC" fill-rule="nonzero">
                                        <path d="M33.75 39.133v4.976h1.09c10.823 0 19.597 8.723 19.597 19.483v2.436H0v-2.436C0 52.832 8.774 44.11 19.597 44.11h1.089v-4.976c-4.692-2.216-8.064-6.745-8.627-12.105-1.585-.222-2.805-1.577-2.805-3.215v-3.788c0-1.61 1.177-2.945 2.722-3.203v-1.668C11.976 6.784 18.8 0 27.218 0c8.418 0 15.243 6.785 15.243 15.154v1.668c1.544.258 2.722 1.594 2.722 3.203v3.788c0 1.638-1.22 2.993-2.805 3.215-.563 5.36-3.935 9.889-8.627 12.105z" transform="translate(6.804598, 8.465116) translate(0.000000, 1.693023)"/>
                                    </g>
                                    <g transform="translate(6.804598, 8.465116) translate(0.000000, 1.693023)">
                                        <mask id="ed6u9ndn6j" fill="#fff">
                                            <use xlink:href="#vb0pf1rsui"/>
                                        </mask>
                                        <g mask="url(#ed6u9ndn6j)">
                                            <g>
                                                <path fill="#EBEBEB" fill-rule="nonzero" d="M0 0H71.857V66.028H0z" transform="translate(-8.709885, 0.000000)"/>
                                            </g>
                                        </g>
                                    </g>
                                    <g fill="#000" fill-opacity=".1" fill-rule="nonzero">
                                        <path d="M30.553.215V6.44c0 8.37-6.825 15.154-15.243 15.154S.068 14.808.068 6.439V.215v4.06c0 8.368 6.824 15.153 15.242 15.153 8.418 0 15.243-6.785 15.243-15.154V.215z" transform="translate(6.804598, 8.465116) translate(0.000000, 1.693023) translate(11.908046, 21.162791)"/>
                                    </g>
                                </g>
                                <g fill="#BBB">
                                    <path d="M37.92.254C47.28 1.73 54.438 9.82 54.438 19.578v2.431H0v-2.431C0 9.819 7.157 1.73 16.517.254c.245 1.378.934 2.687 2.056 3.697l7.916 7.126c.415.373 1.044.373 1.459 0l7.916-7.126c.116-.105.228-.213.336-.325.93-.967 1.502-2.145 1.72-3.372z" transform="translate(6.804598, 8.465116) translate(0.000000, 45.711628)"/>
                                </g>
                                <g fill="#D4D4D4" fill-rule="nonzero">
                                    <g>
                                        <path d="M.274 17.414c.095.405.458.333.548 0-.127-.423.902-7.823 3.56-9.795.99-.685 6.3-1.298 11.587-1.294 5.23.004 10.437.616 11.417 1.294 2.657 1.972 3.687 9.372 3.56 9.795.09.333.453.405.548 0 .197-2.802 0-17.34-15.61-17.142C.274.47.077 14.612.274 17.414z" transform="translate(6.804598, 8.465116) translate(10.206897, 0.000000) translate(0.702369, 0.786047)"/>
                                    </g>
                                </g>
                            </g>
                        </g>
                    </g>
                </g>
                <g filter="url(#t74fqzovmk)" transform="translate(-5.000000, -165.000000) translate(15.000000, 175.000000) translate(99.000000, 0.000000)">
                    <path fill="#142F53" d="M0 0H148V216H0z"/>
                    <rect width="93.563" height="25.412" x="27.218" y="166.024" fill="#F5B84D" rx="4"/>
                    <g transform="translate(30.620690, 31.341176)">
                        <mask id="zcdpk2fatm" fill="#fff">
                            <use xlink:href="#d6g4wl86ql"/>
                        </mask>
                        <use fill="#F5F6F8" xlink:href="#d6g4wl86ql"/>
                        <g mask="url(#zcdpk2fatm)">
                            <g>
                                <g>
                                    <g fill="#D0C6AC" fill-rule="nonzero">
                                        <path d="M40.08 46.186v5.873h1.292c12.853 0 23.272 10.296 23.272 22.996v2.874H0v-2.874c0-12.7 10.42-22.996 23.272-22.996h1.293v-5.873c-5.572-2.615-9.577-7.96-10.245-14.286-1.882-.263-3.33-1.861-3.33-3.794v-4.472c0-1.899 1.397-3.475 3.232-3.78v-1.969C14.222 8.008 22.325 0 32.322 0c9.996 0 18.1 8.008 18.1 17.885v1.97c1.834.304 3.232 1.88 3.232 3.78v4.47c0 1.934-1.448 3.532-3.33 3.795-.669 6.326-4.673 11.671-10.245 14.286z" transform="translate(11.441602, 9.317647) translate(0.466444, 6.776471)"/>
                                    </g>
                                    <g transform="translate(11.441602, 9.317647) translate(0.466444, 6.776471)">
                                        <mask id="awi8fppepo" fill="#fff">
                                            <use xlink:href="#s98pf0re0n"/>
                                        </mask>
                                        <g mask="url(#awi8fppepo)">
                                            <g>
                                                <path fill="#B2B2B2" fill-rule="nonzero" d="M0 0H85.33V77.929H0z" transform="translate(-10.342989, 0.000000)"/>
                                            </g>
                                        </g>
                                    </g>
                                    <g fill="#000" fill-opacity=".1" fill-rule="nonzero">
                                        <path d="M36.813.667v7.345c0 9.878-8.104 17.886-18.1 17.886-9.997 0-18.1-8.008-18.1-17.886V.667v4.79c0 9.878 8.103 17.886 18.1 17.886 9.996 0 18.1-8.008 18.1-17.886V.667z" transform="translate(11.441602, 9.317647) translate(0.466444, 6.776471) translate(13.609195, 24.564706)"/>
                                    </g>
                                </g>
                                <g>
                                    <g>
                                        <g fill="#E6E6E6" fill-rule="nonzero">
                                            <path d="M43.298.094c11.952.966 21.346 10.837 21.346 22.873v2.852H0v-2.852C0 10.823 9.565.88 21.67.07c-.01.12-.014.239-.014.36 0 3.781 4.847 6.846 10.827 6.846 5.98 0 10.828-3.065 10.828-6.846 0-.113-.004-.225-.013-.336z" transform="translate(11.441602, 9.317647) translate(0.466444, 49.976471) translate(0.000000, 0.318754) translate(0.000000, 8.470588)"/>
                                        </g>
                                        <g transform="translate(11.441602, 9.317647) translate(0.466444, 49.976471) translate(0.000000, 0.318754) translate(0.000000, 8.470588)">
                                            <mask id="47eki8m6uq" fill="#fff">
                                                <use xlink:href="#nmr2lqlbap"/>
                                            </mask>
                                            <g mask="url(#47eki8m6uq)">
                                                <g>
                                                    <path fill="#CD6E66" fill-rule="nonzero" d="M0 0H85.33V35.063H0z" transform="translate(-10.342989, -9.243861)"/>
                                                </g>
                                            </g>
                                        </g>
                                        <g fill="#000" fill-opacity=".16" fill-rule="nonzero" opacity=".6">
                                            <g transform="translate(11.441602, 9.317647) translate(0.466444, 49.976471) translate(0.000000, 0.318754) translate(18.712644, 0.000000) translate(0.680460, 0.501742)">
                                                <ellipse cx="13.09" cy="8.877" rx="12.811" ry="8.579"/>
                                            </g>
                                        </g>
                                    </g>
                                    <g fill-rule="nonzero">
                                        <path fill="#F67469" d="M22.233.358C9.863.894 0 10.954 0 23.286v2.852h22.419c-1.1-3.85-1.733-8.38-1.733-13.228 0-4.567.562-8.852 1.547-12.552zm20.315 25.78h22.096v-2.852c0-12.223-9.689-22.214-21.905-22.912.981 3.697 1.542 7.976 1.542 12.536 0 4.847-.634 9.377-1.733 13.228z" transform="translate(11.441602, 9.317647) translate(0.466444, 49.976471) translate(0.000000, 8.470588)"/>
                                        <path fill="#E6E6E6" d="M48.16 18.488l3.088-2.285c.467-.345 1.11-.34 1.57.014l2.13 1.633-6.788.638z" transform="translate(11.441602, 9.317647) translate(0.466444, 49.976471) translate(0.000000, 8.470588)"/>
                                        <path fill="#F67469" d="M22.302 0c-1.293 6.163-.754 14.875 1.616 26.138h-5.171l-4.525-11.475 1.939-2.87-1.94-1.912L20.364.32C21.018.118 21.665.01 22.303 0z" transform="translate(11.441602, 9.317647) translate(0.466444, 49.976471) translate(0.000000, 8.470588)"/>
                                        <path fill="#F67469" d="M48.806 0c-1.293 6.163-.754 14.875 1.616 26.138h-5.171l-4.525-11.475 1.939-2.87-1.94-1.912L46.868.32C47.522.118 48.168.01 48.806 0z" transform="translate(11.441602, 9.317647) translate(0.466444, 49.976471) translate(0.000000, 8.470588) translate(45.573793, 13.068908) scale(-1, 1) translate(-45.573793, -13.068908)"/>
                                    </g>
                                </g>
                                <g>
                                    <g>
                                        <g>
                                            <g fill="#944F23" fill-rule="nonzero">
                                                <path d="M43.014 26.082c1.243.64 2.092 1.931 2.092 3.42v4.169c0 1.93-1.427 3.528-3.289 3.805-.561 6.493-4.594 11.998-10.243 14.669v5.897h1.29c5.634 0 10.8 2 14.82 5.325V23.73c0-6.553-2.669-12.485-6.983-16.78C36.386 2.656 30.426 0 23.84 0 10.675 0 0 10.624 0 23.73v58.913c4.372-.623 7.732-4.365 7.732-8.888V59.139c2.235-.712 4.617-1.097 7.089-1.097h1.288v-5.897c-3.617-1.71-6.572-4.584-8.377-8.134V24.136c2.947-.954 6.05-2.325 9.132-4.095 4.962-2.852 9.05-6.271 11.832-9.652.569 1.667 1.324 3.336 2.27 4.966 2.824 4.87 6.802 8.45 10.918 10.272v.08c.13.022.256.05.38.083.25.104.5.201.75.292z" transform="translate(11.441602, 9.317647) translate(8.121617, 0.000000) translate(0.824800, 0.689748)"/>
                                            </g>
                                            <g transform="translate(11.441602, 9.317647) translate(8.121617, 0.000000) translate(0.824800, 0.689748)">
                                                <mask id="9xwq947l4s" fill="#fff">
                                                    <use xlink:href="#7fp1ed11vr"/>
                                                </mask>
                                                <g fill="#0D2647" fill-rule="nonzero" mask="url(#9xwq947l4s)">
                                                    <g>
                                                        <path d="M0 0H85.057V89.788H0z"/>
                                                    </g>
                                                </g>
                                            </g>
                                        </g>
                                        <path fill="#000" fill-opacity=".24" d="M43.014 26.082c1.569.568 3.144.878 4.67.902V23.73c0-6.553-2.669-12.485-6.983-16.78 4.314 4.295 6.983 10.227 6.983 16.78v39.637c-4.02-3.325-9.186-5.325-14.82-5.325h-1.29v-5.897c5.649-2.67 9.682-8.176 10.243-14.669 1.862-.277 3.29-1.875 3.29-3.805V29.5c0-1.488-.85-2.78-2.093-3.42zm-.75-.292c-.124-.034-.25-.061-.38-.083v-.08c.127.056.254.11.38.163zM7.733 44.01c1.805 3.551 4.76 6.425 8.377 8.135v5.897h-1.288c-2.472 0-4.854.385-7.089 1.097V44.011z" transform="translate(11.441602, 9.317647) translate(8.121617, 0.000000) translate(0.824800, 0.689748)"/>
                                    </g>
                                </g>
                            </g>
                        </g>
                    </g>
                    <path fill="#FFF" d="M44.83 128.753l1.5 3.026 3.354.486-2.426 2.356.572 3.326-3-1.57-3 1.57.574-3.326-2.427-2.356 3.354-.486 1.5-3.026zm14.46 0l1.5 3.026 3.354.486-2.427 2.356.573 3.326-3-1.57-3 1.57.574-3.326-2.427-2.356 3.354-.486 1.5-3.026zm14.46 0l1.5 3.026 3.354.486-2.427 2.356.573 3.326-3-1.57-3 1.57.573-3.326-2.426-2.356 3.353-.486 1.5-3.026zm14.46 0l1.5 3.026 3.354.486-2.427 2.356.573 3.326-3-1.57-3 1.57.573-3.326-2.427-2.356 3.354-.486 1.5-3.026zm14.46 0l1.5 3.026 3.353.486-2.426 2.356.572 3.326-3-1.57-2.999 1.57.573-3.326-2.427-2.356 3.354-.486 1.5-3.026z"/>
                </g>
                <g filter="url(#oon84q0v5t)" transform="translate(-5.000000, -165.000000) translate(15.000000, 175.000000) translate(206.000000, 124.000000)">
                    <path fill="#EA393F" d="M48.287 0c26.668 0 48.286 21.543 48.286 48.117 0 26.574-21.618 48.117-48.286 48.117C21.619 96.234 0 74.69 0 48.117 0 21.543 21.619 0 48.287 0zm0 13.506c-19.183 0-34.733 15.496-34.733 34.61 0 19.116 15.55 34.611 34.733 34.611 19.182 0 34.732-15.495 34.732-34.61 0-19.115-15.55-34.61-34.732-34.61z"/>
                    <ellipse cx="48.287" cy="48.117" fill="#F5F6F8" opacity=".5" rx="34.732" ry="34.61"/>
                    <path fill="#D32E34" d="M86.379 77.553L99.354 89.817 93.143 96.234 79.994 84.252z"/>
                    <path fill="#EA393F" d="M90.566 98.361L101.411 86.893 133 117.903 122.254 129.36z"/>
                </g>
            </g>
        </g>
    </g>
</svg>
