<svg xmlns="http://www.w3.org/2000/svg" width="20" height="17" viewBox="0 0 20 17">
    <g fill="none" fill-rule="evenodd" opacity=".5">
        <g fill="#787F9E" fill-rule="nonzero">
            <g>
                <g>
                    <path d="M17.725 16.543c.43 0 .795-.15 1.095-.451.301-.301.451-.666.451-1.096V1.546c0-.429-.15-.794-.45-1.095C18.52.151 18.153 0 17.724 0H1.547C1.117 0 .752.15.45.451.151.752 0 1.117 0 1.547v13.45c0 .429.15.794.451 1.095.301.3.666.451 1.096.451h16.178zM9.689 6.66h-.021c-.215 0-.394-.079-.537-.236l-.043-.022L3.2 1.547h12.87l-5.759 4.812-.042.022-.022.043c-.158.157-.344.236-.559.236zm8.036 8.336H1.547V2.17l6.51 5.371c.444.444.988.666 1.632.666.645 0 1.19-.23 1.633-.687l6.403-5.35v12.826z" transform="translate(-52.000000, -410.000000) translate(30.000000, 394.000000) translate(22.000000, 16.000000)"/>
                </g>
            </g>
        </g>
    </g>
</svg>
