<svg xmlns="http://www.w3.org/2000/svg" width="375" height="263" viewBox="0 0 375 263">
    <g fill="none" fill-rule="evenodd">
        <g>
            <g>
                <g>
                    <path fill="#B2B2B2" fill-rule="nonzero" d="M62.095 10.577C67.776 7.25 73.437 3.881 79.077.482c1.892 3.214 3.487 6.598 5.338 9.838.769 1.29 1.318 2.69 1.769 4.125-6.179 2.787-12.28 5.754-18.393 8.686-1.271.19-.174 1.507.364 1.846 16.29 12.04 32.565 24.11 48.856 36.154 8.85 6.496 17.649 13.063 26.478 19.584 2.405 1.842 4.99 3.472 7.184 5.57 2.497 2.505 3.974 5.848 4.769 9.252-20.803-6.521-41.826-12.415-63.177-16.848-2.846-.715-5.758-1.049-8.655-1.435-18.736-3.672-37.677-6.269-56.7-7.889-2.385-.18-4.795-.175-7.118-.807 13.732.442 27.346 2.422 40.954 4.201 8.158 1.358 16.336 2.613 24.438 4.305-4.994-6.768-9.486-13.89-14.229-20.839-4.415-6.567-8.85-13.12-13.224-19.712-.59-1.394-2.225-.839-3.394-1.034-2.415.02-4.405-1.528-6.076-3.101-2.144 1.24-4.764 1.82-6.636 3.435.729 2.551 2.067 4.88 2.908 7.4-2.543.736-5.143 1.225-7.738 1.739-1.928 4.29-3.676 8.655-5.604 12.945-.908 2.237-3.533 3.96-5.933 3.065-2.522-.797-4.932-1.908-7.414-2.819.554 3.487 1.415 6.918 1.928 10.415-6.456-.165-12.896-.746-19.357-.55 7.64-9.386 15.809-18.34 24.438-26.826 2.374-2.401 5.01-4.603 6.917-7.42 2.2-3.195 3.302-6.949 4.302-10.647.318.782.646 1.564.98 2.346 1.533-.828 3.03-1.723 4.466-2.706-1.22-2.093-2.482-4.561-1.554-7.025.703-2.988 3.677-4.35 6.102-5.703 2.764-1.46 5.517-3.667 8.845-3.276 2.846.118 5.327 1.754 7.184 3.826z" transform="translate(0.000000, -169.000000) translate(0.000000, 169.725034) translate(54.000000, 33.274966)"/>
                    <path fill="#F5B84D" d="M41.625 35.813L48.261 32.378 41.625 22.429 37.064 25.882zM62.095 10.577L79.077.482 86.184 14.445 67.791 23.131z" transform="translate(0.000000, -169.000000) translate(0.000000, 169.725034) translate(54.000000, 33.274966)"/>
                </g>
                <g fill="#142F53" fill-rule="nonzero">
                    <path d="M276.043 1.949c.61-.573 1.179-1.357 2.082-1.458.722.483 1.35 1.092 1.939 1.739 10.14 11.506 20.396 22.906 30.542 34.407v87.103c-11.34-.058-22.681.032-34.016-.042-1.965-.016-3.93.063-5.885.153 2.778 1.776 5.598 4.012 6.48 7.351.839 3.562.685 7.69-1.615 10.711-1.896 2.465-4.664 4.696-7.952 4.527-11.876-.011-23.753.015-35.63-.016-6.39-.207-11.404 6.725-10.028 12.762.754 3.429 3.054 6.72 6.336 8.135 5.094 1.643 10.836-.731 15.75 1.76 5.152 2.835 6.628 9.746 4.652 14.977-1.657 4.113-5.89 6.927-10.33 6.89-75.612.021-151.229-.005-226.845.01-3.814-.047-7.639.165-11.442-.185 3.533-3.17 6.943-6.476 10.411-9.715 13.55-13.78 26.102-28.513 37.798-43.888 2.05-2.761 2.087-10.34 3.83-13.319 22.202-2.178 44.636-4.356 66.855-6.412 5.455-.228 9.287-2.117 13.605-5.593 5.934-4.707 13.258-6.873 12.382-14.446-.823-3.509-2.353-6.954-4.94-9.535-2.273-2.162-4.95-3.842-7.442-5.74-9.146-6.72-18.261-13.488-27.429-20.181 6.799-7.187 13.184-14.76 19.823-22.096 5.87-6.805 12.174-13.244 17.741-20.298.287 1.208 1.87 1.08 2.592.35 20.052 20.208 40.294 40.23 60.346 60.44 3.936-3.785 7.271-8.13 11.027-12.084 19.807-22.085 39.566-44.212 59.363-66.307z" transform="translate(0.000000, -169.000000) translate(0.000000, 169.725034) translate(64.000000, 31.274966)"/>
                </g>
                <g fill="#FFF" fill-rule="nonzero">
                    <path d="M207.243.257c.724.026 1.437.116 2.14.264.37 3.144.165 6.314.217 9.474-.155 8.989-.047 17.983-.078 26.971.113 1.24-1.334 1.124-2.13 1.119-.195-12.608.097-25.22-.15-37.828zM44.5 98.39c3.04-4.622 6.367-9.044 9.828-13.358 6.47-.195 12.918.385 19.383.55h.02c2.326.631 4.74.626 7.127.806 19.049 1.617 38.015 4.21 56.777 7.878 2.9.385 5.817.719 8.667 1.433 21.38 4.427 42.431 10.312 63.262 16.824.847 7.34-2.588 14.858-8.323 19.418-4.175 3.37-9.55 4.715-14.824 4.936-21.477 1.992-42.96 3.99-64.422 6.1-1.684 2.887-3.897 5.409-5.879 8.084-11.306 14.9-23.439 29.176-36.537 42.53-3.353 3.137-6.649 6.342-10.063 9.413-14.438 13.147-30.725 24.256-48.157 33.048-6.92 3.585-14.202 6.4-21.359 9.465V132.445c6.644.236 12.898-2.491 18.654-5.521 7.157-4.145 13.478-9.774 18.31-16.496 2.895-3.77 4.892-8.11 7.536-12.038z" transform="translate(0.000000, -169.000000) translate(0.000000, 169.725034) translate(0.000000, 15.274966)"/>
                </g>
                <g fill-rule="nonzero">
                    <path fill="#F5B84D" d="M206.452 2.225c.75-1.76 3.508-1.723 4.248.026.586 1.04-.205 2.1-.544 3.072-.077.849-.134 1.703-.185 2.562 5.706.134 11.412.026 17.124.062.015.34.041 1.023.056 1.363.14 3.195.129 6.395-.046 9.59-.914.016-1.823.036-2.732.057l-.005.998c3.677-.088 7.411.437 11.032-.427-.744 1.05-2.126.818-3.24.859-2.61-.041-5.214-.051-7.818-.015-.272-.494-.534-.993-.796-1.487-4.397-.098-8.793.067-13.185-.17-.087.118-.257.355-.344.478.03 3.236.02 6.473-.226 9.709-.293 4.62.467 9.23.18 13.85-.699.71-2.23.833-2.507-.34.796.006 2.245.119 2.132-1.09.03-8.767-.077-17.54.077-26.306-.052-3.082.154-6.174-.216-9.24-.704-.145-1.418-.232-2.142-.258-.647-.957-1.582-2.099-.863-3.293z" transform="translate(0.000000, -169.000000) translate(0.000000, 169.725034) translate(0.000000, 10.274966)"/>
                    <path fill="#EA393F" d="M37.34 26.19c5.353-5.325 12.549-8.977 20.155-9.312 13.858-1.199 27.556 8.49 31.434 21.804.72 2.218 1.699 4.574 2.135 6.853-1.001 3.7-2.105 7.455-4.309 10.65-1.91 2.82-4.55 5.022-6.929 7.424C71.182 72.1 63 81.056 55.346 90.445c-3.461 4.322-7.79 8.752-10.83 13.382-2.645 3.936-4.643 8.284-7.54 12.06-4.833 6.735-11.156 12.374-18.316 16.526-5.758 3.035-12.014 5.767-18.66 5.53V62.385c4.874-7.825 13.863-13.037 23.108-13.073 1.71-.026 3.703-.19 4.772-1.729 1.073-1.739.93-3.89 1.366-5.824 1.16-5.803 3.888-11.375 8.095-15.569z" transform="translate(0.000000, -169.000000) translate(0.000000, 169.725034) translate(0.000000, 10.274966)"/>
                </g>
                <g fill-rule="nonzero">
                    <path fill="#72E6FF" d="M5.365.19C5.955.186 6.548.186 7.146.2c.075 1.712.07 3.428.07 5.15 1.879-.01 3.809-.2 5.609.477-.237.45-.469.905-.7 1.36-1.638.004-3.276.004-4.909.009 0 1.735.005 3.475-.06 5.21-.603-.01-1.202-.023-1.8-.042-.01-1.726-.01-3.447-.01-5.168-1.716 0-3.428 0-5.14-.046C.15 6.62.099 6.096.053 5.572c1.749-.269 3.526-.269 5.293-.223 0-1.72 0-3.442.019-5.159z" transform="translate(0.000000, -169.000000) translate(0.000000, 169.725034) translate(237.000000, 0.274966)"/>
                    <path fill="#F5B84D" d="M13.941 21.582c2.227-.955 5.15.956 4.742 3.447-.023 2.59-3.53 4.06-5.447 2.385-2-1.387-1.596-4.969.705-5.832z" transform="translate(0.000000, -169.000000) translate(0.000000, 169.725034) translate(237.000000, 0.274966)"/>
                </g>
                <g fill="#F5B84D" fill-rule="nonzero">
                    <path d="M3.201.976c2.889.198 5.788.161 8.682.271-.902 1.3-1.89 2.53-2.838 3.793-.394.59-1.06 1.283-.614 2.045.742 1.586 1.951 2.875 2.996 4.252-3.61.877-7.335.345-11.002.433l.005-1.012c.907-.02 1.813-.041 2.725-.057.174-3.24.185-6.485.046-9.725z" transform="translate(0.000000, -169.000000) translate(0.000000, 169.725034) translate(224.000000, 19.274966)"/>
                </g>
            </g>
        </g>
    </g>
</svg>
