<svg xmlns="http://www.w3.org/2000/svg" width="185" height="227" viewBox="0 0 185 227">
    <g fill="none" fill-rule="evenodd">
        <g fill-rule="nonzero">
            <g>
                <g>
                    <g fill="#FFF">
                        <path d="M4.853.333C6.128.025 7.446.163 8.743.14 31.035.144 53.33.147 75.624.138c2.508-.045 4.951 1.521 5.942 3.829.671 1.402.547 2.99.539 4.497-.009 21.536 0 43.071.002 64.604-.042 1.75.235 3.589-.485 5.242-.925 2.271-3.256 3.908-5.719 3.93-23.234-.003-46.465 0-69.696-.003-3.332.012-6.275-3.021-6.196-6.348C.014 52.76.006 29.627.017 6.495-.033 3.648 2.099.99 4.853.333m20.094 16.612c10.738.031 21.479.062 32.217-.017.005-1.343.005-2.686-.037-4.029-10.715.031-21.431.026-32.144.003-.04 1.346-.04 2.695-.036 4.043m3.986 1.54c-.006 1.352 0 2.706-.003 4.058 8.086.03 16.175.084 24.261-.009-.008-1.351-.003-2.703-.008-4.054-8.083.006-16.167-.006-24.25.006m-8.472 8.986c-2.472-.08-4.946-.023-7.42-.037-.006.965-.006 1.93-.01 2.895 1.13-.003 2.258 0 3.387.022-1.775 2.579-3.702 5.05-5.536 7.587-.945 1.323-2.003 2.573-2.793 4 1.106-.14 1.6-1.207 2.209-1.994 2.342-3.197 4.678-6.402 7.056-9.573.074 3.775.028 7.553.026 11.328l.756-.014c-.006-3.792-.048-7.587.025-11.379 2.774 3.817 5.598 7.6 8.38 11.415.214-.014.646-.042.863-.053-2.765-3.767-5.603-7.48-8.278-11.311.945-.023 1.89-.034 2.836-.06 1.718-1.81 3.506-3.549 5.278-5.303.26-.283.573-.56.646-.954-.555-.736-1.264-1.337-1.92-1.984-1.849 1.792-3.593 3.69-5.505 5.415m33.901-3.6c-.37.36.175.694.375.973 1.806 1.82 3.657 3.597 5.426 5.457.942.025 1.887.03 2.833.056-1.741 2.536-3.623 4.971-5.434 7.457-.974 1.368-2.074 2.655-2.895 4.125 1.117-.127 1.602-1.202 2.212-1.995 2.344-3.228 4.757-6.41 7.081-9.655.096 3.812 0 7.63.054 11.444.183-.023.547-.068.73-.088-.027-3.75-.025-7.496.004-11.243 2.384 3.081 4.632 6.264 6.957 9.387.652.83 1.143 1.978 2.314 2.155-.77-1.441-1.848-2.677-2.79-4-1.843-2.534-3.747-5.022-5.533-7.596 1.12-.02 2.237-.022 3.357-.02.017-.964.025-1.926.028-2.888-2.525-.009-5.047-.006-7.572-.003-1.783-1.795-3.564-3.595-5.372-5.364-.604.587-1.25 1.135-1.775 1.798m-20.757 1.185c-.067 10.766-.059 21.53-.008 32.293 1.052.003 2.102.006 3.151.011-.011-10.73-.028-21.462.009-32.194-1.05-.088-2.1-.108-3.152-.11m5.945.104c-.11.635-.119 1.284-.11 1.927.085 10.095-.093 20.193.09 30.282 1.016-.012 2.034-.017 3.05-.02.116-3.594.025-7.192.054-10.789-.034-7.163.067-14.33-.054-21.49-1.01 0-2.028-.074-3.03.09m5.92-.107c-.037.677-.077 1.357-.085 2.037-.003 8.179.002 16.355 0 24.532.02 1.915-.077 3.837.098 5.747 1.005-.012 2.01-.012 3.014-.006.169-10.738.002-21.479.059-32.217-1.03-.062-2.057-.088-3.087-.093M6.55 43.51c-.068 2.963.99 5.965 3.072 8.103 2.398 2.584 6.071 3.91 9.567 3.428 3.03-.375 5.863-2.057 7.646-4.531 1.476-2.017 2.198-4.528 2.141-7.02-3.822-.177-7.654-.04-11.48-.081-3.648.045-7.301-.108-10.947.101m46.612-.079c-.101 2.446.59 4.918 2.009 6.918 1.758 2.573 4.66 4.294 7.742 4.695 3.77.522 7.736-1.075 10.117-4.04 1.735-2.088 2.599-4.802 2.534-7.505-2.424-.17-4.856-.062-7.285-.09-5.039.014-10.078-.031-15.117.022M28.944 59.864c-.017 1.346-.014 2.691-.002 4.037 8.086.009 16.169.011 24.255 0-.011-1.34-.011-2.68-.006-4.017-8.083-.046-16.163-.003-24.247-.02m-4 5.628c.005 1.335 0 2.67.022 4.004 10.727-.003 21.457-.014 32.184.006.017-1.343.014-2.686.017-4.03-10.741-.02-21.482-.084-32.223.02z" transform="translate(-95.000000, -114.000000) translate(95.000000, 114.000000) translate(48.000000, 0.000000) translate(5.078464, 1.974958)"/>
                    </g>
                    <g fill="#F5B84D">
                        <path d="M18.457 4.249c-.002-1.349-.002-2.697.037-4.043C29.207.229 39.922.234 50.638.203c.042 1.343.042 2.686.037 4.03-10.739.078-21.48.047-32.218.016zM22.444 5.79c8.083-.012 16.166 0 24.25-.006.005 1.351 0 2.703.008 4.054-8.086.093-16.175.04-24.26.009.002-1.352-.004-2.706.002-4.058zM13.971 14.776c1.913-1.724 3.657-3.623 5.505-5.415.657.646 1.365 1.247 1.921 1.984-.073.395-.386.671-.646.953-1.772 1.755-3.56 3.493-5.279 5.305-.945.025-1.89.036-2.835.059 2.675 3.831 5.513 7.544 8.278 11.31-.217.012-.65.04-.864.054-2.781-3.814-5.606-7.598-8.379-11.415-.073 3.792-.031 7.587-.025 11.379-.19.002-.567.01-.757.014.003-3.775.048-7.553-.025-11.328-2.378 3.171-4.714 6.376-7.056 9.573-.61.787-1.103 1.853-2.21 1.994.79-1.427 1.849-2.677 2.794-4 1.834-2.537 3.76-5.008 5.535-7.587-1.128-.022-2.257-.025-3.385-.022.003-.965.003-1.93.008-2.895 2.475.014 4.949-.042 7.42.037zM47.873 11.175c.525-.663 1.17-1.21 1.775-1.797 1.808 1.77 3.588 3.57 5.372 5.364 2.525-.003 5.047-.006 7.572.002-.003.963-.011 1.925-.028 2.89-1.12-.003-2.237 0-3.358.02 1.786 2.572 3.69 5.06 5.533 7.594.942 1.324 2.02 2.56 2.79 4.001-1.17-.178-1.661-1.326-2.313-2.155-2.325-3.124-4.573-6.306-6.958-9.387-.028 3.747-.03 7.493-.002 11.243-.184.02-.548.065-.731.088-.054-3.815.042-7.632-.054-11.444-2.325 3.245-4.737 6.427-7.081 9.655-.61.793-1.095 1.868-2.212 1.994.82-1.47 1.921-2.756 2.894-4.124 1.812-2.486 3.694-4.92 5.434-7.457-.945-.026-1.89-.031-2.832-.057-1.77-1.859-3.62-3.636-5.426-5.456-.2-.28-.745-.612-.375-.974zM27.116 12.36c1.053.003 2.102.023 3.152.11-.037 10.733-.02 21.465-.009 32.195-1.05-.006-2.099-.008-3.151-.011-.051-10.764-.06-21.527.008-32.294zM33.06 12.465c1.002-.164 2.02-.09 3.031-.09.121 7.16.02 14.326.054 21.49-.029 3.597.062 7.194-.054 10.789-1.016.003-2.034.008-3.05.02-.183-10.09-.006-20.187-.09-30.282-.009-.643 0-1.292.11-1.927zM38.98 12.358c1.03.005 2.057.03 3.087.093-.057 10.738.11 21.479-.06 32.217-1.004-.006-2.008-.006-3.013.006-.175-1.91-.079-3.832-.099-5.748.003-8.176-.002-16.352 0-24.531.009-.68.048-1.36.085-2.037zM.06 30.815c3.644-.209 7.298-.056 10.946-.102 3.826.043 7.657-.096 11.48.082.057 2.492-.666 5.003-2.141 7.02-1.783 2.474-4.616 4.156-7.646 4.53-3.496.483-7.17-.843-9.567-3.427-2.082-2.139-3.14-5.14-3.073-8.103zM46.671 30.736c5.04-.054 10.078-.008 15.117-.023 2.43.029 4.861-.079 7.285.09.065 2.704-.799 5.418-2.534 7.506-2.381 2.965-6.348 4.562-10.117 4.04-3.081-.4-5.984-2.122-7.742-4.695-1.42-2-2.11-4.472-2.009-6.918zM22.455 47.168c8.083.017 16.164-.026 24.247.02-.006 1.337-.006 2.677.006 4.017-8.086.011-16.17.008-24.256 0-.01-1.346-.014-2.692.003-4.037zM18.455 52.796c10.74-.104 21.481-.04 32.222-.02-.002 1.343 0 2.686-.016 4.03-10.727-.02-21.457-.009-32.184-.006-.022-1.335-.017-2.67-.022-4.004z" transform="translate(-95.000000, -114.000000) translate(95.000000, 114.000000) translate(48.000000, 0.000000) translate(11.567613, 14.671119)"/>
                    </g>
                    <g fill="#5899D9">
                        <path d="M2.582 2.802C4.142 1.106 6.432.144 8.729.138c22.204.009 44.406.003 66.61.003 1.76.02 3.58-.166 5.27.451 3.222 1.042 5.62 4.199 5.716 7.59-.005 23.321.003 46.646.003 69.97-.07 4.28-3.896 8.046-8.179 8.046-10.151-.002-20.3.006-30.45-.005-.043 9.779.03 19.56-.038 29.34-2.903-.06-5.795.183-8.681.46-.023-9.932-.008-19.863-.006-29.795-10.18-.005-20.359.003-30.535-.002-3.555-.034-6.867-2.63-7.815-6.044-.455-1.472-.339-3.027-.35-4.545.002-22.286 0-44.572.002-66.858-.03-2.184.782-4.373 2.306-5.947m4.528-.494c-2.754.657-4.887 3.315-4.836 6.162-.011 23.132-.003 46.265-.006 69.394-.079 3.327 2.864 6.36 6.196 6.348 23.231.003 46.462 0 69.696.003 2.463-.023 4.794-1.659 5.72-3.93.719-1.653.442-3.493.485-5.242-.003-21.533-.012-43.068-.003-64.604.008-1.507.132-3.095-.54-4.497-.99-2.308-3.433-3.874-5.94-3.829-22.295.009-44.59.006-66.881.003-1.298.023-2.616-.116-3.891.192z" transform="translate(-95.000000, -114.000000) translate(95.000000, 114.000000) translate(48.000000, 0.000000) translate(2.821369, 0.000000)"/>
                    </g>
                    <g fill="#EA393F">
                        <path d="M26.95.183c2.107-.355 4.232.184 6.218.87 1.772.637 3.479 1.466 5.064 2.49.768.523 1.572 1.093 1.998 1.947-.093.683-.759 1.073-1.357 1.267-1.117.37-2.291.542-3.389.976 7.373-1.3 14.846-2.361 22.351-2.076 3.149.158 6.357.505 9.294 1.73 2.026.823 3.95 2.313 4.596 4.488.733 2.917-.313 5.871-1.63 8.453 2.028 1.952 3.8 4.69 3.232 7.629-.533 2.864-2.945 4.796-5.222 6.34.886 3.03 1.461 6.511-.076 9.431-1.038 1.936-3.273 2.746-5.352 2.867.5 2.19.646 4.593-.378 6.664-1.154 2.412-3.863 3.719-6.436 3.882-10.349.006-20.695-.003-31.043.006-1.259-.014-2.548.104-3.77-.268-2.308-.655-4.647-1.383-6.67-2.709-.775-.48-1.303-1.235-1.746-2.011-1.907-.023-3.812-.006-5.719-.017 0-11.695 0-23.39-.003-35.084 2.01-.011 4.015.006 6.021-.011 2.855-4.864 6.362-9.32 9.985-13.628C24.1 2.184 25.153.53 26.95.183zM.138 17.055c1.422-.003 2.844.003 4.266.003.006 11.695 0 23.39.003 35.084-1.425.005-2.85.008-4.272 0-.008-11.695-.014-23.39.003-35.087z" transform="translate(-95.000000, -114.000000) translate(95.000000, 114.000000) translate(48.000000, 0.000000) translate(0.000000, 111.726210)"/>
                    </g>
                </g>
                <path fill="#FFF" d="M6.697 217.156v-10.13c0-1.065.289-1.887.867-2.465.578-.578 1.365-.867 2.362-.867.952 0 1.712.284 2.278.85.567.567.85 1.36.85 2.38v10.232h6.663v-10.13c0-1.065.289-1.887.867-2.465.578-.578 1.365-.867 2.363-.867.951 0 1.71.284 2.277.85.567.567.85 1.36.85 2.38v10.232h6.663v-11.082c0-2.538-.674-4.533-2.023-5.983-1.348-1.45-3.223-2.176-5.626-2.176-1.36 0-2.595.334-3.705 1.003-1.11.669-1.995 1.558-2.652 2.669-.612-1.179-1.462-2.085-2.55-2.72-1.087-.635-2.345-.952-3.773-.952-1.314 0-2.459.278-3.433.833-.975.555-1.734 1.309-2.278 2.26v-2.923H0v19.071h6.697zm38.176 9.11l12.068-28.18h-7.41l-3.774 10.673-4.08-10.674h-7.444l7.955 18.255-4.658 9.927h7.343zm26.652-9.11V192h-6.697v25.156h6.697zm10.777.238c1.337 0 2.498-.289 3.484-.867.986-.578 1.717-1.377 2.193-2.396v3.025h6.663v-19.07h-6.663v3.025c-.476-1.02-1.207-1.82-2.193-2.397-.986-.578-2.147-.867-3.484-.867-1.519 0-2.89.391-4.114 1.173-1.224.782-2.187 1.91-2.89 3.382-.702 1.474-1.053 3.207-1.053 5.202 0 1.994.351 3.733 1.054 5.218.702 1.484 1.665 2.617 2.89 3.4 1.223.781 2.594 1.172 4.113 1.172zm2.21-5.847c-1.043 0-1.888-.346-2.533-1.037-.646-.691-.97-1.66-.97-2.906 0-1.224.324-2.182.97-2.873.645-.691 1.49-1.037 2.532-1.037.997 0 1.825.352 2.482 1.054.657.703.986 1.654.986 2.856 0 1.223-.329 2.187-.986 2.89-.657.702-1.485 1.053-2.482 1.053zm24.204 5.61l2.957-11.865 2.89 11.864h7.479l4.725-19.07h-6.187l-2.108 12.85-3.127-12.85h-7.105l-2.992 12.747-2.074-12.748h-6.629l4.658 19.071h7.513zm28.487 9.11l12.068-28.182h-7.41l-3.774 10.674-4.08-10.674h-7.444l7.955 18.255-4.658 9.927h7.343zm22.369-8.873c1.564 0 3.003-.306 4.317-.918 1.315-.612 2.402-1.456 3.264-2.532.86-1.077 1.416-2.284 1.665-3.62h-7.07c-.16.52-.454.94-.884 1.257-.43.317-.975.476-1.632.476-1.768 0-2.708-1.077-2.822-3.23h12.612c.114-.566.17-1.087.17-1.563 0-1.881-.402-3.536-1.206-4.964-.805-1.427-1.932-2.527-3.383-3.297-1.45-.77-3.127-1.156-5.031-1.156-1.881 0-3.558.391-5.031 1.173-1.474.782-2.618 1.91-3.434 3.382-.816 1.474-1.224 3.207-1.224 5.202 0 1.994.408 3.733 1.224 5.218.816 1.484 1.955 2.617 3.417 3.4 1.461.781 3.144 1.172 5.048 1.172zm2.821-11.354h-5.949c.091-.975.414-1.711.97-2.21.554-.498 1.274-.748 2.158-.748.816 0 1.496.25 2.04.748.543.499.804 1.235.781 2.21zm16.182 11.116v-8.227c0-1.427.374-2.43 1.122-3.008.748-.578 1.87-.867 3.365-.867H185v-7.139c-1.27 0-2.47.34-3.603 1.02-1.134.68-2.074 1.586-2.822 2.72v-3.57h-6.697v19.071h6.697z" transform="translate(-95.000000, -114.000000) translate(95.000000, 114.000000)"/>
            </g>
        </g>
    </g>
</svg>
