<svg xmlns="http://www.w3.org/2000/svg" width="377" height="261" viewBox="0 0 377 261">
    <g fill="none" fill-rule="evenodd">
        <g>
            <g>
                <g>
                    <g fill-rule="nonzero">
                        <path fill="#BBB" d="M.11 2.616C11.394 1.528 22.74 1.072 34.035.058c1.11-.11 2.246-.037 3.293.371 5.247 2.093 10.818 3.128 16.29 4.441-.273 0-.828.01-1.105.016-2.608 3.03-4.89 6.32-7.33 9.485-.723.303-1.598.947-2.388.444-4.467-3.076-6.216-8.914-5.153-14.104-3.654-.172-7.304.11-10.938.44C17.834 1.695 8.98 2.448.11 2.97v-.355z" transform="translate(0.000000, -170.000000) translate(0.000000, 170.000000) translate(45.030556, 44.466801)"/>
                        <path fill="#C1BFBF" d="M225.907 83.043c4.56-1.099 9.535 1.988 10.833 6.435 1.587 4.561-1.293 9.955-5.807 11.483-2.749.863-5.984.68-8.335-1.11-3.53-2.484-4.875-7.465-3.184-11.41 1.12-2.714 3.64-4.754 6.493-5.398z" transform="translate(0.000000, -170.000000) translate(0.000000, 170.000000) translate(45.030556, 44.466801)"/>
                        <path fill="#C1BFBF" d="M265.272 97.759c.958-2.532 2.356-4.891 4.32-6.775 3.026 2.061 5.618 4.651 8.388 7.026 1.367-1.726 2.398-4.216 4.739-4.755 3.277 2.61 5.765 6.068 8.582 9.16 3.382 3.908 6.885 7.716 10.514 11.41 1.382 1.532 2.99 3.008 3.717 4.99.67 2.7.424 5.52.613 8.276.492 9.982.785 19.979 1.335 29.96 1.597.932 3.194 1.863 4.791 2.81-4.56 9.008-9.315 17.912-14.027 26.837-2.362-1.22-5.027-1.48-7.619-1.774-11.535-1.308-22.29-6.094-32.343-11.67-.597 1.145-1.189 2.3-1.78 3.457-8.012-3.327-15.75-7.282-23.642-10.881-11.163-5.226-22.332-10.437-33.49-15.679-8.404-4.007-16.944-7.742-25.248-11.943 1.654-4.002 3.602-7.873 5.409-11.802 2.1-4.337 3.984-8.773 6.262-13.026l-.335 1.266c4.534-1.172 8.917-2.846 13.383-4.238 3.75-1.135 7.362-2.908 11.342-3.097 4.204 8.82 8.346 17.672 12.44 26.545 1.65-.21 3.289-.529 4.844-1.146 5.64-2.223 11.368-4.227 17.017-6.445-2.576-2.056-5.204-4.384-6.173-7.659-.906-2.987-1.152-6.524.482-9.296.864-1.277 2.419-.361 3.57-.09 8.635 3.145 17.332 6.122 25.962 9.292 1.366.507 2.822.717 4.272.874-4.555-3.066-9.713-5.096-14.279-8.13-5.262-3.594-7.074-11.206-4.131-16.824.414-.811 1.33-1.768 2.325-1.256 3.068 1.22 5.796 3.134 8.76 4.583z" transform="translate(0.000000, -170.000000) translate(0.000000, 170.000000) translate(45.030556, 44.466801)"/>
                    </g>
                    <g>
                        <path fill="#193B64" fill-rule="nonzero" d="M0 .377C15.017.392 30.04.293 45.057.429c.094 2.563.136 5.122.094 7.685-.047 11.943-.021 23.886-.01 35.83v.355c.047 3.082.047 6.163-.016 9.244-8.237.168-16.473.01-24.71.068-6.801-.042-13.613.12-20.415-.104V.377z" transform="translate(0.000000, -170.000000) translate(0.000000, 170.000000) translate(0.000000, 3.138833)"/>
                        <path fill="#091F3D" fill-rule="nonzero" d="M148.02 41.291c5.644-.246 11.3-.062 16.949-.115 14.42.053 28.846-.1 43.266.073-.005 5.786-.016 11.578.026 17.363.178.906-.11 2.49 1.147 2.637 2.257.382 4.56.136 6.838.173 13.174.01 26.353-.026 39.533.02.01 3.228.005 6.461-.037 9.69.026 1.386-.141 2.913.723 4.111 2.277-.847 3.853-2.778 5.623-4.342 3.524-3.17 7.127-6.262 10.614-9.469.859-.005 1.723-.005 2.587 0-.048 14.732.041 29.469-.048 44.2-4.974-2.333-9.97-4.614-14.933-6.963-.827-.376-1.68-.706-2.587-.81-1.272 1.815-2.016 3.933-2.99 5.916-7.958 16.981-15.901 33.973-23.908 50.933-2.277 4.253-4.162 8.69-6.262 13.026-1.361-.214-2.728-.424-4.1-.487-45.858-.02-91.72.042-137.584-.03-.063-3.506-.068-7.016.09-10.516 2.444-.042 4.895-.063 7.34-.058.335-11.932.058-23.87.147-35.803.005-16.395.01-32.79.005-49.18-.1-5.32.251-10.657-.246-15.961 2.44-3.165 4.723-6.456 7.33-9.485.278-.005.833-.016 1.105-.016.362.068.718.152 1.079.236-.031 3.552.586 7.256 2.896 10.08 2.628 3.443 7.267 5.74 11.608 4.803 1.052-2.971.466-6.225.607-9.317 5.765 5.786 11.525 11.603 17.369 17.31 2.979 1.868 6.529 2.486 9.775 3.752 2.493.9 5.017 1.726 7.635 2.186-.618-2.594-1.493-5.116-2.404-7.617-1.157-3.107-1.979-6.345-3.382-9.359-5.153-5.231-10.363-10.431-15.494-15.673 2.409 2.224 5.44 4.055 8.844 3.824 4.21.393 8.472-1.632 10.839-5.132m22.593 115.577c-.015 1.47-.015 2.95-.005 4.431 8.132.163 16.274.115 24.411.021-.016-1.49-.042-2.982-.084-4.467-8.105-.157-16.221-.178-24.322.015z" transform="translate(0.000000, -170.000000) translate(0.000000, 170.000000) translate(0.000000, 3.138833)"/>
                        <path fill="#133561" d="M82.207 156.419H272.801V167.928H82.207z" transform="translate(0.000000, -170.000000) translate(0.000000, 170.000000) translate(0.000000, 3.138833)"/>
                        <path fill="#FFF" d="M172.792 156.942H193.736V161.65H172.792z" opacity=".1" transform="translate(0.000000, -170.000000) translate(0.000000, 170.000000) translate(0.000000, 3.138833)"/>
                        <path fill="#143E6E" d="M100.533 51.268H264.947V145.95600000000002H100.533z" transform="translate(0.000000, -170.000000) translate(0.000000, 170.000000) translate(0.000000, 3.138833)"/>
                        <path fill="#FFF" d="M181.17 91.55v39.235h-58.121V91.549h58.12zm61.786-16.218v55.453h-53.932V75.332h53.932zm-61.787-8.893v18.31h-58.12v-18.31h58.12z" opacity=".1" transform="translate(0.000000, -170.000000) translate(0.000000, 170.000000) translate(0.000000, 3.138833)"/>
                        <path fill="#BBB" fill-rule="nonzero" d="M99.727 46.434c2.79.962 6 .575 8.137-1.59 2.157 2.547 4.644 4.77 6.974 7.156-.141 3.092.445 6.346-.607 9.317-4.34.937-8.98-1.36-11.608-4.802-2.31-2.825-2.927-6.53-2.896-10.081z" transform="translate(0.000000, -170.000000) translate(0.000000, 170.000000) translate(0.000000, 3.138833)"/>
                        <path fill="#1C4471" fill-rule="nonzero" d="M357.302 201.189c.869-1.732 1.853-3.395 2.848-5.059 5.587 3.055 11.357 5.775 16.85 8.988v51.272c-.744-.502-1.508-.957-2.288-1.38-7.006-3.637-14.002-7.293-20.976-10.992-4.78-2.595-9.792-4.818-14.384-7.727.739-2.987 2.629-5.508 3.922-8.265 4.713-8.925 9.467-17.829 14.028-26.837z" transform="translate(0.000000, -170.000000) translate(0.000000, 170.000000) translate(0.000000, 3.138833)"/>
                    </g>
                    <g transform="translate(0.000000, -170.000000) translate(0.000000, 170.000000) translate(45.030556, 0.000000)">
                        <path fill="#F4F4F4" fill-rule="nonzero" d="M35.318 1.318c1.654-.44 3.24-1.245 4.974-1.302 1.639.376 2.98 1.49 4.461 2.244 11.394 6.278 22.788 12.56 34.202 18.802 3.105 1.642 5.184 4.582 7.745 6.905 5.387 5.524 11.137 10.714 16.29 16.463-2.368 3.5-6.63 5.525-10.84 5.132-3.403.23-6.435-1.6-8.843-3.824-7.488-7.967-15.62-15.286-23.249-23.117-4.498-4.353-8.75-8.962-13.399-13.152-2.822 2.59-5.44 5.383-8.2 8.035-.927.942-1.963 1.82-2.628 2.982-.084.895.686 1.543 1.188 2.192 1.932 2.077 4.064 3.955 6.006 6.021 1.377 1.371 2.718 2.982 4.681 3.5 4.058 1.193 8.22 2.02 12.258 3.28 3.498 1.073 5.728 5.022 4.89 8.564-.324 1.46-1.151 2.747-2.02 3.94-2.137 2.165-5.347 2.552-8.138 1.59-.36-.084-.717-.168-1.078-.236-5.472-1.313-11.043-2.349-16.29-4.441-1.047-.408-2.183-.482-3.293-.372C22.74 45.54 11.394 45.994.11 47.082.1 35.14.073 23.196.12 11.252 11.84 7.879 23.594 4.657 35.318 1.319zM183.908 38.289c.476-1.042 1.623-1.455 2.513-2.051 1.173.586 2.87.968 3.142 2.49.565 1.742-.587 4.08-2.602 3.96-2.372.586-4.268-2.432-3.053-4.4zM215.058 36.824c1.434.042 3.33-.502 4.21 1.015 1.314 1.59.287 3.672-1.037 4.87-1.336-.115-3.043.267-3.833-1.12-1.31-1.454-.403-3.473.66-4.765zM198.695 39.21c.167-2.344 3.141-3.108 4.927-2.057.717.717 1.016 1.727 1.476 2.616-.617.989-1.015 2.333-2.21 2.778-.884.146-1.78.115-2.67.146-.795-1.004-1.817-2.082-1.523-3.484zM98.8 61.411c1.403 3.014 2.226 6.252 3.383 9.36-1.723 1.825-3.514 3.593-5.231 5.43-3.247-1.267-6.797-1.884-9.776-3.752l.361.23c3.807-3.698 7.546-7.475 11.263-11.268zM212.69 100.997c.907.105 1.76.434 2.587.811 4.964 2.349 9.96 4.63 14.934 6.963 12.745 5.995 25.526 11.922 38.286 17.897 8.76 4.159 17.636 8.087 26.317 12.408-1.032 2.663-2.34 5.206-3.513 7.806-2.817-3.092-5.305-6.55-8.582-9.16-2.341.538-3.372 3.029-4.74 4.755-2.769-2.375-5.36-4.965-8.387-7.026-1.964 1.883-3.362 4.243-4.32 6.775-2.964-1.45-5.692-3.364-8.76-4.583-.995-.513-1.911.445-2.325 1.256-2.943 5.618-1.131 13.23 4.131 16.824 4.566 3.034 9.724 5.064 14.28 8.13-1.451-.158-2.907-.367-4.273-.874-8.63-3.17-17.327-6.147-25.961-9.291-1.152-.272-2.707-1.188-3.571.089-1.634 2.772-1.388 6.309-.482 9.296.969 3.275 3.597 5.603 6.173 7.659-5.65 2.218-11.378 4.221-17.017 6.445-1.555.617-3.194.936-4.843 1.145-4.095-8.872-8.237-17.724-12.441-26.544-3.98.189-7.593 1.962-11.342 3.097-4.466 1.392-8.849 3.066-13.383 4.238l.335-1.266c8.006-16.96 15.95-33.952 23.908-50.933.974-1.983 1.717-4.102 2.99-5.917m13.216 26.513c-2.854.643-5.372 2.684-6.493 5.399-1.691 3.944-.346 8.924 3.184 11.41 2.35 1.788 5.586 1.972 8.335 1.108 4.514-1.527 7.394-6.92 5.807-11.483-1.298-4.446-6.273-7.533-10.833-6.434z"/>
                        <ellipse cx="226.724" cy="136.539" fill="#F4BF4A" rx="9.949" ry="9.94"/>
                    </g>
                    <g fill-rule="nonzero">
                        <path fill="#F5B84D" d="M2.854 8.088c2.76-2.653 5.377-5.446 8.2-8.036 4.65 4.19 8.9 8.8 13.399 13.152 7.629 7.831 15.76 15.15 23.248 23.118 5.131 5.241 10.341 10.441 15.494 15.673-3.718 3.793-7.457 7.57-11.263 11.268l-.362-.23c-5.843-5.707-11.603-11.525-17.368-17.31-2.33-2.386-4.817-4.61-6.974-7.157.869-1.193 1.696-2.48 2.02-3.94.839-3.541-1.392-7.49-4.89-8.563-4.037-1.261-8.2-2.088-12.257-3.28-1.964-.518-3.304-2.13-4.681-3.5-1.943-2.067-4.074-3.945-6.006-6.021C.91 12.612.14 11.964.225 11.07.89 9.908 1.927 9.03 2.854 8.088z" transform="translate(0.000000, -170.000000) translate(0.000000, 170.000000) translate(80.636111, 9.416499)"/>
                        <path fill="#EA393F" d="M127.955 5.52c25.405-.147 50.811-.048 76.217-.048.22 1.297.403 2.61.434 3.934-.015 14.135-.031 28.27.01 42.406-.099 1.056.105 2.411-.858 3.144-3.006.497-6.08.094-9.106.199-.864-.006-1.727-.006-2.586 0-3.487 3.206-7.09 6.298-10.614 9.468-1.77 1.565-3.346 3.495-5.623 4.342-.864-1.198-.697-2.725-.723-4.111.042-3.228.047-6.461.037-9.689-13.18-.047-26.359-.01-39.533-.02-2.278-.038-4.582.208-6.838-.174-1.257-.146-.969-1.731-1.147-2.636-.042-5.786-.031-11.577-.026-17.363.005-8.172.026-16.338-.016-24.504-.005-1.658.162-3.306.372-4.949m20.347 23.353c-1.214 1.967.681 4.986 3.053 4.4 2.016.12 3.168-2.218 2.602-3.96-.272-1.523-1.968-1.905-3.141-2.49-.89.596-2.037 1.009-2.514 2.05m31.15-1.465c-1.063 1.292-1.969 3.312-.66 4.766.79 1.386 2.498 1.004 3.833 1.12 1.325-1.198 2.351-3.28 1.037-4.87-.88-1.518-2.775-.974-4.21-1.016m-16.363 2.386c-.293 1.402.728 2.48 1.524 3.484.89-.032 1.785 0 2.67-.147 1.194-.444 1.592-1.789 2.21-2.777-.46-.89-.76-1.9-1.477-2.616-1.785-1.052-4.76-.288-4.927 2.056z" transform="translate(0.000000, -170.000000) translate(0.000000, 170.000000) translate(80.636111, 9.416499)"/>
                        <path fill="#F5B84D" d="M61.346 66.784c1.718-1.836 3.508-3.605 5.231-5.43.911 2.5 1.786 5.022 2.404 7.617-2.619-.46-5.142-1.287-7.635-2.187z" transform="translate(0.000000, -170.000000) translate(0.000000, 170.000000) translate(80.636111, 9.416499)"/>
                    </g>
                </g>
                <path fill="#D1D1D1" d="M219 182.484L229.207 159.075 254.921 151 267.531 177.505 290.291 170.065 306.474 174.24 313 193.252 300.732 221z" transform="translate(0.000000, -170.000000) translate(0.000000, 170.000000)"/>
            </g>
        </g>
    </g>
</svg>
