<svg xmlns="http://www.w3.org/2000/svg" width="375" height="269" viewBox="0 0 375 269">
    <g fill="none" fill-rule="evenodd">
        <g>
            <g>
                <g fill-rule="nonzero">
                    <path fill="#203F68" d="M213.924.26c2.994-.93 6.339 1.547 6.45 4.658.202 2.058-1.13 4.011-2.91 4.936-2.583 1.3-6.216-.204-6.928-3.081-.932-2.631.7-5.78 3.388-6.513zM253.212 1.781c2.956-1.153 6.694 1.195 6.403 4.514.39 4.01-5.114 6.376-7.925 3.7-2.653-2.242-1.86-7.16 1.522-8.214z" transform="translate(0.000000, -170.000000) translate(0.000000, 170.000000) translate(78.000000, 55.000000)"/>
                    <path fill="#1E4355" d="M3.185 51.917c2.518-.612 4.987 2.1 4.066 4.585-.487 2.657-4.493 3.275-5.998 1.157-1.75-1.824-.464-5.258 1.932-5.742z" transform="translate(0.000000, -170.000000) translate(0.000000, 170.000000) translate(78.000000, 55.000000)"/>
                </g>
                <g fill="#FFF">
                    <path d="M0 0H39V8H0z" transform="translate(0.000000, -170.000000) translate(0.000000, 170.000000) translate(160.000000, 72.000000)"/>
                </g>
                <g fill="#EA393F" fill-rule="nonzero">
                    <path d="M.094.177C26.997.16 53.9.16 80.807.177c-.016 37.828.01 75.655-.016 113.483-2.493-.488-5.043-.452-7.551-.769-1.359-.171-2.29-1.273-3.22-2.151-3.046-3.129-6.16-6.19-9.301-9.225 3.992 1.138 8.199.38 12.286.5 0-6.221.02-12.442-.01-18.663-21.024-.01-42.048.01-63.066-.01-.162 6.236-.115 12.483-.031 18.719 6.36.02 12.72.026 19.084 0 .33 2.562 1.396 4.989 2.995 7.026 5.748 7.536 11.695 14.925 17.355 22.528-16.394.136-32.787.016-49.175.063C.01 87.842.13 44.007.094.177M10.85 21.53c-.016 2.421-.115 4.853.282 7.26 12.416-.078 24.833-.021 37.255-.032.062-2.427.057-4.853.047-7.28-12.532.03-25.058-.073-37.584.052m.663 23.848c-.527 1.273-.235 3.425 1.6 3.128 1.546-.369 1.285-1.99.982-3.144l-2.582.016m8.492.041c.021.848-.37 1.83.189 2.583.595.588 1.5.458 2.268.53 14.46-.046 28.924-.02 43.39-.015.736-.083 1.703.104 2.095-.707.836-1.148-.031-2.89-1.536-2.702-13.776-.172-27.561.026-41.337-.094-1.703-.041-3.391.172-5.069.405m-8.476 12.618c.841-.005 1.678-.01 2.519-.01.115-.795.528-1.637.157-2.422-.528-.525-1.48-1.153-2.164-.504-1.202.551-.674 1.96-.512 2.936m8.482-.098c3.767.478 7.561.104 11.345.275 5.753-.275 11.512.276 17.271-.01 3.303-.255 6.6.426 9.908.078 2.916-.317 5.853.25 8.759-.25.01-.883.46-1.897-.152-2.666-.789-.67-1.918-.447-2.869-.525-14.292.104-28.59-.062-42.878.084-1.782-.104-1.468 1.84-1.384 3.014m-8.283 6.615c-.434 1.118-.492 2.292-.058 3.42 1.124-.083 2.979-.224 2.728-1.809-.052-1.434-1.599-1.486-2.67-1.61m8.413.654c-.846.951-.115 2.88 1.27 2.64 15.254.031 30.519.062 45.773-.02.193-1.035.167-2.08.016-3.108-14.904-.156-29.808 0-44.712-.084-.774.125-1.866-.233-2.347.572z" transform="translate(0.000000, -170.000000) translate(0.000000, 170.000000) translate(150.000000, 51.000000)"/>
                </g>
                <g>
                    <path fill="#142F53" fill-rule="nonzero" d="M0 2.008C.707 1.323 1.482.544 2.548.58 5.498.356 8.456.596 11.41.533 59.605.523 107.8.543 155.993.518c2.304.068 4.712-.335 6.943.402 1.29.973.973 2.855 1.108 4.283-.11 7.754.047 15.51-.094 23.264h-8.986c-.073-6.301.067-12.607-.115-18.903-48.496-.037-96.992-.047-145.488.005-.286 16.147-.026 32.305-.125 48.457.089 12.508-.16 25.026.13 37.534 41.944.094 83.892-.078 125.835.084-2.616 2.876-4.004 6.72-3.78 10.62l-.39-1.668c-11.952-.277-23.908-.032-35.864-.126-31.724.063-63.448-.068-95.167.074V2.008z" transform="translate(0.000000, -170.000000) translate(0.000000, 170.000000)"/>
                    <path fill="#0E2646" fill-rule="nonzero" d="M304.957 44.997c5.813-.2 11.642-.11 17.455-.142 1.4-.186.972 1.375 1.12 2.205-.126 29.805.104 59.616-.099 89.426-6.548.19-13.108.053-19.656.07-.027-27.278.066-54.555-.044-81.832.176-3.263.697-6.5 1.224-9.727m7.718 12.33c-3.228.84-3.93 5.4-1.45 7.378 2.646 2.45 7.822.286 7.438-3.343.22-2.93-3.21-5.14-5.988-4.035z" transform="translate(0.000000, -170.000000) translate(0.000000, 170.000000)"/>
                    <path fill="#173358" d="M67.088 117.653H97.77199999999999V136.477H67.088z" transform="translate(0.000000, -170.000000) translate(0.000000, 170.000000)"/>
                </g>
                <g transform="translate(0.000000, -170.000000) translate(0.000000, 170.000000) translate(0.000000, 9.000000)">
                    <path fill="#173358" fill-rule="nonzero" d="M8.855.157C57.77.104 106.684.115 155.598.15c.184 6.349.042 12.708.116 19.062-4.28.026-8.561-.069-12.841.068-.336 9.033-.058 18.086-.147 27.124 0 12.312.005 24.619 0 36.93-2.54.67-5.099 1.657-6.945 3.618-42.305-.163-84.616.01-126.92-.084-.294-12.613-.043-25.236-.132-37.849.1-16.288-.162-32.58.126-48.863zM286.833 33.206c1.6-.365 3.235.052 4.834.245 3.78.64 7.63.875 11.38 1.703 5.484 1.36 11.167.495 16.745.75 6.77.34 13.552.084 20.328.141.984.12 2.557-.125 2.89 1.13.589 2.668.24 5.424.313 8.133.02 27.069-.083 54.143.068 81.207 2.02.15 4.046.297 6.078.27 6.781-.109 13.567.047 20.349-.093 1.74-.058 3.468.229 5.182.536v15.27c-2.849 1.036-5.922.52-8.88.594-29.714.041-59.433-.058-89.146.046-1.063-6.235-4.411-11.898-8.932-16.248 1.63-.104 3.26-.193 4.896-.282.895-4.84 1.4-9.747 2.166-14.607 3.547-25.189 7.172-50.361 10.672-75.555.214-1.115.37-2.302 1.057-3.24m19.032 3.287c-.5 3.178-.995 6.366-1.162 9.58-.89 2.793-1.052 5.731-1.495 8.607-2.76 19.635-5.588 39.254-8.359 58.884-.589 4.36-1.38 8.694-1.703 13.08 3.86.183 7.729.147 11.599.027 6.213-.016 12.437.12 18.65-.068.194-29.361-.025-58.722.095-88.078-.141-.818.265-2.355-1.063-2.173-5.516.032-11.047-.057-16.562.141m-13.51 10.622c-2.282.62-3.668 3.282-2.876 5.507.604 2.433 3.688 3.704 5.88 2.605 1.51-.782 2.641-2.433 2.47-4.173-.095-2.63-2.933-4.725-5.475-3.939m39.573 1.516c-3.02.938-3.73 5.314-1.36 7.31 2.511 2.38 7.428.276 7.079-3.293.26-2.954-3.078-5.043-5.719-4.017z"/>
                    <path fill="#173358" d="M0 94.814H134.375V110.443H0z"/>
                    <ellipse cx="82.552" cy="102.889" fill="#0E2646" rx="3.906" ry="3.907"/>
                    <path fill="#203F68" fill-rule="nonzero" d="M312.654 47.647c3.115-1.287 6.964 1.287 6.717 4.699.431 4.224-5.375 6.743-8.342 3.892-2.783-2.304-1.995-7.612 1.625-8.591z"/>
                    <path fill="#142F53" fill-rule="nonzero" d="M45.844 126.754c6.927-.093 13.86.214 20.776-.25 10.427.355 20.87.214 31.302.058 6.932.385 13.88.052 20.818.24 2.104.083 4.192-.183 6.255-.553 2.755 2.907 6.864 3.647 10.708 3.355-.922 1.125-1.875 2.245-2.599 3.522-1.729 3.01-1.687 6.657-1.255 10.002-40.339-.073-80.677-.026-121.01-.026-.428-2.172-.667-4.381-.542-6.595.146-3.105-.266-6.236.265-9.31 1.1-.516 2.344-.474 3.521-.505 10.589.14 21.172.005 31.76.062z"/>
                    <path fill="#173358" fill-rule="nonzero" d="M282.339 204.148c.224.61.479 1.224.734 1.84 1.318.14 2.635.29 3.958.447.302 4.996.068 9.997.14 14.998-.082 12.665.168 25.33-.114 37.994-8.192.125-16.385.026-24.578.057-19.75-.062-39.5.115-59.25-.088-.01-17.65-.177-35.306.083-52.956 1.974-.192 3.959-.38 5.948-.375 24.401.058 48.803.021 73.209.021-.037-.484-.1-1.453-.13-1.938m-68.417 15.577l-.287.177c-1.609 1.62-3.583 3.714-2.744 6.215.677 3.011 4.37 4.928 7.14 3.355 3.151-1.412 3.787-6.257 1.026-8.356-1.255-1.407-3.291-1.12-4.942-.803.895-.494 1.895-.604 2.89-.75-1.02-.083-2.114-.229-3.083.162z"/>
                </g>
                <g fill="#F2F2F2" fill-rule="nonzero">
                    <path d="M.254.297C4.49.16 8.723.255 12.957.229h8.967C45.758.224 69.587.245 93.416.22c.721.015 1.458.041 2.164.229.534 1.885.228 3.875.29 5.807-.005 23.781-.01 47.563.005 71.339-.041 20.599.01 41.203-.025 61.802-2.559-1.005-5.138-2.016-7.841-2.568.026-37.911 0-75.823.015-113.734-26.719-.016-53.433-.016-80.147 0 .037 43.927-.083 87.86.062 131.791 16.274-.046 32.552.073 48.83-.062 5.117 6.542 10.26 13.068 15.132 19.792-3.793.062-7.581.026-11.374.041-15.848-.005-31.696 0-47.549 0-4.27-.125-8.567.302-12.812-.312-.13-13.688-.02-27.38-.057-41.073.01-23.235.01-46.469 0-69.703.005-12.162 0-24.318 0-36.48C.197 18.162-.078 9.219.254.298m35.795 9.849c.026 1.041.031 2.083.016 3.13 1.038.005 2.08.042 3.124.104.202-1.099.181-2.219.02-3.323-1.053.042-2.106.068-3.16.089m6.86.411c.026.792.037 1.589.037 2.386 6.066.25 12.158.364 18.219-.052-.02-.792.005-1.579.083-2.36-6.118.11-12.23-.328-18.339.026z" transform="translate(0.000000, -170.000000) translate(0.000000, 170.000000) translate(142.000000, 28.000000)"/>
                </g>
                <g fill="#F5B84D" transform="translate(0.000000, -170.000000) translate(0.000000, 170.000000) translate(177.000000, 37.000000)">
                    <circle cx="2.5" cy="2.5" r="2.5"/>
                </g>
                <g fill="#D1D1D1" transform="translate(0.000000, -170.000000) translate(0.000000, 170.000000) translate(184.000000, 37.000000)">
                    <rect width="20" height="5" rx="2.5"/>
                </g>
                <g fill="#B2B2B2" fill-rule="nonzero">
                    <path d="M14.007 3.614C15.835 1.668 18.37.69 20.883.026c.01 23.332.01 46.663 0 69.995-1.958-.523-4.025-.942-5.697-2.165-2.43-1.732-3.989-4.467-4.721-7.323-.431-3.357-.473-7.018 1.252-10.041.722-1.282 1.672-2.406 2.591-3.536-3.833.293-7.93-.45-10.678-3.368-4.217-4.284-4.503-11.386-1.849-16.564 2.327-3.98 6.923-5.784 11.333-5.905-1.397-2.081-2.42-4.409-2.883-6.883-.223-3.901 1.164-7.745 3.776-10.622zM114.73 12.11c9.972 9.912 19.59 20.179 29.541 30.121 4.508 4.367 7.848 10.052 8.907 16.313.738 4.56.888 9.194 1.335 13.787 1.34 16.155 2.643 32.311 4.014 48.467.032.487.094 1.46.13 1.946-24.337 0-48.669.036-73-.021-2.078-4.394-4.202-8.766-6.305-13.144 3.796-.015 7.588.021 11.384-.041-4.877-6.752-10.024-13.306-15.144-19.875-5.625-7.651-11.535-15.089-17.248-22.672-1.59-2.05-2.649-4.493-2.976-7.072-.426-4.764 1.844-9.754 6.009-12.17 2.789-1.757 6.243-1.773 9.39-1.276 3.1.549 5.697 1.505 7.93 3.628 2.79 2.704 5.485 5.503 8.211 8.27 3.122 3.054 6.217 6.134 9.245 9.283.924.884 1.849 1.992 3.2 2.165 2.492.32 5.026 1.282 7.504 1.774 2.706.554 5.287 1.57 7.847 2.579.037-20.686-.015-41.376.026-62.061z" transform="translate(0.000000, -170.000000) translate(0.000000, 170.000000) translate(122.000000, 92.000000)"/>
                </g>
                <g transform="translate(0.000000, -170.000000) translate(0.000000, 170.000000) translate(159.000000, 96.000000)">
                    <path fill="#34BB09" fill-rule="nonzero" d="M2.637.684l2.59-.016c.303 1.15.565 2.765-.986 3.133C2.4 4.096 2.107 1.952 2.637.684z"/>
                    <ellipse cx="3.669" cy="2.071" fill="#D62B30" rx="2.097" ry="2.071"/>
                    <rect width="49.274" height="4.143" x="10.484" fill="#D62B30" rx="2.071"/>
                    <rect width="49.274" height="5.143" x="10.484" y="8.839" fill="#D62B30" rx="2.571"/>
                    <rect width="49.274" height="5.143" x="10.484" y="18.679" fill="#D62B30" rx="2.571"/>
                    <ellipse cx="3.669" cy="11.911" fill="#D62B30" rx="2.097" ry="2.071"/>
                    <ellipse cx="3.669" cy="21.232" fill="#D62B30" rx="2.097" ry="2.071"/>
                    <path fill="#F5B84D" fill-rule="nonzero" d="M.526 37.995c21.432.022 42.869 0 64.306.011.032 6.541.01 13.104.01 19.645-4.166-.125-8.456.65-12.527-.546-2.798-2.89-5.563-5.814-8.425-8.64-2.29-2.218-4.955-4.262-8.136-4.836-3.23-.519-6.773-.503-9.635 1.334-4.273 2.524-6.602 7.737-6.165 12.716-6.49.027-12.975.021-19.46 0C.409 51.12.361 44.553.526 37.995z"/>
                </g>
                <g fill="#F5B84D" fill-rule="nonzero">
                    <path d="M3.365.361C4.295-.03 5.345.115 6.325.2 5.37.346 4.41.456 3.55.953c1.585-.32 3.54-.607 4.745.807 2.65 2.111 2.04 6.982-.985 8.402-2.66 1.582-6.205-.346-6.855-3.373-.805-2.515 1.09-4.62 2.635-6.25l.275-.178z" transform="translate(0.000000, -170.000000) translate(0.000000, 170.000000) translate(211.000000, 228.000000)"/>
                </g>
            </g>
        </g>
    </g>
</svg>
