<?xml version="1.0" encoding="UTF-8"?>
<svg width="210px" height="269px" viewBox="0 0 210 269" version="1.1" xmlns="http://www.w3.org/2000/svg" xmlns:xlink="http://www.w3.org/1999/xlink">
    <title>D297BEEE-1574-4E6A-BCDB-F94279D317C5</title>
    <g id="Page-1" stroke="none" stroke-width="1" fill="none" fill-rule="evenodd">
        <g id="C-walkthrou-02" transform="translate(-83.000000, -175.000000)">
            <g id="5b522ae4-4bcf-4cb0-979c-5fa3be0c7a34" transform="translate(83.000000, 175.000000)">
                <g id="#70da44ff" transform="translate(64.487520, 95.571433)" fill-rule="nonzero">
                    <path d="M0.00115865764,0.0207453002 C6.37031812,0.0158514264 12.7394776,-0.0379811845 19.108637,0.0501085425 C19.0939503,6.43171988 19.0988459,12.8182251 19.1037415,19.1998364 C12.7394776,19.253669 6.3801093,19.2194119 0.0158454204,19.2243058 C-0.0184236927,12.823119 0.0158454204,6.42193213 0.00115865764,0.0207453002" id="Shape" fill="#F5B84D"></path>
                    <path d="M7.46824031,13.7117614 C7.6882289,13.8809834 7.92937025,13.9402111 8.19166434,13.8894445 C8.45395844,13.8386779 8.66971648,13.7033003 8.83893848,13.4833117 L8.83893848,13.4833117 L14.0932815,5.81755519 C14.2625035,5.5806444 14.3217312,5.32258085 14.2709646,5.04336455 C14.220198,4.76414826 14.0848204,4.53992911 13.8648318,4.37070712 C13.6448432,4.20148512 13.3994713,4.14225742 13.1287161,4.19302402 C12.8748831,4.24379062 12.6633556,4.37916822 12.4941336,4.59915681 L12.4941336,4.59915681 L7.9251397,11.2749646 L5.41219304,8.55895154 C5.22604884,8.33896295 4.99759915,8.2247381 4.72684395,8.216277 C4.45608876,8.2078159 4.21917796,8.30511855 4.01611156,8.50818495 C3.81304517,8.71125134 3.71151197,8.95662324 3.71151197,9.24430063 C3.71151197,9.53197803 3.80458407,9.77734992 3.99072826,9.98041632 L3.99072826,9.98041632 L4.77761055,10.8434485 C5.28527654,11.4188033 5.82678693,12.0153108 6.40214172,12.6329711 C6.97749651,13.2506314 7.33286271,13.6102282 7.46824031,13.7117614 Z" id="" fill="#FFFFFF"></path>
                    <path d="M-9.05941988e-14,31.5827271 C6.3783732,31.3576271 12.7616415,31.5484727 19.1400148,31.6071945 C19.1057487,37.8904211 19.1008536,44.1785412 19.1400148,50.4666613 C12.7861173,50.9462222 6.39795378,50.6379331 0.0342660111,50.6281461 C-0.00489514444,44.2764108 0.0587417333,37.9295689 -9.05941988e-14,31.5827271" id="Shape" fill="#F5B84D"></path>
                    <path d="M7.46824031,46.1874911 C7.6882289,46.3567131 7.92937025,46.4159408 8.19166434,46.3651742 C8.45395844,46.3144076 8.66971648,46.17903 8.83893848,45.9590414 L8.83893848,45.9590414 L14.0932815,38.2932849 C14.2625035,38.0563741 14.3217312,37.7983106 14.2709646,37.5190943 C14.220198,37.239878 14.0848204,37.0156588 13.8648318,36.8464369 C13.6448432,36.6772149 13.3994713,36.6179872 13.1287161,36.6687538 C12.8748831,36.7195204 12.6633556,36.854898 12.4941336,37.0748865 L12.4941336,37.0748865 L7.9251397,43.7506943 L5.41219304,41.0346813 C5.22604884,40.8146927 4.99759915,40.7004678 4.72684395,40.6920067 C4.45608876,40.6835456 4.21917796,40.7808483 4.01611156,40.9839147 C3.81304517,41.1869811 3.71151197,41.432353 3.71151197,41.7200304 C3.71151197,42.0077078 3.80458407,42.2530797 3.99072826,42.4561461 L3.99072826,42.4561461 L4.77761055,43.3191782 C5.28527654,43.894533 5.82678693,44.4910406 6.40214172,45.1087009 C6.97749651,45.7263611 7.33286271,46.0859579 7.46824031,46.1874911 Z" id="" fill="#FFFFFF"></path>
                    <path d="M0.241248278,66.4407036 C3.70687258,66.1205857 7.18641505,66.2829644 10.6613181,66.255128 C17.8755695,66.2597674 25.0851815,66.2365705 32.2994329,66.2644068 C31.3437186,68.3150172 30.8426645,70.7135818 31.5849669,72.9126526 C32.4896479,75.1349204 34.1180738,76.9535613 35.4078242,78.9531384 C23.6887251,79.0227292 11.9603473,79.0923201 0.241248278,78.9206626 C0.269084618,74.7591298 0.264445228,70.6022364 0.241248278,66.4407036 Z" id="Path" fill="#EA393F"></path>
                </g>
                <g id="#72e6ffff" transform="translate(167.945917, 0.000000)" fill-rule="nonzero">
                    <g id="Group-3" transform="translate(0.067861, -0.000213)">
                        <path d="M5.36486501,0.190428122 C5.95406753,0.185788732 6.54790945,0.185788732 7.14639075,0.199706902 C7.22062099,1.9116418 7.2159816,3.62821608 7.2159816,5.34942976 C9.09493454,5.34015098 11.0249208,5.14993599 12.8250041,5.82728693 C12.5883952,6.27730775 12.3564257,6.73196797 12.1244562,7.18662818 C10.4867515,7.19126757 8.84904687,7.19126757 7.2159816,7.19590696 C7.2159816,8.93103881 7.22062099,10.67081 7.15566953,12.4059419 C6.55254884,12.3966631 5.95406753,12.3827449 5.35558623,12.3641874 C5.34630745,10.6383343 5.34630745,8.91712064 5.34630745,7.19590696 C3.62973316,7.19590696 1.91779827,7.19590696 0.205863369,7.14951306 C0.150190689,6.62062261 0.0991573999,6.09637154 0.0527635002,5.57212048 C1.80181352,5.30303586 3.57869987,5.30303586 5.34630745,5.34942976 C5.34630745,3.62821608 5.34630745,1.90700241 5.36486501,0.190428122 Z" id="Path" fill="#72E6FF"></path>
                        <path d="M21.9414053,34.5822259 C24.1683125,33.6265116 27.0911282,35.5379402 26.6828619,38.0292927 C26.6596649,40.6180723 23.1522861,42.0887589 21.2362181,40.4139391 C19.236641,39.0267615 19.6402679,35.4451524 21.9414053,34.5822259 Z" id="Path" fill="#FECB0D"></path>
                    </g>
                </g>
                <g id="#2b5468ff" transform="translate(0.000000, 0.463939)">
                    <path d="M0.654153985,1.05778091 C1.08097786,0.0695908494 2.31969498,0.167018039 3.21045785,0.0927877992 C41.4158342,0.102066579 79.6212105,0.0835090193 117.821947,0.0974271892 C119.738016,0.125263529 121.691199,-0.115984749 123.57943,0.301560348 C124.753196,0.533529846 124.674326,1.86967415 124.702163,2.79291276 C124.65113,12.6887315 124.683605,22.5845503 124.683605,32.4803691 C117.845144,32.4803691 111.006684,32.4803691 104.168223,32.4803691 C103.894499,28.9265964 104.047599,25.3635449 103.936253,21.8004934 C98.6751851,21.5128513 93.4094775,21.7262632 88.1437699,21.6705905 C69.8924098,21.6659511 51.6364103,21.6659511 33.3850502,21.6752299 C29.0796963,21.7216238 24.7743424,21.5174906 20.4689885,21.7680177 C20.2184615,27.660043 20.4179552,33.5567076 20.3483644,39.4533722 C20.4318734,47.2939413 20.1952645,55.1437891 20.4875461,62.9797187 C28.921957,63.1049823 37.356368,62.9565218 45.7907789,63.0632278 C45.7815001,95.8590754 45.7907789,128.654923 45.7907789,161.45541 C32.0813816,161.650264 18.3673449,161.418295 4.65794752,161.557477 C3.27540931,161.603871 1.91142866,161.357983 0.575284355,161.033226 C0.343314857,152.668405 0.547448016,144.294307 0.463938996,135.924847 C0.487135946,93.2470988 0.468578386,50.5693506 0.473217776,7.89160233 C0.524251066,5.61830124 0.236608888,3.30788504 0.654153985,1.05778091 M21.1602576,84.6967031 C20.9886002,85.3786935 20.8865336,86.0792414 20.7612701,86.7797892 C23.9995643,87.549928 27.339925,87.1741374 30.6338919,87.2298101 C35.5609241,87.1555798 40.4925956,87.2808434 45.4196277,87.1880556 C45.4149883,86.264817 45.4149883,85.3462177 45.4149883,84.4276185 C39.1007786,84.2374035 32.7772901,84.4368973 26.4630803,84.3441095 C24.6954728,84.3487489 22.8814713,84.2142066 21.1602576,84.6967031 M21.1973727,100.076281 C20.8865336,100.795386 21.0210759,101.625837 20.9514851,102.395976 C22.7701259,102.567633 24.5980456,102.6697 26.4259652,102.627945 C32.7540931,102.525879 39.082221,102.711454 45.4103489,102.544436 C45.4149883,101.625837 45.4149883,100.711877 45.4196277,99.7979175 C38.4837397,99.6633752 31.5432124,99.8025569 24.6073244,99.7097691 C23.4706738,99.7468842 22.2783506,99.6448176 21.1973727,100.076281 M21.5174906,115.288841 C20.6684823,115.474416 20.3344462,116.439409 20.5014642,117.218827 C21.271603,118.155984 22.5613534,118.160623 23.6655282,118.193099 C30.9076159,118.146705 38.154343,118.081753 45.3964308,118.174541 C45.4010702,117.163154 45.4057096,116.156406 45.4103489,115.154298 C38.6229214,115.070789 31.8354939,115.191413 25.0480664,115.093986 C23.8696614,115.098626 22.6773381,115.038314 21.5174906,115.288841 M20.9236487,130.867912 C20.9143699,131.628772 20.9097306,132.394271 20.9050912,133.159771 C22.2737112,133.410298 23.6608888,133.609792 25.0619846,133.581955 C31.8308545,133.479889 38.6043639,133.581955 45.3778732,133.526283 C45.4103489,132.584486 45.4381853,131.64733 45.470661,130.714812 C40.2281504,130.218397 34.9485246,130.631303 29.6920958,130.487482 C26.7646407,130.496761 23.8139887,130.292628 20.9236487,130.867912 Z" id="Shape" fill="#173358" fill-rule="nonzero"></path>
                    <rect id="Rectangle" fill="#244268" x="19.9493768" y="83.9729583" width="46.1083987" height="3.71151197" rx="1.85575598"></rect>
                    <rect id="Rectangle-Copy-6" fill="#244268" x="19.9493768" y="99.2829452" width="43.3247647" height="3.71151197" rx="1.85575598"></rect>
                    <rect id="Rectangle-Copy-7" fill="#244268" x="19.9493768" y="114.592932" width="46.1083987" height="3.71151197" rx="1.85575598"></rect>
                    <rect id="Rectangle-Copy-8" fill="#244268" x="19.9493768" y="129.902919" width="43.7887037" height="3.71151197" rx="1.85575598"></rect>
                    <rect id="Rectangle" fill="#244268" x="19.1061166" y="21.3411938" width="86.1234177" height="42.5977698"></rect>
                    <path d="M190.001577,209.811772 C196.533838,218.561661 202.736702,227.562078 209.125142,236.423312 C194.422915,246.718119 179.906264,257.28201 165.231874,267.618571 C158.843434,258.79909 152.580257,249.882183 146.275326,241.00239 C148.080049,239.71264 149.861575,238.399693 151.652379,237.105303 C159.78059,231.278229 168.006229,225.585698 176.013816,219.600884 C179.414489,217.095614 183.010016,214.850149 186.239031,212.122188 C187.565897,211.472673 188.83245,210.711813 190.001577,209.811772 Z" id="Path" fill="#173358" fill-rule="nonzero"></path>
                </g>
                <g id="#f9f9f9ff" transform="translate(45.466022, 32.475730)" fill="#F9F9F9" fill-rule="nonzero">
                    <path d="M0.677350934,0.695908494 C5.2239531,0.222690718 9.81230977,0.575284355 14.3774695,0.473217776 C29.1539265,0.473217776 43.9303836,0.473217776 58.7022012,0.468578386 C65.540662,0.468578386 72.3791228,0.468578386 79.2175836,0.468578386 C93.0197687,0.459299606 106.826593,0.487135946 120.633418,0.454660216 C121.714396,0.510332896 122.888161,0.296920958 123.899548,0.779417514 C124.637211,1.19696261 124.56762,2.04597097 124.586178,2.78363398 C124.56762,50.741008 124.604736,98.6937427 124.56762,146.651117 C123.161885,143.913877 121.918529,141.102406 120.457121,138.397642 C118.48538,134.829951 113.808875,133.192246 110.009215,134.60726 C107.907571,135.289251 106.436885,137.010464 105.02651,138.611054 C102.767127,137.247073 100.118035,136.170735 97.4411074,136.848086 C94.9636731,137.214598 93.0429657,138.931172 91.4794913,140.763731 C88.8767935,138.805908 85.4529237,137.659979 82.279581,138.898696 C79.2083048,139.756983 77.389664,142.563814 76.1787832,145.314972 C72.8755375,140.527122 69.4145526,135.845977 66.0834706,131.072045 C64.422569,128.59925 62.2142194,125.926962 58.9898434,125.778501 C55.9649611,125.33312 53.060703,126.956906 51.3209318,129.36011 C44.1066804,129.332274 36.8970684,129.355471 29.682817,129.350832 C26.2079139,129.378668 22.7283714,129.216289 19.2627471,129.536407 C19.2859441,133.69794 19.2905835,137.854833 19.2627471,142.016366 C30.9818462,142.188024 42.710224,142.118433 54.429323,142.048842 C59.2542886,148.608939 63.8936786,155.303579 68.6722502,161.896152 C47.6326167,161.947185 26.5976227,161.896152 5.55798917,161.923988 C3.94348147,161.942546 2.32433437,161.942546 0.733023614,161.650264 C0.496414726,160.662074 0.278363398,159.664606 0.315478517,158.64394 C0.338675467,148.9105 0.320117907,139.177059 0.324757297,129.443619 C0.324757297,96.6431323 0.315478517,63.8472847 0.324757297,31.051437 C0.315478517,22.2505143 0.343314857,13.4495915 0.30610784,4.64866874 C0.301560348,3.32180321 0.473217776,2.00421646 0.677350934,0.695908494 M19.4297652,19.689571 C19.1374836,23.6376919 19.3601743,27.5950915 19.2952229,31.5478517 C19.3508955,36.9202653 19.1745987,42.2973183 19.3833713,47.6650925 C48.1290315,47.6743713 76.8793311,47.706847 105.624991,47.6511743 C105.638909,38.3306399 105.662106,29.0101054 105.620352,19.6942104 C76.8886098,19.6942104 48.1568678,19.7081286 19.4297652,19.689571 M19.1745987,63.2302458 C19.1885169,69.2985679 19.1560412,75.3668899 19.1885169,81.435212 C25.2197238,81.4305726 31.2462914,81.4630483 37.2774983,81.4120151 C37.272859,75.3622505 37.2682196,69.3078466 37.2821377,63.2580821 C31.2462914,63.1745731 25.2104451,63.2256064 19.1745987,63.2302458 M46.1526513,67.7211753 C46.018109,69.0665984 47.7300439,69.1315498 48.6811189,69.1408286 C66.1623403,69.122271 83.648201,69.1176317 101.129422,69.1408286 C102.066579,69.0805165 102.989818,68.9042197 103.917696,68.7418411 C103.843466,67.9902599 103.773875,67.2433181 103.704284,66.4963763 C100.076281,66.1901766 96.4389991,66.3943097 92.8017174,66.3432765 C78.1087694,66.3339977 63.411182,66.361834 48.7135946,66.3293583 C47.7486015,66.3293583 46.0552242,66.3386371 46.1526513,67.7211753 M46.5006056,75.7890744 C46.018109,76.4525072 45.8000577,77.7700939 46.8485598,78.0113422 C48.3238858,78.5309539 49.9430329,78.2850662 51.4833104,78.3314601 C63.5457243,78.2989844 75.6127776,78.3082632 87.6751915,78.3360995 C88.4638878,78.2850662 89.3036174,78.3268207 90.0412804,77.9927847 C90.941322,77.5427638 90.4541861,76.4200315 90.5516133,75.6498927 C78.7814809,75.343693 66.9927911,75.5988594 55.2133799,75.5153504 C52.3137612,75.617417 49.3677486,75.2091507 46.5006056,75.7890744 M19.1560412,95.6317453 C19.2117138,101.649034 19.1514018,107.666323 19.1885169,113.688251 C25.2197238,113.69753 31.2741277,113.989811 37.2960559,113.535151 C37.2589408,107.573535 37.2635802,101.611919 37.2960559,95.6549422 C31.2509308,95.5992696 25.2011663,95.4183334 19.1560412,95.6317453 M47.0155779,99.0556151 C46.31503,99.1437635 46.1619301,100.048445 46.0505848,100.628368 C46.5238025,101.658313 47.7578803,101.574804 48.7089552,101.616558 C66.3525552,101.588722 83.9961553,101.60728 101.635116,101.611919 C102.219679,101.60264 102.799603,101.542328 103.374887,101.426343 C104.154305,100.939207 103.857384,99.8582295 103.611496,99.1484029 C101.579443,98.7169396 99.482439,98.9349909 97.4225498,98.9071546 C81.3331454,98.8978758 65.2391016,98.9349909 49.1496973,98.888597 C48.4305918,98.8978758 47.7161258,98.9210728 47.0155779,99.0556151 M46.9181507,108.255525 C45.9856333,108.580283 45.7583032,110.111281 46.7279357,110.556663 C47.3681715,110.756157 48.0548012,110.760796 48.7228734,110.80255 C61.8755439,110.788632 75.0328539,110.779354 88.1855244,110.80719 C89.1134024,110.756157 90.2918074,110.821108 90.7928616,109.851476 C90.7093525,109.313306 90.5052194,108.802973 90.2407742,108.339034 C88.3293455,107.902932 86.3529654,108.116344 84.4183398,108.093147 C72.5090257,108.097786 60.6043511,108.111704 48.6996764,108.079229 C48.0965557,108.079229 47.5027138,108.134901 46.9181507,108.255525 Z" id="Shape"></path>
                </g>
                <g id="#fecb0dff" transform="translate(187.895293, 34.331486)"></g>
                <g id="#e0e0e0ff" transform="translate(64.023581, 51.497229)" fill="#E0E0E0">
                    <path d="M0.409100104,0.204133158 C29.290512,0.222998276 58.1765883,0.208849438 87.0626645,0.208849438 C87.1046433,9.67913837 87.0813218,19.1541436 87.0673288,28.6291488 C58.1672596,28.6857441 29.2625262,28.6527302 0.362456996,28.6432976 C0.152563014,23.1865624 0.329806821,17.7203947 0.273835093,12.2589432 C0.339135443,8.24067317 0.115248529,4.21768688 0.409100104,0.204133158 Z" id="Path" fill-rule="nonzero"></path>
                    <rect id="Rectangle-Copy-7" x="26.9764185" y="46.5027714" width="59.1083987" height="4" rx="2"></rect>
                    <rect id="Rectangle-Copy-11" x="26.9764185" y="88.5027714" width="46.1083987" height="4" rx="2"></rect>
                    <rect id="Rectangle-Copy-9" x="26.9764185" y="55.5027714" width="46.1083987" height="4" rx="2"></rect>
                    <rect id="Rectangle-Copy-10" x="26.9764185" y="79.5027714" width="59.1083987" height="4" rx="2"></rect>
                </g>
                <g id="#b2b2b2ff" transform="translate(95.571433, 157.739259)" fill="#B2B2B2" fill-rule="nonzero">
                    <path d="M1.21552017,4.09658134 C2.95529141,1.69337734 5.85954952,0.0695908494 8.88443178,0.514972286 C12.1088078,0.663432765 14.3171574,3.33572138 15.978059,5.80851623 C19.309141,10.5824485 22.7701259,15.263593 26.0733716,20.0514434 C27.2842524,17.3002852 29.1028932,14.4934542 32.1741694,13.6351671 C35.3475121,12.39645 38.7713819,13.5423793 41.3740797,15.5002019 C42.9375541,13.6676428 44.8582615,11.9510685 47.3356958,11.5845567 C50.0126238,10.9072058 52.6617155,11.9835443 54.9210984,13.3475249 C56.3314729,11.7469354 57.8021595,10.0257217 59.9038032,9.34373138 C63.7034636,7.92871745 68.3799687,9.5664221 70.3517094,13.134113 C71.8131172,15.8388773 73.0564737,18.6503476 74.4622089,21.3875877 C79.7650316,32.5824357 85.2163148,43.7169716 90.667598,54.8468681 C87.4385826,57.5748294 83.8430554,59.8202942 80.4423826,62.3255648 C72.4347955,68.3103778 64.2091571,74.0029093 56.0809459,79.8299831 C41.1838647,73.8730064 26.2960623,67.8742751 11.4036205,61.9080197 C8.84267727,60.8224024 6.16110987,59.996591 3.77182404,58.5583801 C4.13369646,55.4128737 6.1935856,52.7266669 8.66638045,50.8848291 C11.9000353,48.6903977 16.0754862,48.0455224 19.879786,48.7924642 C22.9093076,49.3027971 25.8182051,50.3281023 28.8152511,50.9868957 C25.3728237,46.2176028 21.9721509,41.425113 18.5668386,36.6326231 C13.788267,30.04005 9.14887701,23.3454103 4.32391144,16.7853129 C3.03416104,14.7857358 1.40573516,12.9670949 0.501054116,10.7448272 C-0.241248278,8.54575631 0.259805838,6.1471917 1.21552017,4.09658134 Z" id="Path"></path>
                </g>
            </g>
        </g>
    </g>
</svg>