<svg xmlns="http://www.w3.org/2000/svg" width="15" height="20" viewBox="0 0 15 20">
    <g fill="none" fill-rule="evenodd" opacity=".5">
        <g fill="#787F9E" fill-rule="nonzero">
            <g>
                <path d="M38.116 38c.224 0 .414-.078.57-.235.157-.156.236-.347.236-.57-.015-1.015-.217-1.984-.604-2.909-.373-.895-.903-1.685-1.589-2.371-.686-.686-1.476-1.216-2.371-1.588-.298-.135-.612-.246-.94-.336.91-.298 1.708-.79 2.394-1.476 1.208-1.209 1.812-2.663 1.812-4.363 0-1.7-.604-3.15-1.812-4.351C34.604 18.6 33.15 18 31.45 18c-1.7 0-3.151.6-4.352 1.8-1.2 1.201-1.8 2.652-1.8 4.352 0 1.7.596 3.154 1.79 4.363.685.686 1.483 1.178 2.393 1.476-.343.09-.656.201-.94.336-.894.372-1.685.902-2.371 1.588-.686.686-1.215 1.476-1.588 2.371-.388.925-.582 1.894-.582 2.909 0 .223.078.414.235.57.156.157.347.235.57.235.224 0 .414-.078.57-.235.157-.156.236-.347.236-.57 0-1.611.57-2.99 1.711-4.14 1.141-1.147 2.52-1.722 4.139-1.722 1.618 0 2.998.57 4.139 1.712 1.14 1.14 1.711 2.524 1.711 4.15 0 .223.078.414.235.57.156.157.347.235.57.235zm-6.666-9.284c-1.253 0-2.327-.448-3.222-1.342-.88-.895-1.32-1.97-1.32-3.222 0-1.253.444-2.323 1.331-3.21.888-.888 1.958-1.331 3.21-1.331 1.253 0 2.324.443 3.211 1.33.887.888 1.331 1.958 1.331 3.211s-.444 2.327-1.331 3.222c-.887.894-1.958 1.342-3.21 1.342z" transform="translate(-54.000000, -336.000000) translate(30.000000, 318.000000)"/>
            </g>
        </g>
    </g>
</svg>
