<svg xmlns="http://www.w3.org/2000/svg" width="17" height="10" viewBox="0 0 17 10">
    <g fill="none" fill-rule="evenodd">
        <g fill="#7D84A1" fill-rule="nonzero">
            <g>
                <path d="M258.5 51.18V49.5h-7.92c-.533 0-1.023-.13-1.47-.39-.447-.26-.803-.613-1.07-1.06-.267-.447-.4-.93-.4-1.45 0-.52.133-1.003.4-1.45.267-.447.623-.803 1.07-1.07.447-.267.937-.4 1.47-.4h8.74c.453 0 .847.167 1.18.5.333.333.5.727.5 1.18 0 .453-.167.84-.5 1.16-.333.32-.727.48-1.18.48h-7.14c-.147 0-.25-.07-.31-.21-.06-.14-.06-.277 0-.41.06-.133.163-.2.31-.2h6.32V44.5h-6.24c-.373 0-.723.097-1.05.29-.327.193-.587.45-.78.77-.193.32-.29.667-.29 1.04s.097.72.29 1.04c.193.32.453.573.78.76.327.187.677.28 1.05.28h7.06c.6 0 1.153-.15 1.66-.45.507-.3.91-.703 1.21-1.21.3-.507.45-1.06.45-1.66 0-.6-.15-1.16-.45-1.68-.3-.52-.703-.93-1.21-1.23-.507-.3-1.06-.45-1.66-.45h-8.74c-.827 0-1.593.207-2.3.62-.707.413-1.263.97-1.67 1.67-.407.7-.61 1.47-.61 2.31 0 .827.203 1.593.61 2.3.407.707.963 1.263 1.67 1.67.707.407 1.473.61 2.3.61h7.92z" transform="translate(-266.000000, -801.000000) translate(20.000000, 759.000000)"/>
            </g>
        </g>
    </g>
</svg>
