<svg xmlns="http://www.w3.org/2000/svg" width="46" height="47" viewBox="0 0 46 47">
    <defs>
        <filter id="mwkr3xl15a" width="132.7%" height="151.4%" x="-16.4%" y="-25.7%" filterUnits="objectBoundingBox">
            <feOffset dy="8" in="SourceAlpha" result="shadowOffsetOuter1"/>
            <feGaussianBlur in="shadowOffsetOuter1" result="shadowBlurOuter1" stdDeviation="10"/>
            <feColorMatrix in="shadowBlurOuter1" result="shadowMatrixOuter1" values="0 0 0 0 0 0 0 0 0 0 0 0 0 0 0 0 0 0 0.106971154 0"/>
            <feMerge>
                <feMergeNode in="shadowMatrixOuter1"/>
                <feMergeNode in="SourceGraphic"/>
            </feMerge>
        </filter>
    </defs>
    <g fill="none" fill-rule="evenodd" opacity=".4">
        <g fill="#000" fill-rule="nonzero">
            <g filter="url(#mwkr3xl15a)" transform="translate(-308.000000, -281.000000) translate(19.000000, 275.000000)">
                <g>
                    <path d="M223.016 17.219c.187 0 .372-.037.554-.11.183-.073.347-.182.493-.328l.867-.93c.578-.62 1.213-1.307 1.906-2.062.693-.755 1.333-1.448 1.922-2.078l.898-.961c.459-.458.802-.977 1.031-1.555.23-.578.344-1.164.344-1.758 0-.593-.114-1.18-.344-1.757-.229-.578-.572-1.091-1.03-1.54-.449-.458-.933-.799-1.454-1.023-.52-.224-1.088-.336-1.703-.336-.594 0-1.2.198-1.82.594-.62.396-1.175.844-1.664 1.344-.51-.5-1.07-.948-1.68-1.344-.61-.396-1.221-.594-1.836-.594-.594 0-1.154.097-1.68.29-.526.192-1.007.507-1.445.945-.458.458-.802.974-1.031 1.546-.23.573-.344 1.16-.344 1.758 0 .6.115 1.185.344 1.758.229.573.573 1.089 1.031 1.547.125.135.487.531 1.086 1.188.599.656 1.232 1.354 1.898 2.093.667.74 1.269 1.404 1.805 1.992l.805.883c.146.146.307.255.484.328.177.073.365.11.563.11zm0-1c-.042 0-.092-.008-.149-.024-.057-.015-.117-.05-.18-.101-.156-.167-.51-.56-1.062-1.18-.552-.62-1.143-1.276-1.773-1.969l-1.766-1.937c-.547-.6-.883-.961-1.008-1.086-.344-.344-.61-.74-.797-1.188-.187-.448-.281-.916-.281-1.406 0-.49.094-.958.281-1.406.188-.448.453-.85.797-1.203.344-.334.714-.573 1.11-.719.395-.146.833-.219 1.312-.219.25 0 .602.1 1.055.297.453.198 1.039.651 1.757 1.36l.72.703.702-.72c.5-.51.998-.91 1.493-1.202.494-.292.919-.438 1.273-.438.48 0 .917.086 1.313.258.395.172.776.44 1.14.805.344.343.61.74.797 1.187.188.448.281.917.281 1.407s-.094.958-.281 1.406c-.188.448-.453.849-.797 1.203-.02.01-.206.203-.555.578-.349.375-.791.854-1.328 1.438-.536.583-1.135 1.229-1.797 1.937-.661.708-1.304 1.406-1.93 2.094-.062.052-.124.086-.187.101-.062.016-.11.024-.14.024z" transform="translate(89.000000, 13.000000)"/>
                </g>
            </g>
        </g>
    </g>
</svg>
