<svg xmlns="http://www.w3.org/2000/svg" width="53" height="53" viewBox="0 0 53 53">
    <defs>
        <filter id="8sawu5fnva" width="132.7%" height="151.4%" x="-16.4%" y="-25.7%" filterUnits="objectBoundingBox">
            <feOffset dy="8" in="SourceAlpha" result="shadowOffsetOuter1"/>
            <feGaussianBlur in="shadowOffsetOuter1" result="shadowBlurOuter1" stdDeviation="10"/>
            <feColorMatrix in="shadowBlurOuter1" result="shadowMatrixOuter1" values="0 0 0 0 0 0 0 0 0 0 0 0 0 0 0 0 0 0 0.106971154 0"/>
            <feMerge>
                <feMergeNode in="shadowMatrixOuter1"/>
                <feMergeNode in="SourceGraphic"/>
            </feMerge>
        </filter>
    </defs>
    <g fill="none" fill-rule="evenodd">
        <g fill="#A3A3A3" fill-rule="nonzero">
            <g filter="url(#8sawu5fnva)" transform="translate(-218.000000, -375.000000) translate(19.000000, 275.000000)">
                <g>
                    <g>
                        <g>
                            <path d="M12.023 15.506c.462 0 .842-.052 1.142-.156.37-.115.663-.311.882-.588.22-.277.346-.611.381-1.003.023-.335-.011-.623-.104-.865-.011-.047 0-.098.035-.156.323-.427.473-.865.45-1.315-.012-.115-.052-.283-.121-.502-.035-.08-.023-.155.034-.225.3-.38.444-.778.433-1.193 0-.081-.02-.202-.06-.364-.041-.161-.061-.253-.061-.276-.023-.07-.023-.121 0-.156.219-.242.369-.548.45-.917 0-.011.005-.023.017-.035v-.501l-.052-.156c-.127-.496-.398-.819-.813-.969-.243-.069-.485-.103-.727-.103H10c-.08 0-.127-.01-.138-.026-.012-.018-.012-.067 0-.147.023-.116.049-.269.078-.459.029-.19.057-.366.086-.528.03-.161.055-.311.078-.45.139-.714.115-1.343-.07-1.885-.068-.196-.276-.755-.622-1.678C9.296.53 9.088.305 8.788.178c-.61-.254-1.2-.236-1.764.052-.392.208-.583.519-.571.934 0 .116.006.392.017.83.012.439.023.773.035 1.004.011.208-.035.398-.139.57l-1.314 2.25c-.047.07-.208.254-.485.553-.196.208-.334.381-.415.52-.08.138-.121.305-.121.501v1.919l-.002.696c-.002 1.912-.007 3.33-.015 4.253 0 .346.124.64.372.883.247.242.544.363.89.363h6.747zm-9.947 0c.346 0 .64-.121.882-.363.242-.243.364-.537.364-.883V7.894c0-.346-.122-.64-.364-.882-.242-.243-.536-.364-.882-.364h-.83c-.346 0-.64.121-.883.364-.242.242-.363.536-.363.882v6.366c0 .346.121.64.363.883.242.242.537.363.883.363h.83z" transform="translate(17.000000, 88.000000) translate(201.000000, 4.000000) translate(0.000000, 18.000000)"/>
                        </g>
                    </g>
                </g>
            </g>
        </g>
    </g>
</svg>
