<svg xmlns="http://www.w3.org/2000/svg" width="34" height="34" viewBox="0 0 34 34">
    <g fill="none" fill-rule="evenodd">
        <g fill="#FFF" fill-rule="nonzero">
            <g>
                <path d="M16.16 52c1.991 0 4.614-2.855 8.033-8.7 3.553-1.228 8.4-2.257 13.015-2.755 2.789 1.46 6.01 2.424 8.134 2.424 1.76 0 2.257-.664 2.357-1.262v-.033c.033-.033.066-.1.1-.133.365-.797.166-1.395-.067-1.727-.83-1.36-3.652-1.627-5.876-1.627-1.195 0-2.49.067-3.885.233-1.029-.598-1.958-1.195-2.788-1.86-1.96-1.593-3.686-4.415-4.848-7.902.399-2.29.432-4.283.465-6.375v-.996c0-.1 0-.166-.033-.266.066-.066.1-.166.133-.265.2-1.063.1-1.793-.299-2.258-.266-.332-.664-.498-1.162-.498h-.73c-.664 0-1.162.498-1.395 1.328-.597 2.192-.265 5.91.797 9.53-.797 2.788-1.959 5.71-3.453 8.699-1.328 2.69-2.523 4.847-3.552 6.54 0-.033-.033-.099-.066-.132-.166-.266-.498-.365-.764-.2-4.117 2.159-5.91 4.715-6.242 6.243-.1.664.034 1.03.2 1.195.044.044.073.089.118.123l.878.442c.298.166.597.232.93.232zm12.135-27c-.268-2.059-.268-3.824.067-4.853 0-.037.034-.073.034-.147.2.257.402.662.435 1.324.033.073.033.147.067.183-.067.11-.1.184-.134.294-.067.442-.167.956-.234 1.581-.067.478-.134 1.03-.235 1.618zM25 42c.475-.868.95-1.768 1.426-2.668 1.14-2.282 2.028-4.371 2.63-6.332 1.078 2.346 2.472 4.275 4.025 5.657.285.257.602.482.919.74-3.106.578-6.211 1.478-9 2.603zm20.366-.031c-1.056 0-2.64-.335-4.366-.938 3.612 0 4.636.564 4.89.77l.04.034c.035.033.07.067.07.1-.14.034-.317.034-.634.034zM15 50c.547-1.076 2.263-3.165 5-5-2.336 3.196-3.905 4.557-5 5z" transform="translate(-34.000000, -448.000000) translate(20.000000, 430.000000)"/>
            </g>
        </g>
    </g>
</svg>
