<svg xmlns="http://www.w3.org/2000/svg" width="271" height="113" viewBox="0 0 271 113">
    <g fill="none" fill-rule="evenodd">
        <g fill-rule="nonzero">
            <g>
                <g>
                    <g fill="#FFF">
                        <path d="M3.197.22C4.037.016 4.905.107 5.759.092 20.443.095 35.13.097 49.815.09c1.652-.03 3.262 1.002 3.914 2.522.442.924.36 1.97.355 2.962-.006 14.186 0 28.372.002 42.556-.028 1.152.154 2.364-.32 3.453-.61 1.496-2.145 2.574-3.767 2.59-15.305-.003-30.607 0-45.91-.003-2.195.008-4.134-1.99-4.082-4.181C.01 34.754.004 19.516.011 4.278-.022 2.403 1.383.652 3.197.22m13.236 10.943c7.073.02 14.148.041 21.222-.011.004-.885.004-1.77-.024-2.654-7.059.02-14.117.017-21.174.002-.026.886-.026 1.775-.024 2.663m2.626 1.015c-.004.89 0 1.782-.002 2.672 5.326.02 10.655.056 15.981-.005-.005-.89-.002-1.78-.005-2.67-5.325.003-10.65-.005-15.974.003m-5.581 5.92c-1.628-.053-3.258-.016-4.888-.025-.004.636-.004 1.271-.006 1.907.744-.002 1.487 0 2.23.015-1.168 1.698-2.438 3.326-3.646 4.997-.622.872-1.32 1.695-1.84 2.635.729-.092 1.054-.795 1.455-1.313 1.543-2.106 3.082-4.217 4.649-6.306.048 2.486.018 4.975.016 7.462l.498-.01c-.003-2.498-.031-4.997.017-7.495 1.827 2.514 3.687 5.007 5.52 7.52.141-.01.425-.029.569-.036-1.822-2.481-3.691-4.927-5.453-7.45.622-.015 1.245-.023 1.867-.04 1.132-1.193 2.31-2.338 3.478-3.494.17-.185.377-.368.425-.628-.366-.485-.832-.88-1.265-1.306-1.218 1.18-2.366 2.43-3.626 3.566m22.331-2.371c-.243.238.116.457.248.64 1.189 1.2 2.408 2.37 3.573 3.595.621.017 1.244.02 1.866.037-1.146 1.671-2.386 3.275-3.58 4.912-.64.902-1.365 1.75-1.906 2.717.736-.083 1.056-.791 1.457-1.313 1.545-2.127 3.134-4.223 4.665-6.36.063 2.51 0 5.025.035 7.538.121-.015.36-.045.482-.058-.019-2.47-.017-4.938.002-7.406 1.57 2.03 3.051 4.126 4.583 6.183.429.547.752 1.303 1.524 1.42-.508-.95-1.218-1.764-1.839-2.635-1.213-1.67-2.468-3.308-3.644-5.003.738-.013 1.474-.015 2.212-.013.01-.636.016-1.27.018-1.903-1.663-.006-3.325-.004-4.988-.002-1.175-1.182-2.347-2.368-3.539-3.533-.397.386-.823.747-1.169 1.184m-13.673.78c-.044 7.092-.039 14.182-.005 21.273.693.001 1.384.003 2.076.007-.008-7.068-.019-14.138.005-21.207-.69-.058-1.382-.07-2.076-.073m3.916.069c-.072.418-.078.846-.072 1.27.056 6.65-.061 13.3.06 19.947.668-.008 1.34-.012 2.008-.013.077-2.368.017-4.738.036-7.107-.023-4.719.044-9.44-.036-14.156-.665 0-1.336-.049-1.996.059m3.9-.07c-.025.445-.05.893-.056 1.341-.002 5.388.002 10.774 0 16.16.013 1.262-.05 2.527.065 3.786.661-.008 1.323-.008 1.985-.004.111-7.074.001-14.149.039-21.222-.679-.041-1.355-.058-2.034-.062M4.314 28.662c-.045 1.951.652 3.929 2.023 5.337 1.58 1.703 4 2.576 6.303 2.258 1.996-.247 3.862-1.355 5.036-2.984.972-1.33 1.448-2.983 1.41-4.624-2.518-.117-5.041-.026-7.561-.054-2.404.03-4.81-.07-7.211.067m30.704-.052c-.067 1.61.388 3.239 1.323 4.557 1.158 1.695 3.07 2.828 5.1 3.092 2.483.344 5.096-.708 6.664-2.661 1.143-1.375 1.712-3.163 1.67-4.944-1.597-.111-3.2-.04-4.8-.06-3.319.01-6.638-.02-9.957.016M19.066 39.433c-.01.887-.009 1.773-.002 2.66 5.327.006 10.651.007 15.978 0-.008-.883-.008-1.766-.004-2.647-5.324-.03-10.647-.001-15.972-.013m-2.635 3.708c.004.88 0 1.758.015 2.637 7.066-.001 14.134-.009 21.2.004.01-.885.009-1.77.01-2.654-7.075-.013-14.15-.056-21.225.013z" transform="translate(-52.000000, -164.000000) translate(52.000000, 164.000000) translate(0.000000, 0.000000) translate(3.345285, 1.300944)"/>
                    </g>
                    <g fill="#F5B84D">
                        <path d="M12.158 2.799c-.002-.888-.002-1.777.024-2.663C19.24.15 26.298.154 33.356.134c.028.884.028 1.77.024 2.654-7.073.052-14.148.031-21.222.01zM14.784 3.814c5.325-.008 10.65 0 15.974-.004.004.89 0 1.78.006 2.67-5.327.062-10.655.027-15.982.006.002-.89-.001-1.782.002-2.672zM9.203 9.733c1.26-1.136 2.409-2.386 3.626-3.567.433.426.9.822 1.266 1.307-.049.26-.255.442-.426.628-1.167 1.156-2.345 2.301-3.477 3.494-.623.017-1.245.024-1.868.04 1.762 2.523 3.632 4.969 5.453 7.45-.143.007-.427.026-.569.035-1.832-2.513-3.693-5.005-5.52-7.52-.048 2.499-.02 4.998-.016 7.496l-.498.01c.002-2.487.031-4.976-.017-7.463-1.567 2.09-3.105 4.2-4.648 6.306-.401.519-.727 1.221-1.455 1.314.52-.94 1.217-1.763 1.84-2.635 1.208-1.67 2.477-3.299 3.646-4.998-.743-.014-1.487-.016-2.23-.014.002-.636.002-1.272.005-1.907 1.63.01 3.26-.028 4.888.024zM31.535 7.361c.346-.436.771-.797 1.169-1.183 1.191 1.165 2.364 2.35 3.538 3.533 1.664-.002 3.325-.004 4.989.001-.002.634-.008 1.268-.019 1.904-.738-.002-1.474 0-2.212.013 1.177 1.695 2.431 3.334 3.645 5.003.62.871 1.33 1.685 1.838 2.635-.771-.117-1.095-.874-1.524-1.42-1.531-2.057-3.013-4.154-4.583-6.183-.019 2.468-.02 4.936-.002 7.406-.12.013-.36.043-.481.058-.036-2.513.028-5.028-.036-7.538-1.53 2.137-3.12 4.233-4.664 6.36-.402.522-.721 1.23-1.457 1.313.54-.968 1.265-1.815 1.906-2.717 1.194-1.637 2.433-3.241 3.58-4.912-.623-.017-1.245-.02-1.866-.037-1.165-1.225-2.384-2.396-3.574-3.594-.132-.184-.49-.404-.247-.642zM17.862 8.142c.693.002 1.385.015 2.076.073-.024 7.07-.013 14.139-.006 21.207-.691-.004-1.382-.006-2.076-.008-.033-7.09-.039-14.18.006-21.272zM21.778 8.21c.66-.107 1.33-.059 1.996-.059.08 4.717.013 9.438.035 14.156-.018 2.37.041 4.74-.035 7.107-.67.002-1.34.006-2.01.013-.12-6.646-.003-13.297-.059-19.947-.005-.424 0-.851.073-1.27zM25.677 8.14c.678.004 1.355.02 2.033.062-.037 7.073.073 14.148-.039 21.222-.662-.004-1.323-.004-1.985.003-.115-1.258-.052-2.523-.065-3.785.002-5.386-.002-10.772 0-16.16.006-.448.032-.896.056-1.342zM.039 20.298c2.401-.137 4.808-.037 7.211-.066 2.52.027 5.044-.064 7.562.053.037 1.641-.438 3.296-1.41 4.624-1.175 1.63-3.04 2.738-5.037 2.985-2.303.318-4.722-.556-6.302-2.258C.69 24.227-.006 22.25.039 20.298zM30.743 20.246c3.32-.035 6.639-.005 9.958-.014 1.6.018 3.202-.052 4.799.059.042 1.78-.526 3.568-1.67 4.944-1.568 1.953-4.18 3.005-6.664 2.661-2.03-.264-3.942-1.398-5.1-3.093-.934-1.317-1.39-2.945-1.323-4.557zM14.792 31.07c5.324.011 10.647-.016 15.972.013-.004.881-.004 1.764.003 2.647-5.326.007-10.65.005-15.977 0-.008-.887-.01-1.773.002-2.66zM12.156 34.778c7.076-.069 14.15-.026 21.226-.013-.002.885 0 1.77-.01 2.654-7.067-.013-14.135-.006-21.2-.004-.016-.879-.012-1.758-.016-2.637z" transform="translate(-52.000000, -164.000000) translate(52.000000, 164.000000) translate(0.000000, 0.000000) translate(7.619816, 9.664157)"/>
                    </g>
                    <g fill="#5899D9">
                        <path d="M1.7 1.845C2.729.73 4.238.095 5.75.091c14.627.006 29.251.002 43.877.002 1.16.013 2.359-.11 3.472.297 2.122.686 3.702 2.766 3.765 5-.003 15.362.002 30.726.002 46.09-.046 2.82-2.566 5.3-5.388 5.3-6.686-.001-13.371.004-20.058-.003-.028 6.441.02 12.885-.025 19.326-1.912-.039-3.817.121-5.718.303-.015-6.542-.006-13.083-.004-19.625-6.705-.004-13.41.001-20.114-.002-2.342-.023-4.524-1.732-5.148-3.981-.3-.97-.223-1.994-.23-2.994l.001-44.04c-.02-1.44.515-2.881 1.519-3.919m2.982-.325c-1.813.433-3.219 2.184-3.185 4.06-.007 15.237-.002 30.475-.004 45.71-.052 2.192 1.887 4.19 4.081 4.182 15.303.002 30.606 0 45.91.002 1.623-.015 3.158-1.093 3.768-2.589.474-1.089.292-2.3.32-3.453-.002-14.184-.008-28.37-.002-42.556.005-.992.087-2.038-.355-2.962-.653-1.52-2.262-2.552-3.914-2.522-14.686.006-29.372.004-44.056.002-.855.015-1.723-.076-2.563.126z" transform="translate(-52.000000, -164.000000) translate(52.000000, 164.000000) translate(0.000000, 0.000000) translate(1.858492, 0.000000)"/>
                    </g>
                    <g fill="#EA393F">
                        <path d="M17.752.12c1.389-.233 2.788.122 4.096.573 1.168.42 2.292.967 3.336 1.641.506.344 1.036.72 1.316 1.283-.061.45-.5.706-.894.834-.736.244-1.509.357-2.232.643 4.856-.857 9.78-1.555 14.723-1.368 2.074.104 4.187.333 6.122 1.14 1.334.542 2.602 1.523 3.028 2.956.483 1.922-.207 3.868-1.075 5.568 1.337 1.287 2.504 3.09 2.13 5.026-.351 1.886-1.94 3.16-3.44 4.176.584 1.996.963 4.29-.05 6.213-.684 1.275-2.156 1.808-3.526 1.888.33 1.442.426 3.026-.249 4.39-.76 1.589-2.544 2.45-4.239 2.557-6.817.004-13.632-.002-20.449.004-.829-.01-1.678.069-2.483-.177-1.52-.431-3.06-.91-4.393-1.784-.511-.316-.859-.814-1.15-1.325-1.257-.015-2.511-.004-3.768-.011 0-7.704 0-15.407-.002-23.11 1.324-.008 2.645.003 3.966-.008C10.4 8.025 12.71 5.09 15.097 2.252c.778-.814 1.471-1.903 2.655-2.131zM.091 11.235c.937-.002 1.873.001 2.81.001.004 7.704 0 15.407.002 23.11-.939.004-1.877.006-2.814 0C.084 26.644.08 18.94.091 11.236z" transform="translate(-52.000000, -164.000000) translate(52.000000, 164.000000) translate(0.000000, 0.000000) translate(0.000000, 73.596270)"/>
                    </g>
                </g>
                <path fill="#FFF" d="M70.502 101.379V89.987c0-1.197.325-2.121.974-2.771.65-.65 1.536-.975 2.657-.975 1.07 0 1.924.319 2.561.956s.956 1.529.956 2.676v11.506h7.492V89.987c0-1.197.325-2.121.975-2.771.65-.65 1.536-.975 2.657-.975 1.07 0 1.924.319 2.561.956s.956 1.529.956 2.676v11.506h7.492V88.917c0-2.854-.758-5.097-2.274-6.728-1.517-1.63-3.625-2.446-6.327-2.446-1.529 0-2.918.376-4.167 1.127-1.248.752-2.242 1.752-2.981 3.001-.688-1.325-1.644-2.344-2.867-3.058s-2.638-1.07-4.243-1.07c-1.478 0-2.765.312-3.861.936-1.096.625-1.95 1.472-2.561 2.542v-3.287H62.97v21.445h7.53zm42.928 10.245L127 79.934h-8.333l-4.243 12.003-4.587-12.003h-8.372l8.945 20.528-5.237 11.162h8.257zm29.97-10.245V73.091h-7.531v28.288h7.53zm12.118.268c1.503 0 2.81-.325 3.918-.975 1.108-.65 1.93-1.548 2.465-2.695v3.402h7.493V79.934H161.9v3.402c-.535-1.147-1.357-2.045-2.465-2.695-1.109-.65-2.415-.975-3.918-.975-1.708 0-3.25.44-4.626 1.32-1.376.878-2.46 2.146-3.25 3.803-.79 1.656-1.184 3.606-1.184 5.848 0 2.243.395 4.199 1.185 5.868.79 1.67 1.873 2.944 3.25 3.823 1.375.879 2.917 1.319 4.625 1.319zm2.484-6.575c-1.172 0-2.121-.39-2.848-1.166-.726-.778-1.09-1.867-1.09-3.269 0-1.376.364-2.453 1.09-3.23.727-.777 1.676-1.166 2.848-1.166 1.122 0 2.052.395 2.79 1.185.74.79 1.11 1.86 1.11 3.211 0 1.376-.37 2.46-1.11 3.25-.738.79-1.668 1.185-2.79 1.185zm27.218 6.307l3.325-13.341 3.25 13.341h8.41l5.313-21.445h-6.957l-2.37 14.45-3.517-14.45h-7.99l-3.364 14.335-2.331-14.335h-7.455l5.237 21.445h8.449zm32.033 10.245l13.57-31.69h-8.333l-4.243 12.003-4.587-12.003h-8.371l8.945 20.528-5.238 11.162h8.257zm25.154-9.977c1.758 0 3.376-.344 4.854-1.033 1.478-.688 2.702-1.637 3.67-2.847.968-1.211 1.593-2.568 1.873-4.072h-7.951c-.178.587-.51 1.058-.994 1.415s-1.096.535-1.835.535c-1.988 0-3.045-1.21-3.173-3.632h14.183c.127-.637.19-1.223.19-1.758 0-2.115-.452-3.976-1.356-5.581-.905-1.606-2.173-2.842-3.804-3.708-1.63-.867-3.517-1.3-5.657-1.3-2.116 0-4.002.44-5.658 1.32-1.656.878-2.943 2.146-3.86 3.803-.918 1.656-1.377 3.606-1.377 5.848 0 2.243.459 4.199 1.376 5.868.918 1.67 2.198 2.944 3.842 3.823 1.644.879 3.536 1.319 5.677 1.319zm3.172-12.768h-6.69c.103-1.096.466-1.924 1.09-2.485.624-.56 1.434-.84 2.428-.84.917 0 1.681.28 2.293.84.612.56.905 1.389.88 2.485zm18.196 12.5v-9.25c0-1.606.42-2.734 1.262-3.384.84-.65 2.102-.975 3.784-.975H271v-8.027c-1.427 0-2.778.382-4.052 1.147-1.274.764-2.332 1.783-3.173 3.058v-4.014h-7.53v21.445h7.53z" transform="translate(-52.000000, -164.000000) translate(52.000000, 164.000000)"/>
            </g>
        </g>
    </g>
</svg>
