<svg xmlns="http://www.w3.org/2000/svg" width="25" height="17" viewBox="0 0 25 17">
    <g fill="none" fill-rule="evenodd">
        <g fill="#000" fill-rule="nonzero">
            <g>
                <path d="M17.327 14.286c.552 0 1 .447 1 1 0 .513-.387.935-.884.993l-.116.007H1c-.552 0-1-.448-1-1 0-.513.386-.936.883-.994L1 14.286h16.327zm3.265-7.143c.552 0 1 .448 1 1 0 .513-.386.935-.884.993l-.116.007H4.918c-.552 0-1-.448-1-1 0-.513.386-.936.884-.993l.116-.007h15.674zM23.857.714c.552 0 1 .448 1 1 0 .513-.386.936-.883.994l-.117.006H8.184c-.553 0-1-.447-1-1 0-.513.386-.935.883-.993l.117-.007h15.673z" transform="translate(-19.000000, -51.000000) translate(19.000000, 51.000000)"/>
            </g>
        </g>
    </g>
</svg>
