<svg xmlns="http://www.w3.org/2000/svg" width="17" height="22" viewBox="0 0 17 22">
    <g fill="none" fill-rule="evenodd">
        <g fill="#7B82A0" fill-rule="nonzero" stroke="#868EAB" stroke-width=".3">
            <g>
                <path d="M5.547 21c.195 0 .361-.068.498-.205.137-.137.205-.303.205-.498s-.068-.361-.205-.498c-.137-.137-.303-.205-.498-.205h-4.14V2.406H7.5v4.688c0 .39.137.722.41.996.274.273.606.41.996.41h4.688v3.047c0 .195.068.361.205.498.137.137.303.205.498.205s.361-.068.498-.205c.137-.137.205-.303.205-.498V7.875c0-.378-.137-.703-.41-.977L9.16 1.41c-.078-.078-.176-.15-.293-.215-.026-.026-.052-.039-.078-.039-.013-.013-.032-.026-.059-.039C8.548 1.04 8.36 1 8.164 1H1.406c-.39 0-.722.137-.996.41-.273.274-.41.606-.41.996v17.188c0 .39.137.722.41.996.274.273.606.41.996.41h4.14zm7.266-13.906H8.905V3.148l3.906 3.946zM10.546 21c.195 0 .361-.068.498-.205.137-.137.205-.303.205-.498v-2.89h3.047c.195 0 .361-.07.498-.206.137-.137.205-.303.205-.498s-.068-.361-.205-.498c-.137-.137-.303-.205-.498-.205H11.25v-3.047c0-.195-.068-.361-.205-.498-.137-.137-.303-.205-.498-.205s-.361.068-.498.205c-.137.137-.205.303-.205.498V16h-2.89c-.196 0-.362.068-.499.205-.137.137-.205.303-.205.498s.068.361.205.498c.137.137.303.205.498.205h2.89v2.89c0 .196.07.362.206.499.137.137.303.205.498.205z" transform="translate(-35.000000, -333.000000) translate(36.000000, 333.000000)"/>
            </g>
        </g>
    </g>
</svg>
