<svg xmlns="http://www.w3.org/2000/svg" width="24" height="22" viewBox="0 0 24 22">
    <g fill="none" fill-rule="evenodd">
        <g fill="#7E84A2" fill-rule="nonzero" stroke="#8990AD" stroke-width=".5">
            <g>
                <path d="M11.104 22c.26 0 .516-.05.768-.152.253-.1.48-.252.682-.454l1.201-1.288c.801-.859 1.682-1.81 2.641-2.857.96-1.046 1.847-2.006 2.662-2.879.816-.873 1.23-1.317 1.245-1.331.635-.635 1.111-1.353 1.429-2.154.317-.8.476-1.612.476-2.435 0-.822-.159-1.634-.476-2.435-.318-.8-.794-1.511-1.429-2.132-.62-.635-1.291-1.107-2.013-1.418-.721-.31-1.508-.465-2.36-.465-.822 0-1.662.274-2.52.823-.86.548-1.628 1.168-2.306 1.861-.707-.693-1.483-1.313-2.327-1.861C7.933 2.274 7.085 2 6.234 2c-.823 0-1.598.133-2.327.4-.729.267-1.396.704-2.002 1.31C1.27 4.345.794 5.06.476 5.853.16 6.646 0 7.458 0 8.288c0 .83.159 1.641.476 2.435.318.794.794 1.508 1.429 2.143.173.187.674.736 1.504 1.645s1.706 1.876 2.63 2.9c.923 1.025 1.757 1.945 2.5 2.76l1.115 1.223c.202.202.425.353.67.454.246.101.506.152.78.152zm0-1.385c-.058 0-.126-.011-.206-.033-.08-.021-.162-.068-.249-.14-.216-.231-.707-.776-1.472-1.635-.764-.858-1.583-1.767-2.456-2.727s-1.689-1.854-2.446-2.684c-.758-.83-1.223-1.331-1.396-1.504-.476-.476-.844-1.025-1.104-1.645-.26-.62-.39-1.27-.39-1.948 0-.679.13-1.328.39-1.948.26-.62.628-1.176 1.104-1.667.476-.462.988-.794 1.537-.996.548-.202 1.154-.303 1.818-.303.346 0 .833.137 1.46.412.629.274 1.44.901 2.436 1.883l.996.974.974-.996c.692-.707 1.381-1.263 2.067-1.667.685-.404 1.273-.606 1.764-.606.664 0 1.27.12 1.818.357.548.239 1.075.61 1.58 1.115.476.476.844 1.025 1.104 1.645.26.62.39 1.27.39 1.948 0 .678-.13 1.328-.39 1.948-.26.62-.628 1.176-1.104 1.667-.029.014-.285.281-.768.8-.484.52-1.097 1.184-1.84 1.992-.743.808-1.573 1.703-2.49 2.684-.916.981-1.807 1.948-2.673 2.9-.086.073-.173.12-.26.141-.086.022-.15.033-.194.033z" transform="translate(-31.000000, -228.000000) translate(32.000000, 227.000000)"/>
            </g>
        </g>
    </g>
</svg>
