<svg xmlns="http://www.w3.org/2000/svg" width="22" height="16" viewBox="0 0 22 16">
    <g fill="none" fill-rule="evenodd">
        <g fill="#8A92AE" fill-rule="nonzero" stroke="#959DB8" stroke-width=".5">
            <g>
                <path d="M10.02 17.79c1.041 0 2.06-.147 3.056-.44.996-.293 1.93-.717 2.803-1.27.872-.553 1.66-1.234 2.363-2.04.703-.808 1.276-1.733 1.719-2.774.013-.013.02-.023.02-.03v-.029h0l.01-.01.009-.01v-.058h0c0-.013.007-.026.02-.04 0-.025.003-.054.01-.087.006-.033.01-.062.01-.088 0-.026-.004-.052-.01-.078-.007-.026-.01-.052-.01-.078-.013-.026-.02-.046-.02-.059v-.039h0c0-.013-.003-.023-.01-.03l-.01-.009h0v-.03h0c0-.006-.006-.015-.02-.028-.442-1.042-1.015-1.97-1.718-2.784-.703-.814-1.484-1.5-2.344-2.06-.859-.56-1.787-.987-2.783-1.28C12.12 4.146 11.1 4 10.06 4c-1.042 0-2.064.146-3.067.44-1.002.292-1.94.719-2.812 1.279-.873.56-1.664 1.246-2.373 2.06-.71.814-1.293 1.742-1.748 2.784v.058h0l-.01.01h0l-.01.01v.058h0c0 .013-.006.026-.02.04 0 .025-.003.055-.01.087-.006.033-.009.062-.009.088 0 .026.003.052.01.078.006.026.01.052.01.078.013.026.02.046.02.059v.039h0c0 .013.002.023.009.03l.01.009v.059h0c.455 1.041 1.035 1.966 1.738 2.773.703.807 1.49 1.488 2.363 2.041.873.553 1.807.977 2.803 1.27.996.293 2.015.44 3.057.44zm0-1.25c-.886 0-1.758-.118-2.618-.352-.859-.235-1.67-.586-2.431-1.055-.762-.469-1.462-1.055-2.1-1.758-.638-.703-1.165-1.523-1.582-2.46.417-.938.944-1.759 1.582-2.462.638-.703 1.341-1.292 2.11-1.767.768-.476 1.585-.834 2.45-1.075.867-.24 1.742-.361 2.628-.361.885 0 1.757.12 2.617.361.86.241 1.67.6 2.431 1.075.762.475 1.456 1.064 2.08 1.767.625.703 1.146 1.524 1.563 2.461-.417.938-.94 1.758-1.572 2.461-.632.703-1.328 1.29-2.09 1.758-.762.469-1.576.82-2.442 1.055-.865.234-1.741.351-2.626.351zm.058-1.876c1.042 0 1.927-.365 2.656-1.094.73-.729 1.094-1.614 1.094-2.656 0-1.029-.364-1.91-1.094-2.646-.729-.736-1.614-1.104-2.656-1.104-1.029 0-1.91.368-2.646 1.104-.736.735-1.104 1.617-1.104 2.646 0 1.042.368 1.927 1.104 2.656.735.73 1.617 1.094 2.646 1.094zm0-1.25c-.677 0-1.266-.247-1.767-.742-.502-.495-.752-1.087-.752-1.777s.244-1.28.732-1.768 1.077-.732 1.768-.732c.69 0 1.279.244 1.767.732s.733 1.077.733 1.768c0 .69-.241 1.282-.723 1.777-.482.495-1.068.742-1.758.742z" transform="translate(-32.000000, -284.000000) translate(33.000000, 281.000000)"/>
            </g>
        </g>
    </g>
</svg>
